<svg width="782" height="205" viewBox="0 0 782 205" fill="none" xmlns="http://www.w3.org/2000/svg">
<g filter="url(#filter0_d_117_44)">
<mask id="path-1-outside-1_117_44" maskUnits="userSpaceOnUse" x="3" y="0" width="776" height="198" fill="black">
<rect fill="white" x="3" width="776" height="198"/>
<path d="M115.954 127.653L119.656 136.652C120.773 139.333 121.028 141.966 120.948 144.231C120.884 146.481 120.486 148.364 120.182 149.529C119.145 154.012 116.321 157.028 115.38 158.4C112.827 162.118 107.912 164.479 106.62 165.038C106.62 165.038 103.492 166.458 98.8014 168.644C96.4718 169.729 93.7433 171.005 90.8553 172.41C87.9513 173.798 84.8558 175.314 81.7923 176.845C78.6968 178.377 75.6333 179.925 72.7771 181.409C69.921 182.893 67.2564 184.297 64.9747 185.509C60.4272 187.951 57.4115 189.594 57.4115 189.594C56.9169 189.85 56.4382 189.435 56.1031 188.94C55.5447 187.504 54.332 184.951 52.8002 181.824C51.2685 178.696 49.3856 174.994 47.439 171.277C45.4924 167.559 43.4819 163.825 41.6949 160.586C39.9237 157.363 38.376 154.651 37.3548 153.007C36.3336 151.284 34.7859 148.667 33.0148 145.604C31.2596 142.572 29.2651 139.093 27.3185 135.743C25.3878 132.376 23.521 129.105 21.9892 126.456C20.4893 123.808 19.3245 121.765 18.8299 120.84C17.9045 118.989 16.3248 115.957 14.9366 113.341C13.5485 110.74 12.3358 108.538 12.1284 108.33C11.8412 107.804 12.0486 107.166 12.623 106.846C12.623 106.846 16.0536 104.996 21.2074 102.235C23.7922 100.863 26.8079 99.2673 30.0629 97.5919C33.318 95.9006 36.8123 94.1454 40.3067 92.4062C43.817 90.667 47.3114 88.9438 50.6143 87.3482C53.9331 85.7845 57.0126 84.3166 59.6773 83.072C64.9906 80.6467 68.5648 79.0192 68.5648 79.0192C70.5752 78.1256 73.2558 77.1523 75.8407 76.546C78.4415 75.9237 80.9466 75.6205 82.622 75.9396C84.8877 76.3545 87.7279 76.8172 90.6479 78.6841C92.1158 79.6255 93.5838 80.9179 95.0198 82.7369C96.4399 84.5718 97.8121 86.9014 99.0726 89.9331C100.333 92.9966 100.812 95.5496 100.844 97.7994C100.892 100.033 100.509 101.996 100.03 103.799C99.0726 107.788 96.8867 110.357 95.0677 112.607C93.7752 114.138 93.0253 115.798 95.7378 116.069C98.6259 116.26 101.227 115.144 106.141 117.138C108.279 118.048 110.13 119.196 111.758 120.872C113.369 122.563 114.757 124.733 115.954 127.653ZM85.2069 156.693C86.0047 153.007 83.5474 149.848 81.9678 146.816C80.4201 143.577 78.6809 139.253 74.4525 138.615C73.5909 138.519 72.5378 138.711 71.8038 139.237C70.6071 139.843 70.655 140.625 71.389 141.774C72.5218 143.96 74.3408 148.428 76.1598 152.417C77.9628 156.422 79.7499 159.916 80.8349 160.155C83.1964 160.475 84.8718 158.672 85.2069 156.693ZM66.6022 122.675C70.0806 119.005 67.3681 113.995 65.6927 110.468C64.0811 107.118 62.6929 103.799 58.8316 102.171C57.5232 101.629 55.9276 101.9 54.9862 103.177C54.2682 103.863 54.0927 104.932 54.6352 105.682C56.2786 108.857 57.4913 111.569 58.672 114.282C59.8528 117.01 61.0016 119.803 62.4696 123.137C62.9961 124.558 65.4852 123.84 66.6022 122.675ZM182.666 37.8208C182.842 37.9005 182.985 37.8686 183.193 37.9803C184.182 40.9641 184.629 42.6873 185.107 44.8733C185.618 47.0593 186.176 49.6442 187.405 54.3352C188.043 56.6488 190.165 61.9622 190.931 64.2279C191.139 64.946 190.74 65.8395 189.958 65.8874C187.485 66.5097 184.533 67.2117 181.438 67.9616C178.374 68.6956 175.135 69.4615 172.071 70.2114C169.008 70.9933 166.104 71.7432 163.647 72.3974C161.205 73.0995 159.211 73.6739 157.982 74.1366C154.376 75.3812 151.057 76.6577 148.823 78.0299C146.59 79.434 145.409 80.9339 145.999 82.705C147.196 86.1036 149.861 85.5132 151.392 85.2899C154.121 84.8431 156.02 84.2687 158.03 83.5507C160.025 82.8645 162.163 82.0348 165.386 81.1732C168.641 80.3914 171.912 79.7212 175.183 79.5936C178.406 79.4659 181.613 79.8808 184.708 81.253C187.198 82.3859 190.261 83.6464 193.325 86.9174C194.856 88.5608 196.372 90.6989 197.824 93.5551C199.276 96.4431 200.68 100.065 201.957 104.644C202.324 106.017 202.691 108.203 202.723 110.867C202.755 113.532 202.452 116.691 201.462 119.994C201.047 121.43 200.106 123.297 198.766 125.164C197.409 127.047 195.638 128.93 193.58 130.382C190.963 132.201 187.932 133.557 185.203 134.594C182.507 135.647 180.113 136.365 178.805 136.86C178.294 137.019 175.31 138.024 171.098 139.445C168.992 140.163 166.582 140.992 164.045 141.886C161.508 142.779 158.828 143.753 156.163 144.726C153.514 145.683 150.882 146.673 148.425 147.598C145.967 148.539 143.686 149.401 141.739 150.183C137.862 151.715 135.277 152.736 135.277 152.736C134.782 152.943 134.08 152.752 133.809 152.05C132.772 149.864 132.022 147.582 131.415 145.268C130.474 142.412 129.373 139.636 128.224 136.876C127.075 134.115 125.863 131.371 124.746 128.61C124.475 127.908 124.905 127.079 125.576 126.807C128.543 125.962 134.399 123.696 135.468 123.281C136.888 122.898 138.899 122.244 141.196 121.43C143.494 120.616 146.079 119.643 148.632 118.638C151.185 117.649 153.706 116.58 155.892 115.606C158.062 114.633 159.913 113.707 161.094 112.958C162.705 111.793 163.551 110.229 162.992 108.059C162.418 105.873 159.434 106.176 156.147 107.197C152.86 108.235 149.27 110.006 147.419 110.74C144.483 111.952 141.548 112.942 138.596 113.452C135.612 113.995 132.612 114.043 129.517 113.404C127.139 112.862 124.858 111.857 122.719 110.564C120.597 109.272 118.619 107.692 116.975 105.937C115.38 104.182 114.023 102.251 112.875 100.177C111.742 98.1185 110.816 95.9006 110.114 93.6189C109.412 91.3053 108.917 88.9278 108.662 86.5025C108.391 84.0932 108.343 81.6359 108.519 79.2106C108.678 76.4024 109.237 73.642 110.258 71.0571C111.311 68.4722 112.843 66.0469 114.901 63.9088C116.56 62.2334 118.379 60.5581 120.39 59.0742C122.384 57.6222 124.538 56.3616 126.852 55.5319C126.852 55.5319 130.314 54.3033 135.5 52.4843C138.085 51.6068 141.117 50.5696 144.372 49.4846C147.627 48.4155 151.121 47.2827 154.6 46.1658C158.078 45.0648 161.588 43.9798 164.859 42.9586C168.146 42.0012 171.226 41.0758 173.842 40.3259C179.14 38.81 182.666 37.8208 182.666 37.8208ZM286.955 71.2486C287.082 72.4134 287.306 74.344 287.593 76.6896C287.864 79.0351 288.199 81.8115 288.598 84.6676C288.997 87.5237 289.412 90.4596 289.859 93.1083C290.289 95.773 290.768 98.1823 291.215 99.9853L292.555 108.985C292.651 109.734 292.172 110.405 291.486 110.5C291.486 110.5 289.444 110.835 286.412 111.282C283.364 111.777 279.312 112.447 275.275 113.133C271.222 113.851 267.201 114.585 264.169 115.159C261.154 115.75 259.127 116.133 259.127 116.133C254.755 117.01 251.006 117.537 247.751 117.776C244.512 118.048 241.783 118.032 239.438 117.856C234.762 117.521 231.747 116.516 229.577 115.718C227.359 114.968 225.029 113.995 222.875 112.814C220.689 111.649 218.695 110.261 217.099 108.665C213.637 105.299 211.259 102.139 209.568 99.028C207.861 95.9166 206.823 92.853 206.01 89.7575C206.01 89.7575 204.845 85.4016 203.712 81.0775C202.547 76.7534 201.398 72.4134 201.398 72.4134C201.367 72.2698 203.042 78.6362 201.319 72.1102C200.473 68.935 199.915 65.7597 199.595 62.7121C199.308 59.6486 199.26 56.7286 199.436 54.064C199.723 51.4312 200.505 48.9102 201.622 46.4849C202.723 44.0596 204.159 41.73 205.723 39.5121C206.935 37.6931 208.658 36.0496 210.717 34.5498C212.775 33.0499 215.216 31.7096 217.833 30.5129C220.466 29.3322 223.29 28.295 226.21 27.4015C229.114 26.5239 232.066 25.7899 234.97 25.1836C234.97 25.1836 237.539 24.673 241.416 23.8912C243.347 23.5242 245.613 23.0615 248.038 22.6147C250.463 22.1679 253.048 21.6733 255.649 21.2265C258.25 20.7638 260.85 20.317 263.292 19.8862C265.717 19.4714 267.999 19.1203 269.929 18.7853C273.839 18.1949 276.455 17.78 276.455 17.78C277.253 17.6683 279.168 18.7214 279.28 19.4873L280.413 27.1941C280.524 27.9121 280.476 28.678 280.604 29.5715C280.604 30.481 280.875 32.5234 281.242 35.0923C281.625 37.6452 282.12 40.7407 282.599 43.7085C283.588 49.6442 284.561 55.1171 284.561 55.1171C284.673 55.883 284.146 56.5691 283.396 56.6808C282.375 56.7924 279.838 57.2073 276.551 57.7817C273.264 58.3721 269.227 59.138 265.238 59.9198C261.265 60.7176 257.324 61.5314 254.197 62.1856C251.085 62.8557 248.772 63.3344 248.07 63.4461C242.31 64.5949 240.523 68.6478 241.033 70.9933C241.608 72.9878 243.235 74.9663 245.054 75.6684C248.788 76.8491 250.096 76.5938 253.942 76.163C255.41 76.0194 258.09 75.5567 261.281 74.9663C264.457 74.3919 268.158 73.6899 271.685 73.0037C275.227 72.3495 278.594 71.6954 281.115 71.2167C283.652 70.7539 285.311 70.4348 285.471 70.4029C286.061 70.3231 286.699 70.6901 286.955 71.2486ZM375.622 9.03614C375.766 9.17974 375.941 9.17974 376.085 9.32335C376.34 12.4667 376.356 14.2697 376.308 16.4876C376.26 18.7214 376.164 21.3701 376.212 26.2367C376.276 28.6301 377.026 34.2945 377.25 36.6719C377.25 37.4219 376.675 38.2037 375.909 38.0601C373.324 38.0441 370.309 38.0122 367.133 37.9803C363.974 37.9484 360.639 37.9165 357.496 37.9005C354.337 37.9165 351.337 37.9484 348.8 37.9803C346.247 38.0601 344.173 38.1399 342.88 38.2835C339.067 38.6345 335.557 39.0494 333.035 39.8472C330.53 40.6769 329.015 41.8576 329.19 43.6926C329.493 47.2986 332.254 47.3465 333.785 47.522C336.546 47.7454 338.524 47.6337 340.63 47.4422C342.737 47.2508 345.018 46.9955 348.353 46.8997C351.688 46.9316 355.039 47.0912 358.23 47.7454C361.405 48.4155 364.405 49.6122 367.07 51.6706C369.24 53.3779 371.888 55.3564 374.058 59.2656C375.143 61.2282 376.101 63.6695 376.819 66.7969C377.521 69.9561 378.015 73.8015 378.127 78.5405C378.159 79.9606 377.999 82.1944 377.377 84.7793C376.771 87.3801 375.702 90.3639 373.931 93.3157C373.197 94.6241 371.824 96.2038 370.053 97.6877C368.282 99.1875 366.112 100.576 363.751 101.501C360.783 102.618 357.512 103.192 354.624 103.559C351.752 103.911 349.247 104.038 347.859 104.214C347.332 104.246 344.189 104.469 339.753 104.836C337.551 105.027 335.014 105.235 332.317 105.49C329.637 105.745 326.813 106.033 324.004 106.336C321.196 106.623 318.404 106.942 315.787 107.245C313.17 107.564 310.761 107.852 308.671 108.123C304.538 108.665 301.81 109.032 301.81 109.032C301.235 109.112 300.629 108.745 300.517 107.995C300.07 105.65 299.879 103.272 299.847 100.863C299.64 97.8632 299.241 94.9113 298.778 91.9435C298.331 88.9917 297.821 86.0398 297.422 83.072C297.326 82.3221 297.964 81.6519 298.666 81.5402C301.746 81.4445 307.984 80.6467 309.133 80.5031C310.601 80.4871 312.707 80.3435 315.133 80.1042C317.558 79.8648 320.287 79.5617 322.999 79.1947C325.728 78.8596 328.424 78.4447 330.786 78.0139C333.131 77.5991 335.142 77.1683 336.466 76.7055C338.301 75.9716 339.53 74.6632 339.514 72.4134C339.482 70.1636 336.53 69.7328 333.083 69.9242C329.637 70.1317 325.728 70.9773 323.749 71.2486C320.606 71.7113 317.526 71.9506 314.526 71.7432C311.511 71.5358 308.559 70.8656 305.735 69.4934C303.565 68.3925 301.586 66.8447 299.831 65.0896C298.076 63.3185 296.56 61.292 295.379 59.2018C294.262 57.1116 293.401 54.9096 292.794 52.6279C292.188 50.3462 291.837 47.9688 291.709 45.5754C291.598 43.182 291.693 40.7407 292.029 38.3314C292.348 35.922 292.906 33.5286 293.672 31.199C294.486 28.5344 295.698 26.0133 297.326 23.7476C298.969 21.4818 301.028 19.4873 303.565 17.9236C305.575 16.695 307.745 15.5143 310.059 14.5729C312.341 13.6155 314.75 12.9134 317.207 12.6901C317.207 12.6901 320.829 12.339 326.318 11.8444C329.03 11.6051 332.222 11.3178 335.652 11.0785C339.067 10.8232 342.721 10.5679 346.375 10.3286C350.029 10.1211 353.682 9.91372 357.113 9.7382C360.528 9.57864 363.735 9.41908 366.463 9.3393C371.968 9.13187 375.622 9.03614 375.622 9.03614ZM501.914 15.977C501.371 19.966 501.02 24.0188 500.653 28.0397C500.254 32.0606 499.839 36.0816 499.153 40.0706C498.515 43.7404 497.685 47.5539 497.159 51.4153C497.191 52.3248 496.505 52.8354 495.882 52.9151C493.441 52.8832 490.042 52.3407 486.979 51.9418C483.915 51.5429 481.219 51.2557 480.15 51.7344C479.671 52.1493 478.538 52.7556 478.012 54.5107C477.708 55.7553 477.182 59.4252 476.576 64.2279C476.288 66.6373 475.953 69.3498 475.634 72.19C475.315 75.0302 474.98 77.998 474.661 80.9339C474.326 83.8857 474.023 86.8216 473.719 89.5661C473.416 92.3265 473.161 94.8954 472.922 97.1452C472.443 101.613 472.14 104.756 472.076 105.315C471.98 106.208 471.358 106.751 470.656 106.671C470.656 106.671 468.215 106.432 464.561 106.065C462.742 105.889 460.604 105.682 458.322 105.458C456.024 105.267 453.599 105.075 451.158 104.868C448.716 104.692 446.275 104.517 443.977 104.357C441.696 104.198 439.558 104.07 437.707 103.958C434.053 103.751 431.612 103.607 431.612 103.607C431.069 103.575 430.527 102.937 430.559 102.044C430.606 100.48 430.798 97.209 431.101 93.1083C431.229 91.0819 431.388 88.8321 431.564 86.4866C431.723 84.141 431.899 81.6998 432.09 79.2904C432.25 76.8811 432.425 74.4717 432.569 72.2059C432.728 69.9562 432.888 67.8021 433 65.9033C433.239 62.1218 433.383 59.2816 433.319 58.3083C433.175 55.1809 434.069 52.0695 432.074 49.8675C430.335 47.9847 428.229 47.2827 425.979 47.0433C423.267 46.804 414.618 46.7083 414.618 46.7083C413.996 46.6763 413.422 45.9105 413.438 45.1765V45.0169C413.438 45.0169 413.47 37.5336 413.198 34.837C413.135 33.4169 413.103 31.199 413.103 28.6461C413.103 26.0931 413.15 23.221 413.198 20.4925C413.294 15.0516 413.454 10.2328 413.454 9.86585C413.486 8.97231 414.108 8.98827 414.762 9.00423C414.762 9.00423 416.118 9.03614 418.496 9.08401C420.873 9.17974 424.272 9.29143 428.357 9.43504C430.399 9.53077 432.617 9.62651 434.946 9.72225C437.292 9.84989 439.749 9.97754 442.302 10.1371C444.855 10.2807 447.488 10.4403 450.168 10.6158C452.833 10.7913 455.546 11.0147 458.258 11.2221C460.987 11.4295 463.699 11.6529 466.364 11.8923C469.028 12.1316 471.661 12.3869 474.198 12.6262C476.751 12.8815 479.192 13.1368 481.522 13.3762C483.852 13.6315 486.069 13.8708 488.08 14.1101C492.149 14.5729 495.515 15.0037 497.893 15.3068C500.238 15.61 501.611 15.8015 501.611 15.8015C501.611 15.8015 501.93 15.8334 501.914 15.977ZM589.975 62.6483C589.496 64.4832 588.906 66.733 588.268 69.1903C587.629 71.6475 586.927 74.3121 586.241 76.9927C585.539 79.6574 584.837 82.3221 584.199 84.7793C583.561 87.2684 582.97 89.5501 582.476 91.4329C581.486 95.2145 580.178 98.1983 578.582 100.783C577.003 103.384 575.12 105.618 572.982 107.852C571.227 109.862 569.216 111.553 567.062 112.958C564.94 114.362 562.658 115.479 560.361 116.276C557.664 117.266 555.143 118.143 552.271 118.542C549.431 118.957 546.239 118.909 542.187 118.032C541.165 117.824 536.762 116.915 532.533 116.053C528.289 115.255 524.236 114.473 523.885 114.41C520.199 113.436 516.769 111.633 513.849 109.431C510.897 107.245 508.44 104.692 506.748 102.219C505.28 100.113 503.765 96.5069 502.727 92.7413C501.674 88.9757 501.068 85.0346 501.483 82.2104C501.69 80.8062 502.041 78.3171 502.488 75.2855C502.935 72.2379 503.461 68.6158 504.004 64.8821C504.546 61.1644 505.105 57.335 505.6 53.8885C506.094 50.4579 506.541 47.4103 506.86 45.2084C507.498 40.8524 508.823 37.1825 510.53 34.2147C512.253 31.2309 514.375 28.9333 516.609 27.3217C520.391 24.5773 523.614 23.0136 526.981 22.1839C530.347 21.3701 533.874 21.2903 538.277 21.5456C538.421 21.5776 543.623 22.5509 549.798 23.7157C552.877 24.3379 556.196 25.0241 559.26 25.6304C562.307 26.3005 565.099 26.8749 567.126 27.3217C571.163 28.2153 574.721 29.5715 577.848 31.4862C580.96 33.4488 583.608 35.9699 585.826 39.2249C587.933 42.432 589.48 46.421 590.23 50.5058C590.964 54.6224 590.948 58.8667 589.975 62.6483ZM537.32 78.3011C535.868 85.7845 537.655 87.9545 540.687 88.5608C544.548 89.3427 546.064 84.9388 546.543 82.5773C547.308 78.9075 548.282 74.8068 549.159 70.9295C550.053 67.0681 550.835 63.4461 551.234 60.7974C552.047 56.0744 552.159 52.5801 548.106 51.7344C542.969 50.7292 541.532 55.7872 541.07 58.1328C540.846 59.6326 540.272 62.744 539.57 66.4618C538.884 70.1636 538.054 74.4717 537.32 78.3011ZM642.023 144.662C639.135 144.79 636.231 144.327 633.806 143.753C631.381 143.178 629.434 142.492 628.445 142.141C628.445 142.141 622.828 140.226 617.196 138.344C611.563 136.493 605.915 134.69 605.915 134.69C602.341 133.605 598.703 131.53 595.639 128.802C592.56 126.073 590.055 122.723 588.874 119.037C587.486 115.255 587.374 110.692 587.789 106.4C588.188 102.107 589.129 98.1025 589.863 95.4379L593.166 83.2954C593.166 83.2954 593.932 80.4392 595.097 76.179C595.671 74.0409 596.357 71.5358 597.091 68.8711C597.809 66.2065 598.575 63.3344 599.357 60.4942C600.139 57.6381 600.921 54.798 601.655 52.1333C602.389 49.4367 603.043 46.9476 603.633 44.8095C604.798 40.5492 605.58 37.7091 605.58 37.7091C605.739 37.1347 606.138 36.7836 606.601 36.9113C606.601 36.9113 608.819 37.5176 612.138 38.443C615.441 39.3845 619.86 40.6609 624.28 41.9534C628.668 43.2777 633.056 44.634 636.343 45.6711C639.63 46.7083 641.832 47.4103 641.832 47.4103C642.279 47.5699 642.454 48.0645 642.263 48.6549C641.417 51.2717 640.571 53.9044 639.726 56.5531C638.88 59.1858 638.066 61.8345 637.284 64.4832C636.854 65.7916 636.136 67.9138 635.306 70.4189C634.46 72.908 633.519 75.7801 632.561 78.6043C631.62 81.4604 630.711 84.2687 629.961 86.5823C629.211 88.9278 628.652 90.7947 628.413 91.784C627.44 95.7251 626.259 100.352 627.567 102.522C628.876 104.692 631.445 104.453 632.242 103.926C635.306 101.804 636.231 97.225 637.667 93.4274C638.018 92.486 638.704 90.5553 639.566 88.0822C640.428 85.6249 641.465 82.6252 642.518 79.5457C643.587 76.4822 644.672 73.3548 645.613 70.6263C646.587 67.8819 647.385 65.5363 647.943 64.0843C649.427 60.1592 650.815 56.0425 652.028 52.0216C652.06 51.4312 652.666 51.16 653.113 51.3036C653.113 51.3036 655.394 52.0854 658.841 53.2821C662.271 54.4788 666.835 56.1063 671.398 57.7817C675.946 59.4731 680.493 61.1804 683.876 62.4887C687.291 63.7971 689.54 64.6907 689.54 64.6907C689.971 64.8662 690.115 65.4087 689.955 65.8076C689.955 65.8076 688.631 69.1264 686.668 74.0888C685.679 76.5779 684.53 79.4659 683.302 82.5773C682.073 85.6728 680.765 88.9917 679.456 92.2945C678.132 95.6134 676.823 98.9322 675.595 102.028C674.366 105.139 673.217 108.027 672.228 110.516C670.265 115.479 668.957 118.781 668.957 118.781C668.207 120.664 667.409 122.659 666.548 124.653C665.67 126.648 664.713 128.642 663.644 130.525C661.506 134.307 658.921 137.657 655.586 139.732C653.256 141.152 650.975 142.364 648.709 143.226C646.459 144.072 644.241 144.598 642.023 144.662ZM740.807 160.267C740.679 162.341 740.328 164.91 739.85 167.671C739.355 170.431 738.717 173.383 738.094 176.143C736.802 181.648 735.462 186.467 735.063 187.775C734.76 188.637 734.01 189.084 733.547 188.812C733.547 188.812 731.808 187.887 729.239 186.499C726.638 185.111 723.176 183.292 719.713 181.473C716.235 179.686 712.724 177.914 710.108 176.59C707.491 175.298 705.72 174.436 705.72 174.436C705.353 174.245 705.241 173.878 705.305 173.383C705.672 171.819 706.39 166.889 706.9 161.958C707.379 157.028 707.65 152.098 707.267 150.582C706.98 149.481 704.746 149.098 704.124 150.438C702.592 153.199 701.061 156.119 699.609 159.086C698.172 162.07 696.784 165.086 695.556 168.07C695.237 168.756 694.598 169.107 694.215 168.915C694.215 168.915 692.333 168.054 689.54 166.777C686.748 165.485 682.998 163.809 679.249 162.15C675.483 160.522 671.717 158.895 668.877 157.698C666.037 156.517 664.154 155.72 664.154 155.72C663.628 155.512 663.596 154.858 663.867 154.156L668.574 142.668L668.654 142.524C668.893 141.95 669.707 139.971 670.808 137.306C671.909 134.642 673.297 131.275 674.701 127.924C676.073 124.558 677.462 121.223 678.531 118.574C679.616 115.941 680.382 114.011 680.573 113.484L680.637 113.325C680.637 113.325 682.376 109.08 684.115 104.82C685.854 100.576 687.61 96.3155 687.61 96.3155C688.551 94.1135 689.508 91.8797 690.466 89.6299C691.455 87.3801 692.428 85.1303 693.386 82.8486C694.359 80.5669 695.3 78.3011 696.226 76.0194C697.151 73.7696 698.029 71.472 698.875 69.2541C699.034 68.8552 699.21 68.4403 699.64 68.6158C699.64 68.6158 703.534 70.2274 709.374 72.6846C712.278 73.9292 715.644 75.3971 719.266 76.9927C722.888 78.6043 726.734 80.3435 730.563 82.0987C734.377 83.8698 738.206 85.6728 741.764 87.3642C745.338 89.0874 748.641 90.7149 751.466 92.1031C757.13 94.9432 760.896 96.8739 760.896 96.8739C764.119 98.5333 766.767 102.107 768.315 105.953C770.246 110.373 770.262 115.303 770.086 117.601C769.927 120.84 769.177 123.76 767.996 126.728C766.799 129.695 765.188 132.743 763.289 136.221C761.949 138.631 760.082 141.503 758.183 144.056C756.268 146.609 754.306 148.875 752.79 150.103C749.79 152.544 743.583 155.672 743.312 155.847C743.184 155.783 743.121 155.927 743.121 155.927C741.174 156.39 740.935 158.145 740.807 160.267ZM724.021 122.978C726.111 119.324 727.404 116.276 728.553 113.197C730.244 108.203 728.888 106.384 727.069 105.522C725.952 104.996 724.58 105.363 724.069 106.112C723.558 107.197 722.809 108.809 722.027 110.452C721.341 111.92 720.303 114.043 719.266 116.213C718.245 118.367 717.208 120.569 716.522 122.212C716.091 123.52 715.15 125.547 717.112 126.648C718.963 127.669 721.724 127.031 724.021 122.978Z"/>
</mask>
<path d="M115.954 127.653L119.656 136.652C120.773 139.333 121.028 141.966 120.948 144.231C120.884 146.481 120.486 148.364 120.182 149.529C119.145 154.012 116.321 157.028 115.38 158.4C112.827 162.118 107.912 164.479 106.62 165.038C106.62 165.038 103.492 166.458 98.8014 168.644C96.4718 169.729 93.7433 171.005 90.8553 172.41C87.9513 173.798 84.8558 175.314 81.7923 176.845C78.6968 178.377 75.6333 179.925 72.7771 181.409C69.921 182.893 67.2564 184.297 64.9747 185.509C60.4272 187.951 57.4115 189.594 57.4115 189.594C56.9169 189.85 56.4382 189.435 56.1031 188.94C55.5447 187.504 54.332 184.951 52.8002 181.824C51.2685 178.696 49.3856 174.994 47.439 171.277C45.4924 167.559 43.4819 163.825 41.6949 160.586C39.9237 157.363 38.376 154.651 37.3548 153.007C36.3336 151.284 34.7859 148.667 33.0148 145.604C31.2596 142.572 29.2651 139.093 27.3185 135.743C25.3878 132.376 23.521 129.105 21.9892 126.456C20.4893 123.808 19.3245 121.765 18.8299 120.84C17.9045 118.989 16.3248 115.957 14.9366 113.341C13.5485 110.74 12.3358 108.538 12.1284 108.33C11.8412 107.804 12.0486 107.166 12.623 106.846C12.623 106.846 16.0536 104.996 21.2074 102.235C23.7922 100.863 26.8079 99.2673 30.0629 97.5919C33.318 95.9006 36.8123 94.1454 40.3067 92.4062C43.817 90.667 47.3114 88.9438 50.6143 87.3482C53.9331 85.7845 57.0126 84.3166 59.6773 83.072C64.9906 80.6467 68.5648 79.0192 68.5648 79.0192C70.5752 78.1256 73.2558 77.1523 75.8407 76.546C78.4415 75.9237 80.9466 75.6205 82.622 75.9396C84.8877 76.3545 87.7279 76.8172 90.6479 78.6841C92.1158 79.6255 93.5838 80.9179 95.0198 82.7369C96.4399 84.5718 97.8121 86.9014 99.0726 89.9331C100.333 92.9966 100.812 95.5496 100.844 97.7994C100.892 100.033 100.509 101.996 100.03 103.799C99.0726 107.788 96.8867 110.357 95.0677 112.607C93.7752 114.138 93.0253 115.798 95.7378 116.069C98.6259 116.26 101.227 115.144 106.141 117.138C108.279 118.048 110.13 119.196 111.758 120.872C113.369 122.563 114.757 124.733 115.954 127.653ZM85.2069 156.693C86.0047 153.007 83.5474 149.848 81.9678 146.816C80.4201 143.577 78.6809 139.253 74.4525 138.615C73.5909 138.519 72.5378 138.711 71.8038 139.237C70.6071 139.843 70.655 140.625 71.389 141.774C72.5218 143.96 74.3408 148.428 76.1598 152.417C77.9628 156.422 79.7499 159.916 80.8349 160.155C83.1964 160.475 84.8718 158.672 85.2069 156.693ZM66.6022 122.675C70.0806 119.005 67.3681 113.995 65.6927 110.468C64.0811 107.118 62.6929 103.799 58.8316 102.171C57.5232 101.629 55.9276 101.9 54.9862 103.177C54.2682 103.863 54.0927 104.932 54.6352 105.682C56.2786 108.857 57.4913 111.569 58.672 114.282C59.8528 117.01 61.0016 119.803 62.4696 123.137C62.9961 124.558 65.4852 123.84 66.6022 122.675ZM182.666 37.8208C182.842 37.9005 182.985 37.8686 183.193 37.9803C184.182 40.9641 184.629 42.6873 185.107 44.8733C185.618 47.0593 186.176 49.6442 187.405 54.3352C188.043 56.6488 190.165 61.9622 190.931 64.2279C191.139 64.946 190.74 65.8395 189.958 65.8874C187.485 66.5097 184.533 67.2117 181.438 67.9616C178.374 68.6956 175.135 69.4615 172.071 70.2114C169.008 70.9933 166.104 71.7432 163.647 72.3974C161.205 73.0995 159.211 73.6739 157.982 74.1366C154.376 75.3812 151.057 76.6577 148.823 78.0299C146.59 79.434 145.409 80.9339 145.999 82.705C147.196 86.1036 149.861 85.5132 151.392 85.2899C154.121 84.8431 156.02 84.2687 158.03 83.5507C160.025 82.8645 162.163 82.0348 165.386 81.1732C168.641 80.3914 171.912 79.7212 175.183 79.5936C178.406 79.4659 181.613 79.8808 184.708 81.253C187.198 82.3859 190.261 83.6464 193.325 86.9174C194.856 88.5608 196.372 90.6989 197.824 93.5551C199.276 96.4431 200.68 100.065 201.957 104.644C202.324 106.017 202.691 108.203 202.723 110.867C202.755 113.532 202.452 116.691 201.462 119.994C201.047 121.43 200.106 123.297 198.766 125.164C197.409 127.047 195.638 128.93 193.58 130.382C190.963 132.201 187.932 133.557 185.203 134.594C182.507 135.647 180.113 136.365 178.805 136.86C178.294 137.019 175.31 138.024 171.098 139.445C168.992 140.163 166.582 140.992 164.045 141.886C161.508 142.779 158.828 143.753 156.163 144.726C153.514 145.683 150.882 146.673 148.425 147.598C145.967 148.539 143.686 149.401 141.739 150.183C137.862 151.715 135.277 152.736 135.277 152.736C134.782 152.943 134.08 152.752 133.809 152.05C132.772 149.864 132.022 147.582 131.415 145.268C130.474 142.412 129.373 139.636 128.224 136.876C127.075 134.115 125.863 131.371 124.746 128.61C124.475 127.908 124.905 127.079 125.576 126.807C128.543 125.962 134.399 123.696 135.468 123.281C136.888 122.898 138.899 122.244 141.196 121.43C143.494 120.616 146.079 119.643 148.632 118.638C151.185 117.649 153.706 116.58 155.892 115.606C158.062 114.633 159.913 113.707 161.094 112.958C162.705 111.793 163.551 110.229 162.992 108.059C162.418 105.873 159.434 106.176 156.147 107.197C152.86 108.235 149.27 110.006 147.419 110.74C144.483 111.952 141.548 112.942 138.596 113.452C135.612 113.995 132.612 114.043 129.517 113.404C127.139 112.862 124.858 111.857 122.719 110.564C120.597 109.272 118.619 107.692 116.975 105.937C115.38 104.182 114.023 102.251 112.875 100.177C111.742 98.1185 110.816 95.9006 110.114 93.6189C109.412 91.3053 108.917 88.9278 108.662 86.5025C108.391 84.0932 108.343 81.6359 108.519 79.2106C108.678 76.4024 109.237 73.642 110.258 71.0571C111.311 68.4722 112.843 66.0469 114.901 63.9088C116.56 62.2334 118.379 60.5581 120.39 59.0742C122.384 57.6222 124.538 56.3616 126.852 55.5319C126.852 55.5319 130.314 54.3033 135.5 52.4843C138.085 51.6068 141.117 50.5696 144.372 49.4846C147.627 48.4155 151.121 47.2827 154.6 46.1658C158.078 45.0648 161.588 43.9798 164.859 42.9586C168.146 42.0012 171.226 41.0758 173.842 40.3259C179.14 38.81 182.666 37.8208 182.666 37.8208ZM286.955 71.2486C287.082 72.4134 287.306 74.344 287.593 76.6896C287.864 79.0351 288.199 81.8115 288.598 84.6676C288.997 87.5237 289.412 90.4596 289.859 93.1083C290.289 95.773 290.768 98.1823 291.215 99.9853L292.555 108.985C292.651 109.734 292.172 110.405 291.486 110.5C291.486 110.5 289.444 110.835 286.412 111.282C283.364 111.777 279.312 112.447 275.275 113.133C271.222 113.851 267.201 114.585 264.169 115.159C261.154 115.75 259.127 116.133 259.127 116.133C254.755 117.01 251.006 117.537 247.751 117.776C244.512 118.048 241.783 118.032 239.438 117.856C234.762 117.521 231.747 116.516 229.577 115.718C227.359 114.968 225.029 113.995 222.875 112.814C220.689 111.649 218.695 110.261 217.099 108.665C213.637 105.299 211.259 102.139 209.568 99.028C207.861 95.9166 206.823 92.853 206.01 89.7575C206.01 89.7575 204.845 85.4016 203.712 81.0775C202.547 76.7534 201.398 72.4134 201.398 72.4134C201.367 72.2698 203.042 78.6362 201.319 72.1102C200.473 68.935 199.915 65.7597 199.595 62.7121C199.308 59.6486 199.26 56.7286 199.436 54.064C199.723 51.4312 200.505 48.9102 201.622 46.4849C202.723 44.0596 204.159 41.73 205.723 39.5121C206.935 37.6931 208.658 36.0496 210.717 34.5498C212.775 33.0499 215.216 31.7096 217.833 30.5129C220.466 29.3322 223.29 28.295 226.21 27.4015C229.114 26.5239 232.066 25.7899 234.97 25.1836C234.97 25.1836 237.539 24.673 241.416 23.8912C243.347 23.5242 245.613 23.0615 248.038 22.6147C250.463 22.1679 253.048 21.6733 255.649 21.2265C258.25 20.7638 260.85 20.317 263.292 19.8862C265.717 19.4714 267.999 19.1203 269.929 18.7853C273.839 18.1949 276.455 17.78 276.455 17.78C277.253 17.6683 279.168 18.7214 279.28 19.4873L280.413 27.1941C280.524 27.9121 280.476 28.678 280.604 29.5715C280.604 30.481 280.875 32.5234 281.242 35.0923C281.625 37.6452 282.12 40.7407 282.599 43.7085C283.588 49.6442 284.561 55.1171 284.561 55.1171C284.673 55.883 284.146 56.5691 283.396 56.6808C282.375 56.7924 279.838 57.2073 276.551 57.7817C273.264 58.3721 269.227 59.138 265.238 59.9198C261.265 60.7176 257.324 61.5314 254.197 62.1856C251.085 62.8557 248.772 63.3344 248.07 63.4461C242.31 64.5949 240.523 68.6478 241.033 70.9933C241.608 72.9878 243.235 74.9663 245.054 75.6684C248.788 76.8491 250.096 76.5938 253.942 76.163C255.41 76.0194 258.09 75.5567 261.281 74.9663C264.457 74.3919 268.158 73.6899 271.685 73.0037C275.227 72.3495 278.594 71.6954 281.115 71.2167C283.652 70.7539 285.311 70.4348 285.471 70.4029C286.061 70.3231 286.699 70.6901 286.955 71.2486ZM375.622 9.03614C375.766 9.17974 375.941 9.17974 376.085 9.32335C376.34 12.4667 376.356 14.2697 376.308 16.4876C376.26 18.7214 376.164 21.3701 376.212 26.2367C376.276 28.6301 377.026 34.2945 377.25 36.6719C377.25 37.4219 376.675 38.2037 375.909 38.0601C373.324 38.0441 370.309 38.0122 367.133 37.9803C363.974 37.9484 360.639 37.9165 357.496 37.9005C354.337 37.9165 351.337 37.9484 348.8 37.9803C346.247 38.0601 344.173 38.1399 342.88 38.2835C339.067 38.6345 335.557 39.0494 333.035 39.8472C330.53 40.6769 329.015 41.8576 329.19 43.6926C329.493 47.2986 332.254 47.3465 333.785 47.522C336.546 47.7454 338.524 47.6337 340.63 47.4422C342.737 47.2508 345.018 46.9955 348.353 46.8997C351.688 46.9316 355.039 47.0912 358.23 47.7454C361.405 48.4155 364.405 49.6122 367.07 51.6706C369.24 53.3779 371.888 55.3564 374.058 59.2656C375.143 61.2282 376.101 63.6695 376.819 66.7969C377.521 69.9561 378.015 73.8015 378.127 78.5405C378.159 79.9606 377.999 82.1944 377.377 84.7793C376.771 87.3801 375.702 90.3639 373.931 93.3157C373.197 94.6241 371.824 96.2038 370.053 97.6877C368.282 99.1875 366.112 100.576 363.751 101.501C360.783 102.618 357.512 103.192 354.624 103.559C351.752 103.911 349.247 104.038 347.859 104.214C347.332 104.246 344.189 104.469 339.753 104.836C337.551 105.027 335.014 105.235 332.317 105.49C329.637 105.745 326.813 106.033 324.004 106.336C321.196 106.623 318.404 106.942 315.787 107.245C313.17 107.564 310.761 107.852 308.671 108.123C304.538 108.665 301.81 109.032 301.81 109.032C301.235 109.112 300.629 108.745 300.517 107.995C300.07 105.65 299.879 103.272 299.847 100.863C299.64 97.8632 299.241 94.9113 298.778 91.9435C298.331 88.9917 297.821 86.0398 297.422 83.072C297.326 82.3221 297.964 81.6519 298.666 81.5402C301.746 81.4445 307.984 80.6467 309.133 80.5031C310.601 80.4871 312.707 80.3435 315.133 80.1042C317.558 79.8648 320.287 79.5617 322.999 79.1947C325.728 78.8596 328.424 78.4447 330.786 78.0139C333.131 77.5991 335.142 77.1683 336.466 76.7055C338.301 75.9716 339.53 74.6632 339.514 72.4134C339.482 70.1636 336.53 69.7328 333.083 69.9242C329.637 70.1317 325.728 70.9773 323.749 71.2486C320.606 71.7113 317.526 71.9506 314.526 71.7432C311.511 71.5358 308.559 70.8656 305.735 69.4934C303.565 68.3925 301.586 66.8447 299.831 65.0896C298.076 63.3185 296.56 61.292 295.379 59.2018C294.262 57.1116 293.401 54.9096 292.794 52.6279C292.188 50.3462 291.837 47.9688 291.709 45.5754C291.598 43.182 291.693 40.7407 292.029 38.3314C292.348 35.922 292.906 33.5286 293.672 31.199C294.486 28.5344 295.698 26.0133 297.326 23.7476C298.969 21.4818 301.028 19.4873 303.565 17.9236C305.575 16.695 307.745 15.5143 310.059 14.5729C312.341 13.6155 314.75 12.9134 317.207 12.6901C317.207 12.6901 320.829 12.339 326.318 11.8444C329.03 11.6051 332.222 11.3178 335.652 11.0785C339.067 10.8232 342.721 10.5679 346.375 10.3286C350.029 10.1211 353.682 9.91372 357.113 9.7382C360.528 9.57864 363.735 9.41908 366.463 9.3393C371.968 9.13187 375.622 9.03614 375.622 9.03614ZM501.914 15.977C501.371 19.966 501.02 24.0188 500.653 28.0397C500.254 32.0606 499.839 36.0816 499.153 40.0706C498.515 43.7404 497.685 47.5539 497.159 51.4153C497.191 52.3248 496.505 52.8354 495.882 52.9151C493.441 52.8832 490.042 52.3407 486.979 51.9418C483.915 51.5429 481.219 51.2557 480.15 51.7344C479.671 52.1493 478.538 52.7556 478.012 54.5107C477.708 55.7553 477.182 59.4252 476.576 64.2279C476.288 66.6373 475.953 69.3498 475.634 72.19C475.315 75.0302 474.98 77.998 474.661 80.9339C474.326 83.8857 474.023 86.8216 473.719 89.5661C473.416 92.3265 473.161 94.8954 472.922 97.1452C472.443 101.613 472.14 104.756 472.076 105.315C471.98 106.208 471.358 106.751 470.656 106.671C470.656 106.671 468.215 106.432 464.561 106.065C462.742 105.889 460.604 105.682 458.322 105.458C456.024 105.267 453.599 105.075 451.158 104.868C448.716 104.692 446.275 104.517 443.977 104.357C441.696 104.198 439.558 104.07 437.707 103.958C434.053 103.751 431.612 103.607 431.612 103.607C431.069 103.575 430.527 102.937 430.559 102.044C430.606 100.48 430.798 97.209 431.101 93.1083C431.229 91.0819 431.388 88.8321 431.564 86.4866C431.723 84.141 431.899 81.6998 432.09 79.2904C432.25 76.8811 432.425 74.4717 432.569 72.2059C432.728 69.9562 432.888 67.8021 433 65.9033C433.239 62.1218 433.383 59.2816 433.319 58.3083C433.175 55.1809 434.069 52.0695 432.074 49.8675C430.335 47.9847 428.229 47.2827 425.979 47.0433C423.267 46.804 414.618 46.7083 414.618 46.7083C413.996 46.6763 413.422 45.9105 413.438 45.1765V45.0169C413.438 45.0169 413.47 37.5336 413.198 34.837C413.135 33.4169 413.103 31.199 413.103 28.6461C413.103 26.0931 413.15 23.221 413.198 20.4925C413.294 15.0516 413.454 10.2328 413.454 9.86585C413.486 8.97231 414.108 8.98827 414.762 9.00423C414.762 9.00423 416.118 9.03614 418.496 9.08401C420.873 9.17974 424.272 9.29143 428.357 9.43504C430.399 9.53077 432.617 9.62651 434.946 9.72225C437.292 9.84989 439.749 9.97754 442.302 10.1371C444.855 10.2807 447.488 10.4403 450.168 10.6158C452.833 10.7913 455.546 11.0147 458.258 11.2221C460.987 11.4295 463.699 11.6529 466.364 11.8923C469.028 12.1316 471.661 12.3869 474.198 12.6262C476.751 12.8815 479.192 13.1368 481.522 13.3762C483.852 13.6315 486.069 13.8708 488.08 14.1101C492.149 14.5729 495.515 15.0037 497.893 15.3068C500.238 15.61 501.611 15.8015 501.611 15.8015C501.611 15.8015 501.93 15.8334 501.914 15.977ZM589.975 62.6483C589.496 64.4832 588.906 66.733 588.268 69.1903C587.629 71.6475 586.927 74.3121 586.241 76.9927C585.539 79.6574 584.837 82.3221 584.199 84.7793C583.561 87.2684 582.97 89.5501 582.476 91.4329C581.486 95.2145 580.178 98.1983 578.582 100.783C577.003 103.384 575.12 105.618 572.982 107.852C571.227 109.862 569.216 111.553 567.062 112.958C564.94 114.362 562.658 115.479 560.361 116.276C557.664 117.266 555.143 118.143 552.271 118.542C549.431 118.957 546.239 118.909 542.187 118.032C541.165 117.824 536.762 116.915 532.533 116.053C528.289 115.255 524.236 114.473 523.885 114.41C520.199 113.436 516.769 111.633 513.849 109.431C510.897 107.245 508.44 104.692 506.748 102.219C505.28 100.113 503.765 96.5069 502.727 92.7413C501.674 88.9757 501.068 85.0346 501.483 82.2104C501.69 80.8062 502.041 78.3171 502.488 75.2855C502.935 72.2379 503.461 68.6158 504.004 64.8821C504.546 61.1644 505.105 57.335 505.6 53.8885C506.094 50.4579 506.541 47.4103 506.86 45.2084C507.498 40.8524 508.823 37.1825 510.53 34.2147C512.253 31.2309 514.375 28.9333 516.609 27.3217C520.391 24.5773 523.614 23.0136 526.981 22.1839C530.347 21.3701 533.874 21.2903 538.277 21.5456C538.421 21.5776 543.623 22.5509 549.798 23.7157C552.877 24.3379 556.196 25.0241 559.26 25.6304C562.307 26.3005 565.099 26.8749 567.126 27.3217C571.163 28.2153 574.721 29.5715 577.848 31.4862C580.96 33.4488 583.608 35.9699 585.826 39.2249C587.933 42.432 589.48 46.421 590.23 50.5058C590.964 54.6224 590.948 58.8667 589.975 62.6483ZM537.32 78.3011C535.868 85.7845 537.655 87.9545 540.687 88.5608C544.548 89.3427 546.064 84.9388 546.543 82.5773C547.308 78.9075 548.282 74.8068 549.159 70.9295C550.053 67.0681 550.835 63.4461 551.234 60.7974C552.047 56.0744 552.159 52.5801 548.106 51.7344C542.969 50.7292 541.532 55.7872 541.07 58.1328C540.846 59.6326 540.272 62.744 539.57 66.4618C538.884 70.1636 538.054 74.4717 537.32 78.3011ZM642.023 144.662C639.135 144.79 636.231 144.327 633.806 143.753C631.381 143.178 629.434 142.492 628.445 142.141C628.445 142.141 622.828 140.226 617.196 138.344C611.563 136.493 605.915 134.69 605.915 134.69C602.341 133.605 598.703 131.53 595.639 128.802C592.56 126.073 590.055 122.723 588.874 119.037C587.486 115.255 587.374 110.692 587.789 106.4C588.188 102.107 589.129 98.1025 589.863 95.4379L593.166 83.2954C593.166 83.2954 593.932 80.4392 595.097 76.179C595.671 74.0409 596.357 71.5358 597.091 68.8711C597.809 66.2065 598.575 63.3344 599.357 60.4942C600.139 57.6381 600.921 54.798 601.655 52.1333C602.389 49.4367 603.043 46.9476 603.633 44.8095C604.798 40.5492 605.58 37.7091 605.58 37.7091C605.739 37.1347 606.138 36.7836 606.601 36.9113C606.601 36.9113 608.819 37.5176 612.138 38.443C615.441 39.3845 619.86 40.6609 624.28 41.9534C628.668 43.2777 633.056 44.634 636.343 45.6711C639.63 46.7083 641.832 47.4103 641.832 47.4103C642.279 47.5699 642.454 48.0645 642.263 48.6549C641.417 51.2717 640.571 53.9044 639.726 56.5531C638.88 59.1858 638.066 61.8345 637.284 64.4832C636.854 65.7916 636.136 67.9138 635.306 70.4189C634.46 72.908 633.519 75.7801 632.561 78.6043C631.62 81.4604 630.711 84.2687 629.961 86.5823C629.211 88.9278 628.652 90.7947 628.413 91.784C627.44 95.7251 626.259 100.352 627.567 102.522C628.876 104.692 631.445 104.453 632.242 103.926C635.306 101.804 636.231 97.225 637.667 93.4274C638.018 92.486 638.704 90.5553 639.566 88.0822C640.428 85.6249 641.465 82.6252 642.518 79.5457C643.587 76.4822 644.672 73.3548 645.613 70.6263C646.587 67.8819 647.385 65.5363 647.943 64.0843C649.427 60.1592 650.815 56.0425 652.028 52.0216C652.06 51.4312 652.666 51.16 653.113 51.3036C653.113 51.3036 655.394 52.0854 658.841 53.2821C662.271 54.4788 666.835 56.1063 671.398 57.7817C675.946 59.4731 680.493 61.1804 683.876 62.4887C687.291 63.7971 689.54 64.6907 689.54 64.6907C689.971 64.8662 690.115 65.4087 689.955 65.8076C689.955 65.8076 688.631 69.1264 686.668 74.0888C685.679 76.5779 684.53 79.4659 683.302 82.5773C682.073 85.6728 680.765 88.9917 679.456 92.2945C678.132 95.6134 676.823 98.9322 675.595 102.028C674.366 105.139 673.217 108.027 672.228 110.516C670.265 115.479 668.957 118.781 668.957 118.781C668.207 120.664 667.409 122.659 666.548 124.653C665.67 126.648 664.713 128.642 663.644 130.525C661.506 134.307 658.921 137.657 655.586 139.732C653.256 141.152 650.975 142.364 648.709 143.226C646.459 144.072 644.241 144.598 642.023 144.662ZM740.807 160.267C740.679 162.341 740.328 164.91 739.85 167.671C739.355 170.431 738.717 173.383 738.094 176.143C736.802 181.648 735.462 186.467 735.063 187.775C734.76 188.637 734.01 189.084 733.547 188.812C733.547 188.812 731.808 187.887 729.239 186.499C726.638 185.111 723.176 183.292 719.713 181.473C716.235 179.686 712.724 177.914 710.108 176.59C707.491 175.298 705.72 174.436 705.72 174.436C705.353 174.245 705.241 173.878 705.305 173.383C705.672 171.819 706.39 166.889 706.9 161.958C707.379 157.028 707.65 152.098 707.267 150.582C706.98 149.481 704.746 149.098 704.124 150.438C702.592 153.199 701.061 156.119 699.609 159.086C698.172 162.07 696.784 165.086 695.556 168.07C695.237 168.756 694.598 169.107 694.215 168.915C694.215 168.915 692.333 168.054 689.54 166.777C686.748 165.485 682.998 163.809 679.249 162.15C675.483 160.522 671.717 158.895 668.877 157.698C666.037 156.517 664.154 155.72 664.154 155.72C663.628 155.512 663.596 154.858 663.867 154.156L668.574 142.668L668.654 142.524C668.893 141.95 669.707 139.971 670.808 137.306C671.909 134.642 673.297 131.275 674.701 127.924C676.073 124.558 677.462 121.223 678.531 118.574C679.616 115.941 680.382 114.011 680.573 113.484L680.637 113.325C680.637 113.325 682.376 109.08 684.115 104.82C685.854 100.576 687.61 96.3155 687.61 96.3155C688.551 94.1135 689.508 91.8797 690.466 89.6299C691.455 87.3801 692.428 85.1303 693.386 82.8486C694.359 80.5669 695.3 78.3011 696.226 76.0194C697.151 73.7696 698.029 71.472 698.875 69.2541C699.034 68.8552 699.21 68.4403 699.64 68.6158C699.64 68.6158 703.534 70.2274 709.374 72.6846C712.278 73.9292 715.644 75.3971 719.266 76.9927C722.888 78.6043 726.734 80.3435 730.563 82.0987C734.377 83.8698 738.206 85.6728 741.764 87.3642C745.338 89.0874 748.641 90.7149 751.466 92.1031C757.13 94.9432 760.896 96.8739 760.896 96.8739C764.119 98.5333 766.767 102.107 768.315 105.953C770.246 110.373 770.262 115.303 770.086 117.601C769.927 120.84 769.177 123.76 767.996 126.728C766.799 129.695 765.188 132.743 763.289 136.221C761.949 138.631 760.082 141.503 758.183 144.056C756.268 146.609 754.306 148.875 752.79 150.103C749.79 152.544 743.583 155.672 743.312 155.847C743.184 155.783 743.121 155.927 743.121 155.927C741.174 156.39 740.935 158.145 740.807 160.267ZM724.021 122.978C726.111 119.324 727.404 116.276 728.553 113.197C730.244 108.203 728.888 106.384 727.069 105.522C725.952 104.996 724.58 105.363 724.069 106.112C723.558 107.197 722.809 108.809 722.027 110.452C721.341 111.92 720.303 114.043 719.266 116.213C718.245 118.367 717.208 120.569 716.522 122.212C716.091 123.52 715.15 125.547 717.112 126.648C718.963 127.669 721.724 127.031 724.021 122.978Z" fill="#FFD6BA"/>
<path d="M115.954 127.653L119.656 136.652C120.773 139.333 121.028 141.966 120.948 144.231C120.884 146.481 120.486 148.364 120.182 149.529C119.145 154.012 116.321 157.028 115.38 158.4C112.827 162.118 107.912 164.479 106.62 165.038C106.62 165.038 103.492 166.458 98.8014 168.644C96.4718 169.729 93.7433 171.005 90.8553 172.41C87.9513 173.798 84.8558 175.314 81.7923 176.845C78.6968 178.377 75.6333 179.925 72.7771 181.409C69.921 182.893 67.2564 184.297 64.9747 185.509C60.4272 187.951 57.4115 189.594 57.4115 189.594C56.9169 189.85 56.4382 189.435 56.1031 188.94C55.5447 187.504 54.332 184.951 52.8002 181.824C51.2685 178.696 49.3856 174.994 47.439 171.277C45.4924 167.559 43.4819 163.825 41.6949 160.586C39.9237 157.363 38.376 154.651 37.3548 153.007C36.3336 151.284 34.7859 148.667 33.0148 145.604C31.2596 142.572 29.2651 139.093 27.3185 135.743C25.3878 132.376 23.521 129.105 21.9892 126.456C20.4893 123.808 19.3245 121.765 18.8299 120.84C17.9045 118.989 16.3248 115.957 14.9366 113.341C13.5485 110.74 12.3358 108.538 12.1284 108.33C11.8412 107.804 12.0486 107.166 12.623 106.846C12.623 106.846 16.0536 104.996 21.2074 102.235C23.7922 100.863 26.8079 99.2673 30.0629 97.5919C33.318 95.9006 36.8123 94.1454 40.3067 92.4062C43.817 90.667 47.3114 88.9438 50.6143 87.3482C53.9331 85.7845 57.0126 84.3166 59.6773 83.072C64.9906 80.6467 68.5648 79.0192 68.5648 79.0192C70.5752 78.1256 73.2558 77.1523 75.8407 76.546C78.4415 75.9237 80.9466 75.6205 82.622 75.9396C84.8877 76.3545 87.7279 76.8172 90.6479 78.6841C92.1158 79.6255 93.5838 80.9179 95.0198 82.7369C96.4399 84.5718 97.8121 86.9014 99.0726 89.9331C100.333 92.9966 100.812 95.5496 100.844 97.7994C100.892 100.033 100.509 101.996 100.03 103.799C99.0726 107.788 96.8867 110.357 95.0677 112.607C93.7752 114.138 93.0253 115.798 95.7378 116.069C98.6259 116.26 101.227 115.144 106.141 117.138C108.279 118.048 110.13 119.196 111.758 120.872C113.369 122.563 114.757 124.733 115.954 127.653ZM85.2069 156.693C86.0047 153.007 83.5474 149.848 81.9678 146.816C80.4201 143.577 78.6809 139.253 74.4525 138.615C73.5909 138.519 72.5378 138.711 71.8038 139.237C70.6071 139.843 70.655 140.625 71.389 141.774C72.5218 143.96 74.3408 148.428 76.1598 152.417C77.9628 156.422 79.7499 159.916 80.8349 160.155C83.1964 160.475 84.8718 158.672 85.2069 156.693ZM66.6022 122.675C70.0806 119.005 67.3681 113.995 65.6927 110.468C64.0811 107.118 62.6929 103.799 58.8316 102.171C57.5232 101.629 55.9276 101.9 54.9862 103.177C54.2682 103.863 54.0927 104.932 54.6352 105.682C56.2786 108.857 57.4913 111.569 58.672 114.282C59.8528 117.01 61.0016 119.803 62.4696 123.137C62.9961 124.558 65.4852 123.84 66.6022 122.675ZM182.666 37.8208C182.842 37.9005 182.985 37.8686 183.193 37.9803C184.182 40.9641 184.629 42.6873 185.107 44.8733C185.618 47.0593 186.176 49.6442 187.405 54.3352C188.043 56.6488 190.165 61.9622 190.931 64.2279C191.139 64.946 190.74 65.8395 189.958 65.8874C187.485 66.5097 184.533 67.2117 181.438 67.9616C178.374 68.6956 175.135 69.4615 172.071 70.2114C169.008 70.9933 166.104 71.7432 163.647 72.3974C161.205 73.0995 159.211 73.6739 157.982 74.1366C154.376 75.3812 151.057 76.6577 148.823 78.0299C146.59 79.434 145.409 80.9339 145.999 82.705C147.196 86.1036 149.861 85.5132 151.392 85.2899C154.121 84.8431 156.02 84.2687 158.03 83.5507C160.025 82.8645 162.163 82.0348 165.386 81.1732C168.641 80.3914 171.912 79.7212 175.183 79.5936C178.406 79.4659 181.613 79.8808 184.708 81.253C187.198 82.3859 190.261 83.6464 193.325 86.9174C194.856 88.5608 196.372 90.6989 197.824 93.5551C199.276 96.4431 200.68 100.065 201.957 104.644C202.324 106.017 202.691 108.203 202.723 110.867C202.755 113.532 202.452 116.691 201.462 119.994C201.047 121.43 200.106 123.297 198.766 125.164C197.409 127.047 195.638 128.93 193.58 130.382C190.963 132.201 187.932 133.557 185.203 134.594C182.507 135.647 180.113 136.365 178.805 136.86C178.294 137.019 175.31 138.024 171.098 139.445C168.992 140.163 166.582 140.992 164.045 141.886C161.508 142.779 158.828 143.753 156.163 144.726C153.514 145.683 150.882 146.673 148.425 147.598C145.967 148.539 143.686 149.401 141.739 150.183C137.862 151.715 135.277 152.736 135.277 152.736C134.782 152.943 134.08 152.752 133.809 152.05C132.772 149.864 132.022 147.582 131.415 145.268C130.474 142.412 129.373 139.636 128.224 136.876C127.075 134.115 125.863 131.371 124.746 128.61C124.475 127.908 124.905 127.079 125.576 126.807C128.543 125.962 134.399 123.696 135.468 123.281C136.888 122.898 138.899 122.244 141.196 121.43C143.494 120.616 146.079 119.643 148.632 118.638C151.185 117.649 153.706 116.58 155.892 115.606C158.062 114.633 159.913 113.707 161.094 112.958C162.705 111.793 163.551 110.229 162.992 108.059C162.418 105.873 159.434 106.176 156.147 107.197C152.86 108.235 149.27 110.006 147.419 110.74C144.483 111.952 141.548 112.942 138.596 113.452C135.612 113.995 132.612 114.043 129.517 113.404C127.139 112.862 124.858 111.857 122.719 110.564C120.597 109.272 118.619 107.692 116.975 105.937C115.38 104.182 114.023 102.251 112.875 100.177C111.742 98.1185 110.816 95.9006 110.114 93.6189C109.412 91.3053 108.917 88.9278 108.662 86.5025C108.391 84.0932 108.343 81.6359 108.519 79.2106C108.678 76.4024 109.237 73.642 110.258 71.0571C111.311 68.4722 112.843 66.0469 114.901 63.9088C116.56 62.2334 118.379 60.5581 120.39 59.0742C122.384 57.6222 124.538 56.3616 126.852 55.5319C126.852 55.5319 130.314 54.3033 135.5 52.4843C138.085 51.6068 141.117 50.5696 144.372 49.4846C147.627 48.4155 151.121 47.2827 154.6 46.1658C158.078 45.0648 161.588 43.9798 164.859 42.9586C168.146 42.0012 171.226 41.0758 173.842 40.3259C179.14 38.81 182.666 37.8208 182.666 37.8208ZM286.955 71.2486C287.082 72.4134 287.306 74.344 287.593 76.6896C287.864 79.0351 288.199 81.8115 288.598 84.6676C288.997 87.5237 289.412 90.4596 289.859 93.1083C290.289 95.773 290.768 98.1823 291.215 99.9853L292.555 108.985C292.651 109.734 292.172 110.405 291.486 110.5C291.486 110.5 289.444 110.835 286.412 111.282C283.364 111.777 279.312 112.447 275.275 113.133C271.222 113.851 267.201 114.585 264.169 115.159C261.154 115.75 259.127 116.133 259.127 116.133C254.755 117.01 251.006 117.537 247.751 117.776C244.512 118.048 241.783 118.032 239.438 117.856C234.762 117.521 231.747 116.516 229.577 115.718C227.359 114.968 225.029 113.995 222.875 112.814C220.689 111.649 218.695 110.261 217.099 108.665C213.637 105.299 211.259 102.139 209.568 99.028C207.861 95.9166 206.823 92.853 206.01 89.7575C206.01 89.7575 204.845 85.4016 203.712 81.0775C202.547 76.7534 201.398 72.4134 201.398 72.4134C201.367 72.2698 203.042 78.6362 201.319 72.1102C200.473 68.935 199.915 65.7597 199.595 62.7121C199.308 59.6486 199.26 56.7286 199.436 54.064C199.723 51.4312 200.505 48.9102 201.622 46.4849C202.723 44.0596 204.159 41.73 205.723 39.5121C206.935 37.6931 208.658 36.0496 210.717 34.5498C212.775 33.0499 215.216 31.7096 217.833 30.5129C220.466 29.3322 223.29 28.295 226.21 27.4015C229.114 26.5239 232.066 25.7899 234.97 25.1836C234.97 25.1836 237.539 24.673 241.416 23.8912C243.347 23.5242 245.613 23.0615 248.038 22.6147C250.463 22.1679 253.048 21.6733 255.649 21.2265C258.25 20.7638 260.85 20.317 263.292 19.8862C265.717 19.4714 267.999 19.1203 269.929 18.7853C273.839 18.1949 276.455 17.78 276.455 17.78C277.253 17.6683 279.168 18.7214 279.28 19.4873L280.413 27.1941C280.524 27.9121 280.476 28.678 280.604 29.5715C280.604 30.481 280.875 32.5234 281.242 35.0923C281.625 37.6452 282.12 40.7407 282.599 43.7085C283.588 49.6442 284.561 55.1171 284.561 55.1171C284.673 55.883 284.146 56.5691 283.396 56.6808C282.375 56.7924 279.838 57.2073 276.551 57.7817C273.264 58.3721 269.227 59.138 265.238 59.9198C261.265 60.7176 257.324 61.5314 254.197 62.1856C251.085 62.8557 248.772 63.3344 248.07 63.4461C242.31 64.5949 240.523 68.6478 241.033 70.9933C241.608 72.9878 243.235 74.9663 245.054 75.6684C248.788 76.8491 250.096 76.5938 253.942 76.163C255.41 76.0194 258.09 75.5567 261.281 74.9663C264.457 74.3919 268.158 73.6899 271.685 73.0037C275.227 72.3495 278.594 71.6954 281.115 71.2167C283.652 70.7539 285.311 70.4348 285.471 70.4029C286.061 70.3231 286.699 70.6901 286.955 71.2486ZM375.622 9.03614C375.766 9.17974 375.941 9.17974 376.085 9.32335C376.34 12.4667 376.356 14.2697 376.308 16.4876C376.26 18.7214 376.164 21.3701 376.212 26.2367C376.276 28.6301 377.026 34.2945 377.25 36.6719C377.25 37.4219 376.675 38.2037 375.909 38.0601C373.324 38.0441 370.309 38.0122 367.133 37.9803C363.974 37.9484 360.639 37.9165 357.496 37.9005C354.337 37.9165 351.337 37.9484 348.8 37.9803C346.247 38.0601 344.173 38.1399 342.88 38.2835C339.067 38.6345 335.557 39.0494 333.035 39.8472C330.53 40.6769 329.015 41.8576 329.19 43.6926C329.493 47.2986 332.254 47.3465 333.785 47.522C336.546 47.7454 338.524 47.6337 340.63 47.4422C342.737 47.2508 345.018 46.9955 348.353 46.8997C351.688 46.9316 355.039 47.0912 358.23 47.7454C361.405 48.4155 364.405 49.6122 367.07 51.6706C369.24 53.3779 371.888 55.3564 374.058 59.2656C375.143 61.2282 376.101 63.6695 376.819 66.7969C377.521 69.9561 378.015 73.8015 378.127 78.5405C378.159 79.9606 377.999 82.1944 377.377 84.7793C376.771 87.3801 375.702 90.3639 373.931 93.3157C373.197 94.6241 371.824 96.2038 370.053 97.6877C368.282 99.1875 366.112 100.576 363.751 101.501C360.783 102.618 357.512 103.192 354.624 103.559C351.752 103.911 349.247 104.038 347.859 104.214C347.332 104.246 344.189 104.469 339.753 104.836C337.551 105.027 335.014 105.235 332.317 105.49C329.637 105.745 326.813 106.033 324.004 106.336C321.196 106.623 318.404 106.942 315.787 107.245C313.17 107.564 310.761 107.852 308.671 108.123C304.538 108.665 301.81 109.032 301.81 109.032C301.235 109.112 300.629 108.745 300.517 107.995C300.07 105.65 299.879 103.272 299.847 100.863C299.64 97.8632 299.241 94.9113 298.778 91.9435C298.331 88.9917 297.821 86.0398 297.422 83.072C297.326 82.3221 297.964 81.6519 298.666 81.5402C301.746 81.4445 307.984 80.6467 309.133 80.5031C310.601 80.4871 312.707 80.3435 315.133 80.1042C317.558 79.8648 320.287 79.5617 322.999 79.1947C325.728 78.8596 328.424 78.4447 330.786 78.0139C333.131 77.5991 335.142 77.1683 336.466 76.7055C338.301 75.9716 339.53 74.6632 339.514 72.4134C339.482 70.1636 336.53 69.7328 333.083 69.9242C329.637 70.1317 325.728 70.9773 323.749 71.2486C320.606 71.7113 317.526 71.9506 314.526 71.7432C311.511 71.5358 308.559 70.8656 305.735 69.4934C303.565 68.3925 301.586 66.8447 299.831 65.0896C298.076 63.3185 296.56 61.292 295.379 59.2018C294.262 57.1116 293.401 54.9096 292.794 52.6279C292.188 50.3462 291.837 47.9688 291.709 45.5754C291.598 43.182 291.693 40.7407 292.029 38.3314C292.348 35.922 292.906 33.5286 293.672 31.199C294.486 28.5344 295.698 26.0133 297.326 23.7476C298.969 21.4818 301.028 19.4873 303.565 17.9236C305.575 16.695 307.745 15.5143 310.059 14.5729C312.341 13.6155 314.75 12.9134 317.207 12.6901C317.207 12.6901 320.829 12.339 326.318 11.8444C329.03 11.6051 332.222 11.3178 335.652 11.0785C339.067 10.8232 342.721 10.5679 346.375 10.3286C350.029 10.1211 353.682 9.91372 357.113 9.7382C360.528 9.57864 363.735 9.41908 366.463 9.3393C371.968 9.13187 375.622 9.03614 375.622 9.03614ZM501.914 15.977C501.371 19.966 501.02 24.0188 500.653 28.0397C500.254 32.0606 499.839 36.0816 499.153 40.0706C498.515 43.7404 497.685 47.5539 497.159 51.4153C497.191 52.3248 496.505 52.8354 495.882 52.9151C493.441 52.8832 490.042 52.3407 486.979 51.9418C483.915 51.5429 481.219 51.2557 480.15 51.7344C479.671 52.1493 478.538 52.7556 478.012 54.5107C477.708 55.7553 477.182 59.4252 476.576 64.2279C476.288 66.6373 475.953 69.3498 475.634 72.19C475.315 75.0302 474.98 77.998 474.661 80.9339C474.326 83.8857 474.023 86.8216 473.719 89.5661C473.416 92.3265 473.161 94.8954 472.922 97.1452C472.443 101.613 472.14 104.756 472.076 105.315C471.98 106.208 471.358 106.751 470.656 106.671C470.656 106.671 468.215 106.432 464.561 106.065C462.742 105.889 460.604 105.682 458.322 105.458C456.024 105.267 453.599 105.075 451.158 104.868C448.716 104.692 446.275 104.517 443.977 104.357C441.696 104.198 439.558 104.07 437.707 103.958C434.053 103.751 431.612 103.607 431.612 103.607C431.069 103.575 430.527 102.937 430.559 102.044C430.606 100.48 430.798 97.209 431.101 93.1083C431.229 91.0819 431.388 88.8321 431.564 86.4866C431.723 84.141 431.899 81.6998 432.09 79.2904C432.25 76.8811 432.425 74.4717 432.569 72.2059C432.728 69.9562 432.888 67.8021 433 65.9033C433.239 62.1218 433.383 59.2816 433.319 58.3083C433.175 55.1809 434.069 52.0695 432.074 49.8675C430.335 47.9847 428.229 47.2827 425.979 47.0433C423.267 46.804 414.618 46.7083 414.618 46.7083C413.996 46.6763 413.422 45.9105 413.438 45.1765V45.0169C413.438 45.0169 413.47 37.5336 413.198 34.837C413.135 33.4169 413.103 31.199 413.103 28.6461C413.103 26.0931 413.15 23.221 413.198 20.4925C413.294 15.0516 413.454 10.2328 413.454 9.86585C413.486 8.97231 414.108 8.98827 414.762 9.00423C414.762 9.00423 416.118 9.03614 418.496 9.08401C420.873 9.17974 424.272 9.29143 428.357 9.43504C430.399 9.53077 432.617 9.62651 434.946 9.72225C437.292 9.84989 439.749 9.97754 442.302 10.1371C444.855 10.2807 447.488 10.4403 450.168 10.6158C452.833 10.7913 455.546 11.0147 458.258 11.2221C460.987 11.4295 463.699 11.6529 466.364 11.8923C469.028 12.1316 471.661 12.3869 474.198 12.6262C476.751 12.8815 479.192 13.1368 481.522 13.3762C483.852 13.6315 486.069 13.8708 488.08 14.1101C492.149 14.5729 495.515 15.0037 497.893 15.3068C500.238 15.61 501.611 15.8015 501.611 15.8015C501.611 15.8015 501.93 15.8334 501.914 15.977ZM589.975 62.6483C589.496 64.4832 588.906 66.733 588.268 69.1903C587.629 71.6475 586.927 74.3121 586.241 76.9927C585.539 79.6574 584.837 82.3221 584.199 84.7793C583.561 87.2684 582.97 89.5501 582.476 91.4329C581.486 95.2145 580.178 98.1983 578.582 100.783C577.003 103.384 575.12 105.618 572.982 107.852C571.227 109.862 569.216 111.553 567.062 112.958C564.94 114.362 562.658 115.479 560.361 116.276C557.664 117.266 555.143 118.143 552.271 118.542C549.431 118.957 546.239 118.909 542.187 118.032C541.165 117.824 536.762 116.915 532.533 116.053C528.289 115.255 524.236 114.473 523.885 114.41C520.199 113.436 516.769 111.633 513.849 109.431C510.897 107.245 508.44 104.692 506.748 102.219C505.28 100.113 503.765 96.5069 502.727 92.7413C501.674 88.9757 501.068 85.0346 501.483 82.2104C501.69 80.8062 502.041 78.3171 502.488 75.2855C502.935 72.2379 503.461 68.6158 504.004 64.8821C504.546 61.1644 505.105 57.335 505.6 53.8885C506.094 50.4579 506.541 47.4103 506.86 45.2084C507.498 40.8524 508.823 37.1825 510.53 34.2147C512.253 31.2309 514.375 28.9333 516.609 27.3217C520.391 24.5773 523.614 23.0136 526.981 22.1839C530.347 21.3701 533.874 21.2903 538.277 21.5456C538.421 21.5776 543.623 22.5509 549.798 23.7157C552.877 24.3379 556.196 25.0241 559.26 25.6304C562.307 26.3005 565.099 26.8749 567.126 27.3217C571.163 28.2153 574.721 29.5715 577.848 31.4862C580.96 33.4488 583.608 35.9699 585.826 39.2249C587.933 42.432 589.48 46.421 590.23 50.5058C590.964 54.6224 590.948 58.8667 589.975 62.6483ZM537.32 78.3011C535.868 85.7845 537.655 87.9545 540.687 88.5608C544.548 89.3427 546.064 84.9388 546.543 82.5773C547.308 78.9075 548.282 74.8068 549.159 70.9295C550.053 67.0681 550.835 63.4461 551.234 60.7974C552.047 56.0744 552.159 52.5801 548.106 51.7344C542.969 50.7292 541.532 55.7872 541.07 58.1328C540.846 59.6326 540.272 62.744 539.57 66.4618C538.884 70.1636 538.054 74.4717 537.32 78.3011ZM642.023 144.662C639.135 144.79 636.231 144.327 633.806 143.753C631.381 143.178 629.434 142.492 628.445 142.141C628.445 142.141 622.828 140.226 617.196 138.344C611.563 136.493 605.915 134.69 605.915 134.69C602.341 133.605 598.703 131.53 595.639 128.802C592.56 126.073 590.055 122.723 588.874 119.037C587.486 115.255 587.374 110.692 587.789 106.4C588.188 102.107 589.129 98.1025 589.863 95.4379L593.166 83.2954C593.166 83.2954 593.932 80.4392 595.097 76.179C595.671 74.0409 596.357 71.5358 597.091 68.8711C597.809 66.2065 598.575 63.3344 599.357 60.4942C600.139 57.6381 600.921 54.798 601.655 52.1333C602.389 49.4367 603.043 46.9476 603.633 44.8095C604.798 40.5492 605.58 37.7091 605.58 37.7091C605.739 37.1347 606.138 36.7836 606.601 36.9113C606.601 36.9113 608.819 37.5176 612.138 38.443C615.441 39.3845 619.86 40.6609 624.28 41.9534C628.668 43.2777 633.056 44.634 636.343 45.6711C639.63 46.7083 641.832 47.4103 641.832 47.4103C642.279 47.5699 642.454 48.0645 642.263 48.6549C641.417 51.2717 640.571 53.9044 639.726 56.5531C638.88 59.1858 638.066 61.8345 637.284 64.4832C636.854 65.7916 636.136 67.9138 635.306 70.4189C634.46 72.908 633.519 75.7801 632.561 78.6043C631.62 81.4604 630.711 84.2687 629.961 86.5823C629.211 88.9278 628.652 90.7947 628.413 91.784C627.44 95.7251 626.259 100.352 627.567 102.522C628.876 104.692 631.445 104.453 632.242 103.926C635.306 101.804 636.231 97.225 637.667 93.4274C638.018 92.486 638.704 90.5553 639.566 88.0822C640.428 85.6249 641.465 82.6252 642.518 79.5457C643.587 76.4822 644.672 73.3548 645.613 70.6263C646.587 67.8819 647.385 65.5363 647.943 64.0843C649.427 60.1592 650.815 56.0425 652.028 52.0216C652.06 51.4312 652.666 51.16 653.113 51.3036C653.113 51.3036 655.394 52.0854 658.841 53.2821C662.271 54.4788 666.835 56.1063 671.398 57.7817C675.946 59.4731 680.493 61.1804 683.876 62.4887C687.291 63.7971 689.54 64.6907 689.54 64.6907C689.971 64.8662 690.115 65.4087 689.955 65.8076C689.955 65.8076 688.631 69.1264 686.668 74.0888C685.679 76.5779 684.53 79.4659 683.302 82.5773C682.073 85.6728 680.765 88.9917 679.456 92.2945C678.132 95.6134 676.823 98.9322 675.595 102.028C674.366 105.139 673.217 108.027 672.228 110.516C670.265 115.479 668.957 118.781 668.957 118.781C668.207 120.664 667.409 122.659 666.548 124.653C665.67 126.648 664.713 128.642 663.644 130.525C661.506 134.307 658.921 137.657 655.586 139.732C653.256 141.152 650.975 142.364 648.709 143.226C646.459 144.072 644.241 144.598 642.023 144.662ZM740.807 160.267C740.679 162.341 740.328 164.91 739.85 167.671C739.355 170.431 738.717 173.383 738.094 176.143C736.802 181.648 735.462 186.467 735.063 187.775C734.76 188.637 734.01 189.084 733.547 188.812C733.547 188.812 731.808 187.887 729.239 186.499C726.638 185.111 723.176 183.292 719.713 181.473C716.235 179.686 712.724 177.914 710.108 176.59C707.491 175.298 705.72 174.436 705.72 174.436C705.353 174.245 705.241 173.878 705.305 173.383C705.672 171.819 706.39 166.889 706.9 161.958C707.379 157.028 707.65 152.098 707.267 150.582C706.98 149.481 704.746 149.098 704.124 150.438C702.592 153.199 701.061 156.119 699.609 159.086C698.172 162.07 696.784 165.086 695.556 168.07C695.237 168.756 694.598 169.107 694.215 168.915C694.215 168.915 692.333 168.054 689.54 166.777C686.748 165.485 682.998 163.809 679.249 162.15C675.483 160.522 671.717 158.895 668.877 157.698C666.037 156.517 664.154 155.72 664.154 155.72C663.628 155.512 663.596 154.858 663.867 154.156L668.574 142.668L668.654 142.524C668.893 141.95 669.707 139.971 670.808 137.306C671.909 134.642 673.297 131.275 674.701 127.924C676.073 124.558 677.462 121.223 678.531 118.574C679.616 115.941 680.382 114.011 680.573 113.484L680.637 113.325C680.637 113.325 682.376 109.08 684.115 104.82C685.854 100.576 687.61 96.3155 687.61 96.3155C688.551 94.1135 689.508 91.8797 690.466 89.6299C691.455 87.3801 692.428 85.1303 693.386 82.8486C694.359 80.5669 695.3 78.3011 696.226 76.0194C697.151 73.7696 698.029 71.472 698.875 69.2541C699.034 68.8552 699.21 68.4403 699.64 68.6158C699.64 68.6158 703.534 70.2274 709.374 72.6846C712.278 73.9292 715.644 75.3971 719.266 76.9927C722.888 78.6043 726.734 80.3435 730.563 82.0987C734.377 83.8698 738.206 85.6728 741.764 87.3642C745.338 89.0874 748.641 90.7149 751.466 92.1031C757.13 94.9432 760.896 96.8739 760.896 96.8739C764.119 98.5333 766.767 102.107 768.315 105.953C770.246 110.373 770.262 115.303 770.086 117.601C769.927 120.84 769.177 123.76 767.996 126.728C766.799 129.695 765.188 132.743 763.289 136.221C761.949 138.631 760.082 141.503 758.183 144.056C756.268 146.609 754.306 148.875 752.79 150.103C749.79 152.544 743.583 155.672 743.312 155.847C743.184 155.783 743.121 155.927 743.121 155.927C741.174 156.39 740.935 158.145 740.807 160.267ZM724.021 122.978C726.111 119.324 727.404 116.276 728.553 113.197C730.244 108.203 728.888 106.384 727.069 105.522C725.952 104.996 724.58 105.363 724.069 106.112C723.558 107.197 722.809 108.809 722.027 110.452C721.341 111.92 720.303 114.043 719.266 116.213C718.245 118.367 717.208 120.569 716.522 122.212C716.091 123.52 715.15 125.547 717.112 126.648C718.963 127.669 721.724 127.031 724.021 122.978Z" stroke="white" stroke-width="16.1796" mask="url(#path-1-outside-1_117_44)"/>
</g>
<defs>
<filter id="filter0_d_117_44" x="0.293212" y="0.858093" width="781.548" height="204.099" filterUnits="userSpaceOnUse" color-interpolation-filters="sRGB">
<feFlood flood-opacity="0" result="BackgroundImageFix"/>
<feColorMatrix in="SourceAlpha" type="matrix" values="0 0 0 0 0 0 0 0 0 0 0 0 0 0 0 0 0 0 127 0" result="hardAlpha"/>
<feOffset dy="3.59546"/>
<feGaussianBlur stdDeviation="1.79773"/>
<feComposite in2="hardAlpha" operator="out"/>
<feColorMatrix type="matrix" values="0 0 0 0 0 0 0 0 0 0 0 0 0 0 0 0 0 0 0.25 0"/>
<feBlend mode="normal" in2="BackgroundImageFix" result="effect1_dropShadow_117_44"/>
<feBlend mode="normal" in="SourceGraphic" in2="effect1_dropShadow_117_44" result="shape"/>
</filter>
</defs>
</svg>
