<svg width="428" height="169" viewBox="0 0 428 169" fill="none" xmlns="http://www.w3.org/2000/svg">
<g filter="url(#filter0_d_82_16)">
<mask id="path-1-outside-1_82_16" maskUnits="userSpaceOnUse" x="4" y="0" width="419" height="160" fill="black">
<rect fill="white" x="4" width="419" height="160"/>
<path d="M101.102 96.5127C99.2317 97.7176 97.5793 98.693 96.0186 99.5078C94.4695 100.368 93.0121 101.057 91.5547 101.7C90.1088 102.354 88.6515 102.973 87.1023 103.639C85.5646 104.327 83.9236 105.073 82.122 105.991C79.5286 107.277 81.2155 111.913 84.3023 110.731C85.5072 110.26 86.9187 109.675 88.4449 108.998C89.9941 108.332 91.681 107.575 93.4367 106.783C95.2039 105.98 97.0514 105.142 98.9334 104.293C100.815 103.467 102.743 102.606 104.637 101.768C106.542 100.942 108.412 100.139 110.202 99.3701C112.004 98.6127 113.702 97.9012 115.286 97.2586C118.453 95.9734 121.023 94.9521 122.573 94.3668C122.917 94.0914 123.514 94.5504 123.755 95.2619C124.592 97.4078 125.304 99.5996 125.958 101.642C126.222 102.48 126.704 103.926 127.277 105.601C127.84 107.288 128.505 109.204 129.125 111.029C130.364 114.667 131.466 117.891 131.466 117.891C131.707 118.637 131.604 119.154 131.099 119.303C131.099 119.303 130.043 119.647 128.195 120.278C127.266 120.588 126.141 120.967 124.856 121.414C123.559 121.885 122.125 122.39 120.553 122.963C118.992 123.56 117.294 124.203 115.504 124.903C113.725 125.603 111.855 126.383 109.927 127.186C107.999 128.001 106.014 128.85 104.005 129.745C102.009 130.652 99.9891 131.593 97.958 132.545C95.9498 133.509 93.9416 134.496 91.9908 135.494C90.0285 136.504 88.1236 137.491 86.2646 138.489C84.4286 139.488 82.6614 140.486 80.9974 141.404C79.3335 142.38 77.7729 143.275 76.327 144.135C74.8926 145.007 73.5844 145.788 72.4254 146.511C71.2664 147.234 70.268 147.865 69.4303 148.381C67.7893 149.437 66.8713 150.057 66.8713 150.057C66.4238 150.332 65.9648 150.091 65.5287 149.46C65.5287 149.46 62.9467 145.283 61.7992 143.286C60.6517 141.416 59.4927 139.568 58.3222 137.732C57.1402 135.896 55.9583 134.071 54.7648 132.258C53.5714 130.434 52.378 128.621 51.1731 126.819C49.9911 125.029 48.8091 123.227 47.6272 121.449C47.1223 120.668 45.642 118.327 44.2075 116.044C42.7731 113.76 41.3961 111.511 41.0748 110.88C40.8682 110.306 40.283 109.927 41.5682 108.562C42.5895 107.495 43.76 106.359 45.0452 105.2C46.3419 104.029 47.7649 102.836 49.2567 101.619C50.7714 100.426 52.3435 99.2209 53.9616 98.0389C55.5681 96.857 57.2206 95.7209 58.8501 94.6078C60.4795 93.5291 62.0861 92.4964 63.6353 91.521C65.2074 90.5685 66.6877 89.6849 68.0303 88.9046C70.7729 87.3554 73.0221 86.1849 74.3647 85.5653C78.5188 83.7751 79.6548 79.8964 77.3139 78.2555C75.5467 77.062 73.4008 77.3719 71.645 77.6932C70.9795 77.8079 69.7057 78.2096 68.0762 78.7833C66.4467 79.3915 64.4615 80.1833 62.3845 81.0899C60.3189 81.9964 58.1386 83.0177 56.1419 84.039C54.1452 85.0718 52.2976 86.0931 50.8747 86.9767C49.8075 87.6767 48.2813 88.698 46.5714 89.8685C44.8846 91.039 43.0141 92.3472 41.2469 93.6095C37.7469 96.1799 34.6256 98.5553 33.9371 99.0832C33.4896 99.5652 32.7437 99.3242 32.3306 98.6816C31.2175 96.9832 30.0814 95.2619 28.9339 93.5521C27.7863 91.8423 26.6388 90.121 25.4913 88.3882C24.3323 86.6669 23.1847 84.9112 22.0601 83.1784C20.9126 81.4341 19.7995 79.6899 18.6979 77.9456C17.1831 75.6391 15.6569 73.3326 14.1766 71.026C13.8782 70.2916 13.9356 69.6949 14.5209 69.3162C14.5209 69.3162 17.8028 67.1933 22.7831 64.0834C25.2847 62.5457 28.2339 60.7785 31.4125 58.9425C33.0076 58.0245 34.6601 57.0835 36.324 56.1425C38.0223 55.2015 39.7436 54.272 41.4649 53.3311C43.1977 52.413 44.9305 51.495 46.6403 50.5999C48.3616 49.7393 50.0485 48.8672 51.7009 48.0639C54.9943 46.4459 58.0927 44.9541 60.755 43.7147C66.1025 41.2934 69.7057 39.7213 69.7057 39.7213L69.8434 39.6525C71.5188 39.0557 73.2516 38.3787 75.0417 37.7017C76.8548 37.0361 78.7253 36.3705 80.6761 35.8312C82.6499 35.2804 84.704 34.8558 86.8499 34.6377C89.0072 34.4427 91.2449 34.4771 93.5974 34.8099C95.64 35.1427 98.9219 36.4853 102.135 39.182C103.719 40.5475 105.279 42.2459 106.679 44.3114C108.068 46.3885 109.296 48.8213 110.191 51.6786C110.191 51.6786 110.982 54.0884 111.751 56.4868C112.532 58.8966 113.289 61.3064 113.289 61.3064L113.335 61.4556C113.84 63.4179 114.241 65.3113 114.494 67.1474C114.769 68.9719 114.919 70.7391 114.93 72.4375C114.953 74.1244 114.861 75.7539 114.62 77.326C114.391 78.8751 114.035 80.3784 113.541 81.8243C113.06 83.2587 112.44 84.6243 111.682 85.9554C110.937 87.2636 110.042 88.5374 108.997 89.7538C107.976 90.9701 106.805 92.1406 105.486 93.2537C104.166 94.3898 102.72 95.4685 101.102 96.5127ZM208.683 39.7328C208.718 41.6721 208.752 44.0705 208.798 46.6639C208.833 49.2688 208.89 52.0917 208.936 54.9147C208.982 57.7376 209.028 60.572 209.051 63.1884C209.108 65.8162 209.142 68.226 209.177 70.2227C209.211 72.208 209.108 74.0211 208.901 75.7079C208.695 77.4292 208.374 79.0014 207.972 80.5046C207.57 82.0079 207.077 83.4423 206.515 84.8423C205.952 86.2538 205.321 87.6193 204.633 89.0193C203.542 91.521 202.165 93.7587 200.593 95.7439C199.044 97.7406 197.3 99.4848 195.464 100.988C193.329 102.755 191.344 104.385 188.934 105.659C187.741 106.301 186.433 106.852 184.964 107.311C183.484 107.77 181.831 108.126 179.938 108.367C179.456 108.436 178.182 108.596 176.53 108.814C174.877 109.067 172.869 109.365 170.895 109.675C168.91 110.019 166.982 110.352 165.502 110.604C164.033 110.891 163.012 111.086 162.84 111.109C161.095 111.304 159.317 111.27 157.561 111.075C155.805 110.88 154.072 110.513 152.397 110.031C150.71 109.549 149.104 108.941 147.6 108.241C146.097 107.552 144.697 106.772 143.481 105.945C142.425 105.234 141.209 104.178 139.946 102.916C138.672 101.654 137.364 100.185 136.125 98.6357C134.886 97.0865 133.715 95.457 132.751 93.8619C131.799 92.2669 131.053 90.6947 130.64 89.3177C130.238 87.9062 129.515 85.462 128.62 82.4325C128.184 80.9177 127.691 79.2538 127.197 77.5096C126.681 75.7768 126.141 73.9408 125.602 72.0817C125.063 70.2342 124.512 68.3637 123.984 66.5162C123.456 64.6802 122.928 62.8671 122.412 61.1687C121.425 57.7491 120.53 54.7196 119.899 52.5393C119.268 50.3704 118.878 48.2819 118.694 46.3196C118.522 44.3344 118.545 42.4524 118.751 40.7082C118.958 38.941 119.348 37.2885 119.876 35.7738C120.415 34.2591 121.092 32.8705 121.873 31.6312C123.192 29.5427 124.5 27.787 125.866 26.2837C127.232 24.7804 128.666 23.5296 130.227 22.428C131.776 21.3493 133.463 20.4198 135.322 19.5821C137.192 18.7444 139.258 17.9985 141.587 17.2411C141.656 17.2297 143.148 16.9198 145.466 16.4838C147.795 16.0362 150.951 15.4739 154.382 14.8772C156.103 14.5903 157.894 14.3149 159.684 14.051C161.474 13.7756 163.264 13.5117 164.997 13.2936C168.428 12.8346 171.561 12.4559 173.856 12.192C176.128 11.951 178.331 11.8592 180.443 11.9395C182.566 12.0428 184.597 12.3068 186.582 12.7543C188.533 13.2133 190.392 13.8559 192.216 14.7051C194.041 15.5543 195.751 16.5985 197.426 17.8723C199.044 19.1346 200.536 20.6378 201.924 22.3018C203.267 23.9657 204.461 25.8017 205.459 27.7181C206.446 29.6345 207.238 31.6427 207.8 33.6623C208.339 35.705 208.638 37.7361 208.683 39.7328ZM162.036 71.7031C162.69 75.5473 163.643 77.8194 164.79 79.1047C165.938 80.3669 167.292 80.6309 168.795 80.3899C172.651 79.8276 172.548 75.0424 172.215 72.5981C171.962 70.7047 171.71 68.6851 171.457 66.631C171.216 64.5769 170.975 62.4884 170.735 60.4802C170.494 58.4605 170.253 56.5097 170.012 54.7311C169.771 52.9409 169.507 51.3344 169.254 49.9803C168.841 47.559 168.348 45.4934 167.43 44.1164C166.477 42.7279 165.112 42.0508 162.954 42.3721C160.223 42.8197 158.949 44.3688 158.421 46.136C157.905 47.8918 158.123 49.8311 158.318 51.036C158.662 52.5278 159.248 55.7409 159.925 59.5507C160.269 61.4441 160.613 63.4982 160.969 65.5752C161.336 67.6523 161.692 69.7293 162.036 71.7031ZM275.768 80.8604C273.542 80.826 271.626 80.7112 269.87 80.5161C268.103 80.3669 266.519 80.126 264.947 79.8505C263.375 79.5866 261.826 79.2883 260.173 78.9784C258.509 78.6915 256.742 78.3932 254.722 78.1407C251.842 77.762 250.672 82.5702 253.885 83.2817C255.147 83.58 256.65 83.8784 258.291 84.1653C259.955 84.4751 261.768 84.7964 263.673 85.1177C265.578 85.439 267.586 85.7603 269.617 86.1161C271.66 86.4718 273.726 86.839 275.768 87.1948C277.799 87.5734 279.808 87.9521 281.724 88.3079C283.64 88.6865 285.453 89.0538 287.117 89.3866C290.457 90.098 293.165 90.6833 294.771 91.0619C295.219 91.016 295.471 91.739 295.265 92.4619C294.76 94.7226 294.129 96.9258 293.532 98.9914C293.291 99.8406 292.889 101.298 292.43 103.008C291.96 104.718 291.421 106.68 290.927 108.539C289.917 112.257 289.045 115.55 289.045 115.55C288.827 116.285 288.46 116.663 287.955 116.514C287.955 116.514 286.876 116.216 284.994 115.688C284.042 115.436 282.906 115.137 281.586 114.793C280.278 114.449 278.775 114.081 277.157 113.68C275.539 113.29 273.76 112.877 271.89 112.475C270.019 112.05 268.034 111.637 265.991 111.247C263.926 110.845 261.803 110.444 259.645 110.077C257.477 109.698 255.273 109.354 253.059 109.021C250.855 108.711 248.641 108.401 246.46 108.137C244.28 107.873 242.134 107.644 240.046 107.437C237.968 107.254 235.949 107.082 234.032 106.921C232.128 106.783 230.314 106.68 228.65 106.588C226.975 106.485 225.437 106.416 224.083 106.37C222.718 106.324 221.536 106.278 220.56 106.255C218.61 106.232 217.496 106.198 217.496 106.198C216.957 106.198 216.716 105.739 216.716 104.982C216.716 104.982 216.911 100.082 217.06 97.775C217.141 95.5832 217.221 93.4029 217.267 91.2226C217.324 89.0423 217.359 86.862 217.382 84.6931C217.405 82.5128 217.416 80.344 217.428 78.1751C217.439 76.0293 217.462 73.8719 217.496 71.7375C217.496 70.808 217.565 68.0539 217.657 65.3457C217.737 62.649 217.841 59.9982 217.921 59.3212C218.093 58.7245 217.795 58.0818 219.642 57.6687C221.065 57.3474 222.672 57.0605 224.382 56.8081C226.114 56.5671 227.962 56.372 229.878 56.1884C231.795 56.0392 233.78 55.913 235.777 55.8442C237.773 55.7638 239.782 55.7294 241.755 55.7294C243.718 55.7409 245.634 55.7753 247.459 55.8327C249.272 55.913 251.004 56.0048 252.565 56.1081C255.698 56.3491 258.211 56.6245 259.68 56.8769C264.109 57.7146 267.219 55.0983 266.221 52.4589C265.406 50.4508 263.467 49.5327 261.803 48.8213C261.183 48.5458 259.909 48.1672 258.234 47.7311C256.547 47.3295 254.459 46.8819 252.232 46.4803C249.995 46.0786 247.642 45.7114 245.393 45.4475C243.167 45.1836 241.078 45 239.391 44.9541C238.106 44.9196 236.27 44.9196 234.216 44.9426C232.162 44.9655 229.878 45.0114 227.71 45.0803C223.36 45.2639 219.447 45.4705 218.564 45.5393C217.933 45.6885 217.462 45.0803 217.474 44.3114C217.496 42.2803 217.508 40.2148 217.508 38.1607C217.519 36.1066 217.519 34.0296 217.542 31.9525C217.542 29.8755 217.554 27.787 217.588 25.7099C217.623 23.6329 217.657 21.5559 217.715 19.4903C217.749 16.7362 217.783 13.9592 217.806 11.2166C217.99 10.4363 218.334 9.98874 219.057 10.0002C219.057 10.0002 222.97 10.0805 228.834 10.2641C231.772 10.4019 235.203 10.574 238.864 10.815C240.7 10.9297 242.593 11.0789 244.509 11.2396C246.437 11.3887 248.388 11.5723 250.35 11.7789C252.29 11.974 254.24 12.1805 256.157 12.3871C258.062 12.6166 259.955 12.8576 261.78 13.0986C265.406 13.592 268.814 14.0854 271.717 14.5444C277.501 15.5198 281.368 16.2198 281.368 16.2198L281.54 16.2543C283.25 16.6903 285.052 17.0805 286.922 17.5166C288.804 17.9756 290.721 18.4575 292.648 19.1002C294.588 19.7542 296.539 20.546 298.432 21.5559C300.337 22.6001 302.184 23.8739 303.94 25.469C305.478 26.8804 307.429 29.8296 308.588 33.8574C309.138 35.8656 309.494 38.1492 309.506 40.6393C309.494 43.1524 309.161 45.8491 308.312 48.718C308.312 48.718 307.612 51.1507 306.924 53.5835C306.224 56.0048 305.524 58.4376 305.524 58.4376L305.478 58.5868C304.801 60.5031 304.066 62.2933 303.263 63.9572C302.46 65.6326 301.599 67.1703 300.67 68.5932C299.74 70.0162 298.753 71.3014 297.686 72.4719C296.619 73.6309 295.494 74.6866 294.278 75.6047C293.084 76.5342 291.799 77.326 290.434 78.003C289.08 78.6686 287.622 79.2309 286.085 79.6555C284.57 80.0915 282.94 80.4128 281.219 80.6079C279.498 80.8145 277.685 80.8948 275.768 80.8604ZM382.959 109.652C382.913 110.547 382.787 112.59 381.904 115.55C381.467 117.008 380.848 118.695 379.976 120.588C379.081 122.481 377.945 124.558 376.476 126.796C375.248 128.69 373.905 130.353 372.494 131.788C371.071 133.234 369.59 134.439 367.995 135.46C366.423 136.47 364.759 137.285 363.015 137.881C361.282 138.501 359.469 138.914 357.564 139.144C355.694 139.396 353.8 139.488 351.941 139.43C350.094 139.408 348.269 139.224 346.514 138.937C344.781 138.65 343.105 138.26 341.568 137.778C340.019 137.296 338.607 136.722 337.356 136.068C337.356 136.068 334.901 134.829 331.171 132.993C329.301 132.086 327.097 131.053 324.733 129.986C323.551 129.458 322.324 128.908 321.073 128.368C319.822 127.817 318.537 127.278 317.263 126.739C315.978 126.211 314.681 125.694 313.419 125.19C312.156 124.685 310.894 124.203 309.678 123.732C307.257 122.814 304.973 121.988 303.011 121.311C299.075 119.957 296.447 119.085 296.447 119.085C296.332 119.05 296.125 118.832 296.171 118.683C296.963 116.193 297.709 113.863 298.329 111.5C298.834 109.801 299.407 108.011 300.004 106.175C300.612 104.339 301.266 102.445 301.932 100.575C302.598 98.693 303.275 96.8226 303.94 95.0095C304.606 93.1849 305.26 91.4177 305.879 89.7652C305.914 89.639 306.098 89.5243 306.235 89.5587C307.842 90.0406 310.389 90.9357 313.293 91.9914C314.75 92.5423 316.276 93.139 317.848 93.7586C319.409 94.3783 320.97 95.0439 322.496 95.675C325.525 96.9832 328.348 98.257 330.402 99.198C332.456 100.173 333.753 100.793 333.753 100.793C333.753 100.793 336.209 102.113 338.974 103.375C341.728 104.66 344.792 105.877 346.1 105.498C347.833 104.97 349.646 103.306 349.52 101.206C349.405 99.4389 348.281 98.3603 347.064 97.4422C346.387 96.9488 343.817 95.6176 340.305 93.9193C338.55 93.0931 336.553 92.175 334.419 91.2226C332.296 90.316 330.047 89.3636 327.786 88.4341C325.548 87.539 323.299 86.6554 321.176 85.8521C319.042 85.0603 317.045 84.3489 315.301 83.7292C311.801 82.5358 309.356 81.721 308.955 81.5948C308.679 81.503 308.645 81.1587 308.679 81.0325C308.897 80.3555 309.242 79.2079 309.678 77.6932C310.125 76.1899 310.688 74.3194 311.296 72.185C311.915 70.0506 312.615 67.6523 313.35 65.0933C314.073 62.5343 314.876 59.8146 315.668 57.0376C316.471 54.2491 317.297 51.4262 318.112 48.6147C318.927 45.8262 319.73 43.0836 320.51 40.4787C321.291 37.8738 322.037 35.3951 322.737 33.1919C323.414 30.9771 324.056 29.0148 324.63 27.4198C324.665 27.2706 324.883 27.1788 325.032 27.2132C325.032 27.2132 326.501 27.6837 329.037 28.5099C330.299 28.946 331.848 29.4509 333.592 30.0706C335.371 30.6788 337.345 31.3788 339.502 32.1706C341.671 32.9509 343.978 33.8345 346.433 34.7754C348.889 35.7394 351.459 36.7607 354.11 37.8508C356.75 38.9639 359.481 40.1344 362.235 41.3393C364.977 42.5787 367.766 43.8524 370.52 45.1606C373.286 46.4688 376.028 47.8114 378.713 49.154C381.399 50.5311 384.026 51.8852 386.562 53.2278C389.087 54.5933 391.497 55.9245 393.815 57.2212C396.087 58.5294 398.233 59.7572 400.218 60.9392C402.192 62.0982 403.982 63.1998 405.577 64.1752C407.161 65.1507 408.538 66.0113 409.674 66.7342C411.923 68.1572 413.208 68.9834 413.208 68.9834C413.357 69.0867 413.415 69.3162 413.323 69.4539C412.451 70.8768 411.097 72.9194 409.571 75.203C408.033 77.5096 406.3 80.0456 404.636 82.4899C402.984 84.9226 401.389 87.2521 400.126 89.1226C398.864 91.0046 397.935 92.416 397.602 93.0127C397.43 93.2767 397.2 93.3226 396.936 93.1505C395.559 92.3013 393.918 91.3029 392.105 90.2128C390.28 89.1226 388.261 87.9292 386.172 86.6898C384.026 85.4849 381.812 84.2341 379.574 82.9948C377.336 81.7784 375.064 80.562 372.884 79.4145C370.669 78.2784 368.546 77.1883 366.584 76.2014C364.61 75.2375 362.82 74.3768 361.282 73.6194C358.195 72.1735 356.153 71.2326 355.889 71.1063C353.536 70.0277 352.4 70.5211 351.138 73.3096C350.381 74.985 350.553 75.9489 351.643 76.8784C352.756 77.8079 354.787 78.726 357.725 80.3096C360.353 81.7784 363.038 83.121 365.861 84.5899C367.949 85.7259 369.774 86.9193 371.392 88.1357C372.999 89.3521 374.387 90.6029 375.581 91.8423C377.933 94.3324 379.528 96.7996 380.618 99.1062C381.674 101.413 382.236 103.536 382.546 105.326C382.844 107.127 382.89 108.608 382.959 109.652Z"/>
</mask>
<path d="M101.102 96.5127C99.2317 97.7176 97.5793 98.693 96.0186 99.5078C94.4695 100.368 93.0121 101.057 91.5547 101.7C90.1088 102.354 88.6515 102.973 87.1023 103.639C85.5646 104.327 83.9236 105.073 82.122 105.991C79.5286 107.277 81.2155 111.913 84.3023 110.731C85.5072 110.26 86.9187 109.675 88.4449 108.998C89.9941 108.332 91.681 107.575 93.4367 106.783C95.2039 105.98 97.0514 105.142 98.9334 104.293C100.815 103.467 102.743 102.606 104.637 101.768C106.542 100.942 108.412 100.139 110.202 99.3701C112.004 98.6127 113.702 97.9012 115.286 97.2586C118.453 95.9734 121.023 94.9521 122.573 94.3668C122.917 94.0914 123.514 94.5504 123.755 95.2619C124.592 97.4078 125.304 99.5996 125.958 101.642C126.222 102.48 126.704 103.926 127.277 105.601C127.84 107.288 128.505 109.204 129.125 111.029C130.364 114.667 131.466 117.891 131.466 117.891C131.707 118.637 131.604 119.154 131.099 119.303C131.099 119.303 130.043 119.647 128.195 120.278C127.266 120.588 126.141 120.967 124.856 121.414C123.559 121.885 122.125 122.39 120.553 122.963C118.992 123.56 117.294 124.203 115.504 124.903C113.725 125.603 111.855 126.383 109.927 127.186C107.999 128.001 106.014 128.85 104.005 129.745C102.009 130.652 99.9891 131.593 97.958 132.545C95.9498 133.509 93.9416 134.496 91.9908 135.494C90.0285 136.504 88.1236 137.491 86.2646 138.489C84.4286 139.488 82.6614 140.486 80.9974 141.404C79.3335 142.38 77.7729 143.275 76.327 144.135C74.8926 145.007 73.5844 145.788 72.4254 146.511C71.2664 147.234 70.268 147.865 69.4303 148.381C67.7893 149.437 66.8713 150.057 66.8713 150.057C66.4238 150.332 65.9648 150.091 65.5287 149.46C65.5287 149.46 62.9467 145.283 61.7992 143.286C60.6517 141.416 59.4927 139.568 58.3222 137.732C57.1402 135.896 55.9583 134.071 54.7648 132.258C53.5714 130.434 52.378 128.621 51.1731 126.819C49.9911 125.029 48.8091 123.227 47.6272 121.449C47.1223 120.668 45.642 118.327 44.2075 116.044C42.7731 113.76 41.3961 111.511 41.0748 110.88C40.8682 110.306 40.283 109.927 41.5682 108.562C42.5895 107.495 43.76 106.359 45.0452 105.2C46.3419 104.029 47.7649 102.836 49.2567 101.619C50.7714 100.426 52.3435 99.2209 53.9616 98.0389C55.5681 96.857 57.2206 95.7209 58.8501 94.6078C60.4795 93.5291 62.0861 92.4964 63.6353 91.521C65.2074 90.5685 66.6877 89.6849 68.0303 88.9046C70.7729 87.3554 73.0221 86.1849 74.3647 85.5653C78.5188 83.7751 79.6548 79.8964 77.3139 78.2555C75.5467 77.062 73.4008 77.3719 71.645 77.6932C70.9795 77.8079 69.7057 78.2096 68.0762 78.7833C66.4467 79.3915 64.4615 80.1833 62.3845 81.0899C60.3189 81.9964 58.1386 83.0177 56.1419 84.039C54.1452 85.0718 52.2976 86.0931 50.8747 86.9767C49.8075 87.6767 48.2813 88.698 46.5714 89.8685C44.8846 91.039 43.0141 92.3472 41.2469 93.6095C37.7469 96.1799 34.6256 98.5553 33.9371 99.0832C33.4896 99.5652 32.7437 99.3242 32.3306 98.6816C31.2175 96.9832 30.0814 95.2619 28.9339 93.5521C27.7863 91.8423 26.6388 90.121 25.4913 88.3882C24.3323 86.6669 23.1847 84.9112 22.0601 83.1784C20.9126 81.4341 19.7995 79.6899 18.6979 77.9456C17.1831 75.6391 15.6569 73.3326 14.1766 71.026C13.8782 70.2916 13.9356 69.6949 14.5209 69.3162C14.5209 69.3162 17.8028 67.1933 22.7831 64.0834C25.2847 62.5457 28.2339 60.7785 31.4125 58.9425C33.0076 58.0245 34.6601 57.0835 36.324 56.1425C38.0223 55.2015 39.7436 54.272 41.4649 53.3311C43.1977 52.413 44.9305 51.495 46.6403 50.5999C48.3616 49.7393 50.0485 48.8672 51.7009 48.0639C54.9943 46.4459 58.0927 44.9541 60.755 43.7147C66.1025 41.2934 69.7057 39.7213 69.7057 39.7213L69.8434 39.6525C71.5188 39.0557 73.2516 38.3787 75.0417 37.7017C76.8548 37.0361 78.7253 36.3705 80.6761 35.8312C82.6499 35.2804 84.704 34.8558 86.8499 34.6377C89.0072 34.4427 91.2449 34.4771 93.5974 34.8099C95.64 35.1427 98.9219 36.4853 102.135 39.182C103.719 40.5475 105.279 42.2459 106.679 44.3114C108.068 46.3885 109.296 48.8213 110.191 51.6786C110.191 51.6786 110.982 54.0884 111.751 56.4868C112.532 58.8966 113.289 61.3064 113.289 61.3064L113.335 61.4556C113.84 63.4179 114.241 65.3113 114.494 67.1474C114.769 68.9719 114.919 70.7391 114.93 72.4375C114.953 74.1244 114.861 75.7539 114.62 77.326C114.391 78.8751 114.035 80.3784 113.541 81.8243C113.06 83.2587 112.44 84.6243 111.682 85.9554C110.937 87.2636 110.042 88.5374 108.997 89.7538C107.976 90.9701 106.805 92.1406 105.486 93.2537C104.166 94.3898 102.72 95.4685 101.102 96.5127ZM208.683 39.7328C208.718 41.6721 208.752 44.0705 208.798 46.6639C208.833 49.2688 208.89 52.0917 208.936 54.9147C208.982 57.7376 209.028 60.572 209.051 63.1884C209.108 65.8162 209.142 68.226 209.177 70.2227C209.211 72.208 209.108 74.0211 208.901 75.7079C208.695 77.4292 208.374 79.0014 207.972 80.5046C207.57 82.0079 207.077 83.4423 206.515 84.8423C205.952 86.2538 205.321 87.6193 204.633 89.0193C203.542 91.521 202.165 93.7587 200.593 95.7439C199.044 97.7406 197.3 99.4848 195.464 100.988C193.329 102.755 191.344 104.385 188.934 105.659C187.741 106.301 186.433 106.852 184.964 107.311C183.484 107.77 181.831 108.126 179.938 108.367C179.456 108.436 178.182 108.596 176.53 108.814C174.877 109.067 172.869 109.365 170.895 109.675C168.91 110.019 166.982 110.352 165.502 110.604C164.033 110.891 163.012 111.086 162.84 111.109C161.095 111.304 159.317 111.27 157.561 111.075C155.805 110.88 154.072 110.513 152.397 110.031C150.71 109.549 149.104 108.941 147.6 108.241C146.097 107.552 144.697 106.772 143.481 105.945C142.425 105.234 141.209 104.178 139.946 102.916C138.672 101.654 137.364 100.185 136.125 98.6357C134.886 97.0865 133.715 95.457 132.751 93.8619C131.799 92.2669 131.053 90.6947 130.64 89.3177C130.238 87.9062 129.515 85.462 128.62 82.4325C128.184 80.9177 127.691 79.2538 127.197 77.5096C126.681 75.7768 126.141 73.9408 125.602 72.0817C125.063 70.2342 124.512 68.3637 123.984 66.5162C123.456 64.6802 122.928 62.8671 122.412 61.1687C121.425 57.7491 120.53 54.7196 119.899 52.5393C119.268 50.3704 118.878 48.2819 118.694 46.3196C118.522 44.3344 118.545 42.4524 118.751 40.7082C118.958 38.941 119.348 37.2885 119.876 35.7738C120.415 34.2591 121.092 32.8705 121.873 31.6312C123.192 29.5427 124.5 27.787 125.866 26.2837C127.232 24.7804 128.666 23.5296 130.227 22.428C131.776 21.3493 133.463 20.4198 135.322 19.5821C137.192 18.7444 139.258 17.9985 141.587 17.2411C141.656 17.2297 143.148 16.9198 145.466 16.4838C147.795 16.0362 150.951 15.4739 154.382 14.8772C156.103 14.5903 157.894 14.3149 159.684 14.051C161.474 13.7756 163.264 13.5117 164.997 13.2936C168.428 12.8346 171.561 12.4559 173.856 12.192C176.128 11.951 178.331 11.8592 180.443 11.9395C182.566 12.0428 184.597 12.3068 186.582 12.7543C188.533 13.2133 190.392 13.8559 192.216 14.7051C194.041 15.5543 195.751 16.5985 197.426 17.8723C199.044 19.1346 200.536 20.6378 201.924 22.3018C203.267 23.9657 204.461 25.8017 205.459 27.7181C206.446 29.6345 207.238 31.6427 207.8 33.6623C208.339 35.705 208.638 37.7361 208.683 39.7328ZM162.036 71.7031C162.69 75.5473 163.643 77.8194 164.79 79.1047C165.938 80.3669 167.292 80.6309 168.795 80.3899C172.651 79.8276 172.548 75.0424 172.215 72.5981C171.962 70.7047 171.71 68.6851 171.457 66.631C171.216 64.5769 170.975 62.4884 170.735 60.4802C170.494 58.4605 170.253 56.5097 170.012 54.7311C169.771 52.9409 169.507 51.3344 169.254 49.9803C168.841 47.559 168.348 45.4934 167.43 44.1164C166.477 42.7279 165.112 42.0508 162.954 42.3721C160.223 42.8197 158.949 44.3688 158.421 46.136C157.905 47.8918 158.123 49.8311 158.318 51.036C158.662 52.5278 159.248 55.7409 159.925 59.5507C160.269 61.4441 160.613 63.4982 160.969 65.5752C161.336 67.6523 161.692 69.7293 162.036 71.7031ZM275.768 80.8604C273.542 80.826 271.626 80.7112 269.87 80.5161C268.103 80.3669 266.519 80.126 264.947 79.8505C263.375 79.5866 261.826 79.2883 260.173 78.9784C258.509 78.6915 256.742 78.3932 254.722 78.1407C251.842 77.762 250.672 82.5702 253.885 83.2817C255.147 83.58 256.65 83.8784 258.291 84.1653C259.955 84.4751 261.768 84.7964 263.673 85.1177C265.578 85.439 267.586 85.7603 269.617 86.1161C271.66 86.4718 273.726 86.839 275.768 87.1948C277.799 87.5734 279.808 87.9521 281.724 88.3079C283.64 88.6865 285.453 89.0538 287.117 89.3866C290.457 90.098 293.165 90.6833 294.771 91.0619C295.219 91.016 295.471 91.739 295.265 92.4619C294.76 94.7226 294.129 96.9258 293.532 98.9914C293.291 99.8406 292.889 101.298 292.43 103.008C291.96 104.718 291.421 106.68 290.927 108.539C289.917 112.257 289.045 115.55 289.045 115.55C288.827 116.285 288.46 116.663 287.955 116.514C287.955 116.514 286.876 116.216 284.994 115.688C284.042 115.436 282.906 115.137 281.586 114.793C280.278 114.449 278.775 114.081 277.157 113.68C275.539 113.29 273.76 112.877 271.89 112.475C270.019 112.05 268.034 111.637 265.991 111.247C263.926 110.845 261.803 110.444 259.645 110.077C257.477 109.698 255.273 109.354 253.059 109.021C250.855 108.711 248.641 108.401 246.46 108.137C244.28 107.873 242.134 107.644 240.046 107.437C237.968 107.254 235.949 107.082 234.032 106.921C232.128 106.783 230.314 106.68 228.65 106.588C226.975 106.485 225.437 106.416 224.083 106.37C222.718 106.324 221.536 106.278 220.56 106.255C218.61 106.232 217.496 106.198 217.496 106.198C216.957 106.198 216.716 105.739 216.716 104.982C216.716 104.982 216.911 100.082 217.06 97.775C217.141 95.5832 217.221 93.4029 217.267 91.2226C217.324 89.0423 217.359 86.862 217.382 84.6931C217.405 82.5128 217.416 80.344 217.428 78.1751C217.439 76.0293 217.462 73.8719 217.496 71.7375C217.496 70.808 217.565 68.0539 217.657 65.3457C217.737 62.649 217.841 59.9982 217.921 59.3212C218.093 58.7245 217.795 58.0818 219.642 57.6687C221.065 57.3474 222.672 57.0605 224.382 56.8081C226.114 56.5671 227.962 56.372 229.878 56.1884C231.795 56.0392 233.78 55.913 235.777 55.8442C237.773 55.7638 239.782 55.7294 241.755 55.7294C243.718 55.7409 245.634 55.7753 247.459 55.8327C249.272 55.913 251.004 56.0048 252.565 56.1081C255.698 56.3491 258.211 56.6245 259.68 56.8769C264.109 57.7146 267.219 55.0983 266.221 52.4589C265.406 50.4508 263.467 49.5327 261.803 48.8213C261.183 48.5458 259.909 48.1672 258.234 47.7311C256.547 47.3295 254.459 46.8819 252.232 46.4803C249.995 46.0786 247.642 45.7114 245.393 45.4475C243.167 45.1836 241.078 45 239.391 44.9541C238.106 44.9196 236.27 44.9196 234.216 44.9426C232.162 44.9655 229.878 45.0114 227.71 45.0803C223.36 45.2639 219.447 45.4705 218.564 45.5393C217.933 45.6885 217.462 45.0803 217.474 44.3114C217.496 42.2803 217.508 40.2148 217.508 38.1607C217.519 36.1066 217.519 34.0296 217.542 31.9525C217.542 29.8755 217.554 27.787 217.588 25.7099C217.623 23.6329 217.657 21.5559 217.715 19.4903C217.749 16.7362 217.783 13.9592 217.806 11.2166C217.99 10.4363 218.334 9.98874 219.057 10.0002C219.057 10.0002 222.97 10.0805 228.834 10.2641C231.772 10.4019 235.203 10.574 238.864 10.815C240.7 10.9297 242.593 11.0789 244.509 11.2396C246.437 11.3887 248.388 11.5723 250.35 11.7789C252.29 11.974 254.24 12.1805 256.157 12.3871C258.062 12.6166 259.955 12.8576 261.78 13.0986C265.406 13.592 268.814 14.0854 271.717 14.5444C277.501 15.5198 281.368 16.2198 281.368 16.2198L281.54 16.2543C283.25 16.6903 285.052 17.0805 286.922 17.5166C288.804 17.9756 290.721 18.4575 292.648 19.1002C294.588 19.7542 296.539 20.546 298.432 21.5559C300.337 22.6001 302.184 23.8739 303.94 25.469C305.478 26.8804 307.429 29.8296 308.588 33.8574C309.138 35.8656 309.494 38.1492 309.506 40.6393C309.494 43.1524 309.161 45.8491 308.312 48.718C308.312 48.718 307.612 51.1507 306.924 53.5835C306.224 56.0048 305.524 58.4376 305.524 58.4376L305.478 58.5868C304.801 60.5031 304.066 62.2933 303.263 63.9572C302.46 65.6326 301.599 67.1703 300.67 68.5932C299.74 70.0162 298.753 71.3014 297.686 72.4719C296.619 73.6309 295.494 74.6866 294.278 75.6047C293.084 76.5342 291.799 77.326 290.434 78.003C289.08 78.6686 287.622 79.2309 286.085 79.6555C284.57 80.0915 282.94 80.4128 281.219 80.6079C279.498 80.8145 277.685 80.8948 275.768 80.8604ZM382.959 109.652C382.913 110.547 382.787 112.59 381.904 115.55C381.467 117.008 380.848 118.695 379.976 120.588C379.081 122.481 377.945 124.558 376.476 126.796C375.248 128.69 373.905 130.353 372.494 131.788C371.071 133.234 369.59 134.439 367.995 135.46C366.423 136.47 364.759 137.285 363.015 137.881C361.282 138.501 359.469 138.914 357.564 139.144C355.694 139.396 353.8 139.488 351.941 139.43C350.094 139.408 348.269 139.224 346.514 138.937C344.781 138.65 343.105 138.26 341.568 137.778C340.019 137.296 338.607 136.722 337.356 136.068C337.356 136.068 334.901 134.829 331.171 132.993C329.301 132.086 327.097 131.053 324.733 129.986C323.551 129.458 322.324 128.908 321.073 128.368C319.822 127.817 318.537 127.278 317.263 126.739C315.978 126.211 314.681 125.694 313.419 125.19C312.156 124.685 310.894 124.203 309.678 123.732C307.257 122.814 304.973 121.988 303.011 121.311C299.075 119.957 296.447 119.085 296.447 119.085C296.332 119.05 296.125 118.832 296.171 118.683C296.963 116.193 297.709 113.863 298.329 111.5C298.834 109.801 299.407 108.011 300.004 106.175C300.612 104.339 301.266 102.445 301.932 100.575C302.598 98.693 303.275 96.8226 303.94 95.0095C304.606 93.1849 305.26 91.4177 305.879 89.7652C305.914 89.639 306.098 89.5243 306.235 89.5587C307.842 90.0406 310.389 90.9357 313.293 91.9914C314.75 92.5423 316.276 93.139 317.848 93.7586C319.409 94.3783 320.97 95.0439 322.496 95.675C325.525 96.9832 328.348 98.257 330.402 99.198C332.456 100.173 333.753 100.793 333.753 100.793C333.753 100.793 336.209 102.113 338.974 103.375C341.728 104.66 344.792 105.877 346.1 105.498C347.833 104.97 349.646 103.306 349.52 101.206C349.405 99.4389 348.281 98.3603 347.064 97.4422C346.387 96.9488 343.817 95.6176 340.305 93.9193C338.55 93.0931 336.553 92.175 334.419 91.2226C332.296 90.316 330.047 89.3636 327.786 88.4341C325.548 87.539 323.299 86.6554 321.176 85.8521C319.042 85.0603 317.045 84.3489 315.301 83.7292C311.801 82.5358 309.356 81.721 308.955 81.5948C308.679 81.503 308.645 81.1587 308.679 81.0325C308.897 80.3555 309.242 79.2079 309.678 77.6932C310.125 76.1899 310.688 74.3194 311.296 72.185C311.915 70.0506 312.615 67.6523 313.35 65.0933C314.073 62.5343 314.876 59.8146 315.668 57.0376C316.471 54.2491 317.297 51.4262 318.112 48.6147C318.927 45.8262 319.73 43.0836 320.51 40.4787C321.291 37.8738 322.037 35.3951 322.737 33.1919C323.414 30.9771 324.056 29.0148 324.63 27.4198C324.665 27.2706 324.883 27.1788 325.032 27.2132C325.032 27.2132 326.501 27.6837 329.037 28.5099C330.299 28.946 331.848 29.4509 333.592 30.0706C335.371 30.6788 337.345 31.3788 339.502 32.1706C341.671 32.9509 343.978 33.8345 346.433 34.7754C348.889 35.7394 351.459 36.7607 354.11 37.8508C356.75 38.9639 359.481 40.1344 362.235 41.3393C364.977 42.5787 367.766 43.8524 370.52 45.1606C373.286 46.4688 376.028 47.8114 378.713 49.154C381.399 50.5311 384.026 51.8852 386.562 53.2278C389.087 54.5933 391.497 55.9245 393.815 57.2212C396.087 58.5294 398.233 59.7572 400.218 60.9392C402.192 62.0982 403.982 63.1998 405.577 64.1752C407.161 65.1507 408.538 66.0113 409.674 66.7342C411.923 68.1572 413.208 68.9834 413.208 68.9834C413.357 69.0867 413.415 69.3162 413.323 69.4539C412.451 70.8768 411.097 72.9194 409.571 75.203C408.033 77.5096 406.3 80.0456 404.636 82.4899C402.984 84.9226 401.389 87.2521 400.126 89.1226C398.864 91.0046 397.935 92.416 397.602 93.0127C397.43 93.2767 397.2 93.3226 396.936 93.1505C395.559 92.3013 393.918 91.3029 392.105 90.2128C390.28 89.1226 388.261 87.9292 386.172 86.6898C384.026 85.4849 381.812 84.2341 379.574 82.9948C377.336 81.7784 375.064 80.562 372.884 79.4145C370.669 78.2784 368.546 77.1883 366.584 76.2014C364.61 75.2375 362.82 74.3768 361.282 73.6194C358.195 72.1735 356.153 71.2326 355.889 71.1063C353.536 70.0277 352.4 70.5211 351.138 73.3096C350.381 74.985 350.553 75.9489 351.643 76.8784C352.756 77.8079 354.787 78.726 357.725 80.3096C360.353 81.7784 363.038 83.121 365.861 84.5899C367.949 85.7259 369.774 86.9193 371.392 88.1357C372.999 89.3521 374.387 90.6029 375.581 91.8423C377.933 94.3324 379.528 96.7996 380.618 99.1062C381.674 101.413 382.236 103.536 382.546 105.326C382.844 107.127 382.89 108.608 382.959 109.652Z" fill="#FFD6BA"/>
<path d="M101.102 96.5127C99.2317 97.7176 97.5793 98.693 96.0186 99.5078C94.4695 100.368 93.0121 101.057 91.5547 101.7C90.1088 102.354 88.6515 102.973 87.1023 103.639C85.5646 104.327 83.9236 105.073 82.122 105.991C79.5286 107.277 81.2155 111.913 84.3023 110.731C85.5072 110.26 86.9187 109.675 88.4449 108.998C89.9941 108.332 91.681 107.575 93.4367 106.783C95.2039 105.98 97.0514 105.142 98.9334 104.293C100.815 103.467 102.743 102.606 104.637 101.768C106.542 100.942 108.412 100.139 110.202 99.3701C112.004 98.6127 113.702 97.9012 115.286 97.2586C118.453 95.9734 121.023 94.9521 122.573 94.3668C122.917 94.0914 123.514 94.5504 123.755 95.2619C124.592 97.4078 125.304 99.5996 125.958 101.642C126.222 102.48 126.704 103.926 127.277 105.601C127.84 107.288 128.505 109.204 129.125 111.029C130.364 114.667 131.466 117.891 131.466 117.891C131.707 118.637 131.604 119.154 131.099 119.303C131.099 119.303 130.043 119.647 128.195 120.278C127.266 120.588 126.141 120.967 124.856 121.414C123.559 121.885 122.125 122.39 120.553 122.963C118.992 123.56 117.294 124.203 115.504 124.903C113.725 125.603 111.855 126.383 109.927 127.186C107.999 128.001 106.014 128.85 104.005 129.745C102.009 130.652 99.9891 131.593 97.958 132.545C95.9498 133.509 93.9416 134.496 91.9908 135.494C90.0285 136.504 88.1236 137.491 86.2646 138.489C84.4286 139.488 82.6614 140.486 80.9974 141.404C79.3335 142.38 77.7729 143.275 76.327 144.135C74.8926 145.007 73.5844 145.788 72.4254 146.511C71.2664 147.234 70.268 147.865 69.4303 148.381C67.7893 149.437 66.8713 150.057 66.8713 150.057C66.4238 150.332 65.9648 150.091 65.5287 149.46C65.5287 149.46 62.9467 145.283 61.7992 143.286C60.6517 141.416 59.4927 139.568 58.3222 137.732C57.1402 135.896 55.9583 134.071 54.7648 132.258C53.5714 130.434 52.378 128.621 51.1731 126.819C49.9911 125.029 48.8091 123.227 47.6272 121.449C47.1223 120.668 45.642 118.327 44.2075 116.044C42.7731 113.76 41.3961 111.511 41.0748 110.88C40.8682 110.306 40.283 109.927 41.5682 108.562C42.5895 107.495 43.76 106.359 45.0452 105.2C46.3419 104.029 47.7649 102.836 49.2567 101.619C50.7714 100.426 52.3435 99.2209 53.9616 98.0389C55.5681 96.857 57.2206 95.7209 58.8501 94.6078C60.4795 93.5291 62.0861 92.4964 63.6353 91.521C65.2074 90.5685 66.6877 89.6849 68.0303 88.9046C70.7729 87.3554 73.0221 86.1849 74.3647 85.5653C78.5188 83.7751 79.6548 79.8964 77.3139 78.2555C75.5467 77.062 73.4008 77.3719 71.645 77.6932C70.9795 77.8079 69.7057 78.2096 68.0762 78.7833C66.4467 79.3915 64.4615 80.1833 62.3845 81.0899C60.3189 81.9964 58.1386 83.0177 56.1419 84.039C54.1452 85.0718 52.2976 86.0931 50.8747 86.9767C49.8075 87.6767 48.2813 88.698 46.5714 89.8685C44.8846 91.039 43.0141 92.3472 41.2469 93.6095C37.7469 96.1799 34.6256 98.5553 33.9371 99.0832C33.4896 99.5652 32.7437 99.3242 32.3306 98.6816C31.2175 96.9832 30.0814 95.2619 28.9339 93.5521C27.7863 91.8423 26.6388 90.121 25.4913 88.3882C24.3323 86.6669 23.1847 84.9112 22.0601 83.1784C20.9126 81.4341 19.7995 79.6899 18.6979 77.9456C17.1831 75.6391 15.6569 73.3326 14.1766 71.026C13.8782 70.2916 13.9356 69.6949 14.5209 69.3162C14.5209 69.3162 17.8028 67.1933 22.7831 64.0834C25.2847 62.5457 28.2339 60.7785 31.4125 58.9425C33.0076 58.0245 34.6601 57.0835 36.324 56.1425C38.0223 55.2015 39.7436 54.272 41.4649 53.3311C43.1977 52.413 44.9305 51.495 46.6403 50.5999C48.3616 49.7393 50.0485 48.8672 51.7009 48.0639C54.9943 46.4459 58.0927 44.9541 60.755 43.7147C66.1025 41.2934 69.7057 39.7213 69.7057 39.7213L69.8434 39.6525C71.5188 39.0557 73.2516 38.3787 75.0417 37.7017C76.8548 37.0361 78.7253 36.3705 80.6761 35.8312C82.6499 35.2804 84.704 34.8558 86.8499 34.6377C89.0072 34.4427 91.2449 34.4771 93.5974 34.8099C95.64 35.1427 98.9219 36.4853 102.135 39.182C103.719 40.5475 105.279 42.2459 106.679 44.3114C108.068 46.3885 109.296 48.8213 110.191 51.6786C110.191 51.6786 110.982 54.0884 111.751 56.4868C112.532 58.8966 113.289 61.3064 113.289 61.3064L113.335 61.4556C113.84 63.4179 114.241 65.3113 114.494 67.1474C114.769 68.9719 114.919 70.7391 114.93 72.4375C114.953 74.1244 114.861 75.7539 114.62 77.326C114.391 78.8751 114.035 80.3784 113.541 81.8243C113.06 83.2587 112.44 84.6243 111.682 85.9554C110.937 87.2636 110.042 88.5374 108.997 89.7538C107.976 90.9701 106.805 92.1406 105.486 93.2537C104.166 94.3898 102.72 95.4685 101.102 96.5127ZM208.683 39.7328C208.718 41.6721 208.752 44.0705 208.798 46.6639C208.833 49.2688 208.89 52.0917 208.936 54.9147C208.982 57.7376 209.028 60.572 209.051 63.1884C209.108 65.8162 209.142 68.226 209.177 70.2227C209.211 72.208 209.108 74.0211 208.901 75.7079C208.695 77.4292 208.374 79.0014 207.972 80.5046C207.57 82.0079 207.077 83.4423 206.515 84.8423C205.952 86.2538 205.321 87.6193 204.633 89.0193C203.542 91.521 202.165 93.7587 200.593 95.7439C199.044 97.7406 197.3 99.4848 195.464 100.988C193.329 102.755 191.344 104.385 188.934 105.659C187.741 106.301 186.433 106.852 184.964 107.311C183.484 107.77 181.831 108.126 179.938 108.367C179.456 108.436 178.182 108.596 176.53 108.814C174.877 109.067 172.869 109.365 170.895 109.675C168.91 110.019 166.982 110.352 165.502 110.604C164.033 110.891 163.012 111.086 162.84 111.109C161.095 111.304 159.317 111.27 157.561 111.075C155.805 110.88 154.072 110.513 152.397 110.031C150.71 109.549 149.104 108.941 147.6 108.241C146.097 107.552 144.697 106.772 143.481 105.945C142.425 105.234 141.209 104.178 139.946 102.916C138.672 101.654 137.364 100.185 136.125 98.6357C134.886 97.0865 133.715 95.457 132.751 93.8619C131.799 92.2669 131.053 90.6947 130.64 89.3177C130.238 87.9062 129.515 85.462 128.62 82.4325C128.184 80.9177 127.691 79.2538 127.197 77.5096C126.681 75.7768 126.141 73.9408 125.602 72.0817C125.063 70.2342 124.512 68.3637 123.984 66.5162C123.456 64.6802 122.928 62.8671 122.412 61.1687C121.425 57.7491 120.53 54.7196 119.899 52.5393C119.268 50.3704 118.878 48.2819 118.694 46.3196C118.522 44.3344 118.545 42.4524 118.751 40.7082C118.958 38.941 119.348 37.2885 119.876 35.7738C120.415 34.2591 121.092 32.8705 121.873 31.6312C123.192 29.5427 124.5 27.787 125.866 26.2837C127.232 24.7804 128.666 23.5296 130.227 22.428C131.776 21.3493 133.463 20.4198 135.322 19.5821C137.192 18.7444 139.258 17.9985 141.587 17.2411C141.656 17.2297 143.148 16.9198 145.466 16.4838C147.795 16.0362 150.951 15.4739 154.382 14.8772C156.103 14.5903 157.894 14.3149 159.684 14.051C161.474 13.7756 163.264 13.5117 164.997 13.2936C168.428 12.8346 171.561 12.4559 173.856 12.192C176.128 11.951 178.331 11.8592 180.443 11.9395C182.566 12.0428 184.597 12.3068 186.582 12.7543C188.533 13.2133 190.392 13.8559 192.216 14.7051C194.041 15.5543 195.751 16.5985 197.426 17.8723C199.044 19.1346 200.536 20.6378 201.924 22.3018C203.267 23.9657 204.461 25.8017 205.459 27.7181C206.446 29.6345 207.238 31.6427 207.8 33.6623C208.339 35.705 208.638 37.7361 208.683 39.7328ZM162.036 71.7031C162.69 75.5473 163.643 77.8194 164.79 79.1047C165.938 80.3669 167.292 80.6309 168.795 80.3899C172.651 79.8276 172.548 75.0424 172.215 72.5981C171.962 70.7047 171.71 68.6851 171.457 66.631C171.216 64.5769 170.975 62.4884 170.735 60.4802C170.494 58.4605 170.253 56.5097 170.012 54.7311C169.771 52.9409 169.507 51.3344 169.254 49.9803C168.841 47.559 168.348 45.4934 167.43 44.1164C166.477 42.7279 165.112 42.0508 162.954 42.3721C160.223 42.8197 158.949 44.3688 158.421 46.136C157.905 47.8918 158.123 49.8311 158.318 51.036C158.662 52.5278 159.248 55.7409 159.925 59.5507C160.269 61.4441 160.613 63.4982 160.969 65.5752C161.336 67.6523 161.692 69.7293 162.036 71.7031ZM275.768 80.8604C273.542 80.826 271.626 80.7112 269.87 80.5161C268.103 80.3669 266.519 80.126 264.947 79.8505C263.375 79.5866 261.826 79.2883 260.173 78.9784C258.509 78.6915 256.742 78.3932 254.722 78.1407C251.842 77.762 250.672 82.5702 253.885 83.2817C255.147 83.58 256.65 83.8784 258.291 84.1653C259.955 84.4751 261.768 84.7964 263.673 85.1177C265.578 85.439 267.586 85.7603 269.617 86.1161C271.66 86.4718 273.726 86.839 275.768 87.1948C277.799 87.5734 279.808 87.9521 281.724 88.3079C283.64 88.6865 285.453 89.0538 287.117 89.3866C290.457 90.098 293.165 90.6833 294.771 91.0619C295.219 91.016 295.471 91.739 295.265 92.4619C294.76 94.7226 294.129 96.9258 293.532 98.9914C293.291 99.8406 292.889 101.298 292.43 103.008C291.96 104.718 291.421 106.68 290.927 108.539C289.917 112.257 289.045 115.55 289.045 115.55C288.827 116.285 288.46 116.663 287.955 116.514C287.955 116.514 286.876 116.216 284.994 115.688C284.042 115.436 282.906 115.137 281.586 114.793C280.278 114.449 278.775 114.081 277.157 113.68C275.539 113.29 273.76 112.877 271.89 112.475C270.019 112.05 268.034 111.637 265.991 111.247C263.926 110.845 261.803 110.444 259.645 110.077C257.477 109.698 255.273 109.354 253.059 109.021C250.855 108.711 248.641 108.401 246.46 108.137C244.28 107.873 242.134 107.644 240.046 107.437C237.968 107.254 235.949 107.082 234.032 106.921C232.128 106.783 230.314 106.68 228.65 106.588C226.975 106.485 225.437 106.416 224.083 106.37C222.718 106.324 221.536 106.278 220.56 106.255C218.61 106.232 217.496 106.198 217.496 106.198C216.957 106.198 216.716 105.739 216.716 104.982C216.716 104.982 216.911 100.082 217.06 97.775C217.141 95.5832 217.221 93.4029 217.267 91.2226C217.324 89.0423 217.359 86.862 217.382 84.6931C217.405 82.5128 217.416 80.344 217.428 78.1751C217.439 76.0293 217.462 73.8719 217.496 71.7375C217.496 70.808 217.565 68.0539 217.657 65.3457C217.737 62.649 217.841 59.9982 217.921 59.3212C218.093 58.7245 217.795 58.0818 219.642 57.6687C221.065 57.3474 222.672 57.0605 224.382 56.8081C226.114 56.5671 227.962 56.372 229.878 56.1884C231.795 56.0392 233.78 55.913 235.777 55.8442C237.773 55.7638 239.782 55.7294 241.755 55.7294C243.718 55.7409 245.634 55.7753 247.459 55.8327C249.272 55.913 251.004 56.0048 252.565 56.1081C255.698 56.3491 258.211 56.6245 259.68 56.8769C264.109 57.7146 267.219 55.0983 266.221 52.4589C265.406 50.4508 263.467 49.5327 261.803 48.8213C261.183 48.5458 259.909 48.1672 258.234 47.7311C256.547 47.3295 254.459 46.8819 252.232 46.4803C249.995 46.0786 247.642 45.7114 245.393 45.4475C243.167 45.1836 241.078 45 239.391 44.9541C238.106 44.9196 236.27 44.9196 234.216 44.9426C232.162 44.9655 229.878 45.0114 227.71 45.0803C223.36 45.2639 219.447 45.4705 218.564 45.5393C217.933 45.6885 217.462 45.0803 217.474 44.3114C217.496 42.2803 217.508 40.2148 217.508 38.1607C217.519 36.1066 217.519 34.0296 217.542 31.9525C217.542 29.8755 217.554 27.787 217.588 25.7099C217.623 23.6329 217.657 21.5559 217.715 19.4903C217.749 16.7362 217.783 13.9592 217.806 11.2166C217.99 10.4363 218.334 9.98874 219.057 10.0002C219.057 10.0002 222.97 10.0805 228.834 10.2641C231.772 10.4019 235.203 10.574 238.864 10.815C240.7 10.9297 242.593 11.0789 244.509 11.2396C246.437 11.3887 248.388 11.5723 250.35 11.7789C252.29 11.974 254.24 12.1805 256.157 12.3871C258.062 12.6166 259.955 12.8576 261.78 13.0986C265.406 13.592 268.814 14.0854 271.717 14.5444C277.501 15.5198 281.368 16.2198 281.368 16.2198L281.54 16.2543C283.25 16.6903 285.052 17.0805 286.922 17.5166C288.804 17.9756 290.721 18.4575 292.648 19.1002C294.588 19.7542 296.539 20.546 298.432 21.5559C300.337 22.6001 302.184 23.8739 303.94 25.469C305.478 26.8804 307.429 29.8296 308.588 33.8574C309.138 35.8656 309.494 38.1492 309.506 40.6393C309.494 43.1524 309.161 45.8491 308.312 48.718C308.312 48.718 307.612 51.1507 306.924 53.5835C306.224 56.0048 305.524 58.4376 305.524 58.4376L305.478 58.5868C304.801 60.5031 304.066 62.2933 303.263 63.9572C302.46 65.6326 301.599 67.1703 300.67 68.5932C299.74 70.0162 298.753 71.3014 297.686 72.4719C296.619 73.6309 295.494 74.6866 294.278 75.6047C293.084 76.5342 291.799 77.326 290.434 78.003C289.08 78.6686 287.622 79.2309 286.085 79.6555C284.57 80.0915 282.94 80.4128 281.219 80.6079C279.498 80.8145 277.685 80.8948 275.768 80.8604ZM382.959 109.652C382.913 110.547 382.787 112.59 381.904 115.55C381.467 117.008 380.848 118.695 379.976 120.588C379.081 122.481 377.945 124.558 376.476 126.796C375.248 128.69 373.905 130.353 372.494 131.788C371.071 133.234 369.59 134.439 367.995 135.46C366.423 136.47 364.759 137.285 363.015 137.881C361.282 138.501 359.469 138.914 357.564 139.144C355.694 139.396 353.8 139.488 351.941 139.43C350.094 139.408 348.269 139.224 346.514 138.937C344.781 138.65 343.105 138.26 341.568 137.778C340.019 137.296 338.607 136.722 337.356 136.068C337.356 136.068 334.901 134.829 331.171 132.993C329.301 132.086 327.097 131.053 324.733 129.986C323.551 129.458 322.324 128.908 321.073 128.368C319.822 127.817 318.537 127.278 317.263 126.739C315.978 126.211 314.681 125.694 313.419 125.19C312.156 124.685 310.894 124.203 309.678 123.732C307.257 122.814 304.973 121.988 303.011 121.311C299.075 119.957 296.447 119.085 296.447 119.085C296.332 119.05 296.125 118.832 296.171 118.683C296.963 116.193 297.709 113.863 298.329 111.5C298.834 109.801 299.407 108.011 300.004 106.175C300.612 104.339 301.266 102.445 301.932 100.575C302.598 98.693 303.275 96.8226 303.94 95.0095C304.606 93.1849 305.26 91.4177 305.879 89.7652C305.914 89.639 306.098 89.5243 306.235 89.5587C307.842 90.0406 310.389 90.9357 313.293 91.9914C314.75 92.5423 316.276 93.139 317.848 93.7586C319.409 94.3783 320.97 95.0439 322.496 95.675C325.525 96.9832 328.348 98.257 330.402 99.198C332.456 100.173 333.753 100.793 333.753 100.793C333.753 100.793 336.209 102.113 338.974 103.375C341.728 104.66 344.792 105.877 346.1 105.498C347.833 104.97 349.646 103.306 349.52 101.206C349.405 99.4389 348.281 98.3603 347.064 97.4422C346.387 96.9488 343.817 95.6176 340.305 93.9193C338.55 93.0931 336.553 92.175 334.419 91.2226C332.296 90.316 330.047 89.3636 327.786 88.4341C325.548 87.539 323.299 86.6554 321.176 85.8521C319.042 85.0603 317.045 84.3489 315.301 83.7292C311.801 82.5358 309.356 81.721 308.955 81.5948C308.679 81.503 308.645 81.1587 308.679 81.0325C308.897 80.3555 309.242 79.2079 309.678 77.6932C310.125 76.1899 310.688 74.3194 311.296 72.185C311.915 70.0506 312.615 67.6523 313.35 65.0933C314.073 62.5343 314.876 59.8146 315.668 57.0376C316.471 54.2491 317.297 51.4262 318.112 48.6147C318.927 45.8262 319.73 43.0836 320.51 40.4787C321.291 37.8738 322.037 35.3951 322.737 33.1919C323.414 30.9771 324.056 29.0148 324.63 27.4198C324.665 27.2706 324.883 27.1788 325.032 27.2132C325.032 27.2132 326.501 27.6837 329.037 28.5099C330.299 28.946 331.848 29.4509 333.592 30.0706C335.371 30.6788 337.345 31.3788 339.502 32.1706C341.671 32.9509 343.978 33.8345 346.433 34.7754C348.889 35.7394 351.459 36.7607 354.11 37.8508C356.75 38.9639 359.481 40.1344 362.235 41.3393C364.977 42.5787 367.766 43.8524 370.52 45.1606C373.286 46.4688 376.028 47.8114 378.713 49.154C381.399 50.5311 384.026 51.8852 386.562 53.2278C389.087 54.5933 391.497 55.9245 393.815 57.2212C396.087 58.5294 398.233 59.7572 400.218 60.9392C402.192 62.0982 403.982 63.1998 405.577 64.1752C407.161 65.1507 408.538 66.0113 409.674 66.7342C411.923 68.1572 413.208 68.9834 413.208 68.9834C413.357 69.0867 413.415 69.3162 413.323 69.4539C412.451 70.8768 411.097 72.9194 409.571 75.203C408.033 77.5096 406.3 80.0456 404.636 82.4899C402.984 84.9226 401.389 87.2521 400.126 89.1226C398.864 91.0046 397.935 92.416 397.602 93.0127C397.43 93.2767 397.2 93.3226 396.936 93.1505C395.559 92.3013 393.918 91.3029 392.105 90.2128C390.28 89.1226 388.261 87.9292 386.172 86.6898C384.026 85.4849 381.812 84.2341 379.574 82.9948C377.336 81.7784 375.064 80.562 372.884 79.4145C370.669 78.2784 368.546 77.1883 366.584 76.2014C364.61 75.2375 362.82 74.3768 361.282 73.6194C358.195 72.1735 356.153 71.2326 355.889 71.1063C353.536 70.0277 352.4 70.5211 351.138 73.3096C350.381 74.985 350.553 75.9489 351.643 76.8784C352.756 77.8079 354.787 78.726 357.725 80.3096C360.353 81.7784 363.038 83.121 365.861 84.5899C367.949 85.7259 369.774 86.9193 371.392 88.1357C372.999 89.3521 374.387 90.6029 375.581 91.8423C377.933 94.3324 379.528 96.7996 380.618 99.1062C381.674 101.413 382.236 103.536 382.546 105.326C382.844 107.127 382.89 108.608 382.959 109.652Z" stroke="white" stroke-width="19.0332" mask="url(#path-1-outside-1_82_16)"/>
</g>
<defs>
<filter id="filter0_d_82_16" x="0.252821" y="0.483459" width="426.858" height="167.662" filterUnits="userSpaceOnUse" color-interpolation-filters="sRGB">
<feFlood flood-opacity="0" result="BackgroundImageFix"/>
<feColorMatrix in="SourceAlpha" type="matrix" values="0 0 0 0 0 0 0 0 0 0 0 0 0 0 0 0 0 0 127 0" result="hardAlpha"/>
<feOffset dy="4.2296"/>
<feGaussianBlur stdDeviation="2.1148"/>
<feComposite in2="hardAlpha" operator="out"/>
<feColorMatrix type="matrix" values="0 0 0 0 0 0 0 0 0 0 0 0 0 0 0 0 0 0 0.25 0"/>
<feBlend mode="normal" in2="BackgroundImageFix" result="effect1_dropShadow_82_16"/>
<feBlend mode="normal" in="SourceGraphic" in2="effect1_dropShadow_82_16" result="shape"/>
</filter>
</defs>
</svg>
