<svg width="121" height="45" viewBox="0 0 121 45" fill="none" xmlns="http://www.w3.org/2000/svg">
<g filter="url(#filter0_d_82_126)">
<mask id="path-1-outside-1_82_126" maskUnits="userSpaceOnUse" x="0" y="0" width="121" height="32" fill="black">
<rect fill="white" width="121" height="32"/>
<path d="M18.0424 20.3108L18.6136 21.6995C18.786 22.1132 18.8254 22.5195 18.8131 22.8691C18.8032 23.2163 18.7417 23.5069 18.6949 23.6866C18.5349 24.3786 18.099 24.844 17.9537 25.0557C17.5598 25.6294 16.8014 25.9939 16.6019 26.0801C16.6019 26.0801 16.1193 26.2992 15.3953 26.6366C15.0358 26.804 14.6148 27.001 14.1691 27.2177C13.7209 27.4319 13.2432 27.6658 12.7705 27.9022C12.2928 28.1386 11.82 28.3774 11.3792 28.6064C10.9385 28.8354 10.5273 29.0521 10.1751 29.2393C9.47337 29.616 9.00799 29.8696 9.00799 29.8696C8.93165 29.909 8.85778 29.845 8.80607 29.7687C8.71989 29.5471 8.53275 29.1531 8.29637 28.6705C8.05998 28.1878 7.76942 27.6166 7.46901 27.0428C7.16861 26.4691 6.85835 25.8929 6.58256 25.3931C6.30924 24.8957 6.07039 24.4771 5.9128 24.2234C5.75521 23.9575 5.51636 23.5537 5.24304 23.0809C4.97218 22.6131 4.66439 22.0763 4.36398 21.5592C4.06603 21.0396 3.77794 20.5348 3.54155 20.1261C3.31009 19.7173 3.13034 19.4021 3.054 19.2593C2.91119 18.9737 2.66741 18.5058 2.45319 18.102C2.23896 17.7007 2.05182 17.3608 2.01981 17.3288C1.97549 17.2476 2.0075 17.1491 2.09615 17.0998C2.09615 17.0998 2.62555 16.8142 3.4209 16.3882C3.8198 16.1765 4.28518 15.9302 4.7875 15.6717C5.28983 15.4107 5.82908 15.1398 6.36834 14.8714C6.91006 14.603 7.44931 14.3371 7.95902 14.0908C8.47119 13.8495 8.94643 13.623 9.35764 13.4309C10.1776 13.0566 10.7292 12.8055 10.7292 12.8055C11.0394 12.6676 11.4531 12.5174 11.852 12.4238C12.2534 12.3278 12.64 12.281 12.8985 12.3302C13.2482 12.3943 13.6865 12.4657 14.1371 12.7538C14.3636 12.8991 14.5902 13.0985 14.8118 13.3792C15.0309 13.6624 15.2427 14.0219 15.4372 14.4897C15.6317 14.9625 15.7056 15.3565 15.7105 15.7037C15.7179 16.0484 15.6588 16.3513 15.5849 16.6295C15.4372 17.2451 15.0999 17.6416 14.8192 17.9887C14.6197 18.2251 14.504 18.4812 14.9226 18.5231C15.3683 18.5526 15.7696 18.3803 16.528 18.6881C16.858 18.8284 17.1436 19.0057 17.3948 19.2642C17.6435 19.5253 17.8577 19.8601 18.0424 20.3108ZM13.2974 24.7922C13.4205 24.2234 13.0413 23.7359 12.7976 23.268C12.5587 22.7682 12.2903 22.1009 11.6378 22.0024C11.5048 21.9876 11.3423 22.0172 11.229 22.0984C11.0444 22.192 11.0517 22.3127 11.165 22.4899C11.3398 22.8273 11.6205 23.5167 11.9013 24.1323C12.1795 24.7504 12.4553 25.2896 12.6227 25.3266C12.9872 25.3758 13.2457 25.0976 13.2974 24.7922ZM10.4263 19.5425C10.9631 18.9762 10.5445 18.203 10.286 17.6588C10.0373 17.1417 9.82303 16.6295 9.22714 16.3784C9.02522 16.2946 8.77899 16.3365 8.63371 16.5335C8.5229 16.6394 8.49582 16.8044 8.57954 16.9201C8.83316 17.4101 9.0203 17.8287 9.20251 18.2473C9.38473 18.6684 9.56202 19.0993 9.78855 19.6139C9.86981 19.8331 10.2539 19.7222 10.4263 19.5425ZM28.3375 6.44767C28.3646 6.45998 28.3867 6.45506 28.4188 6.4723C28.5714 6.93276 28.6404 7.19869 28.7142 7.53604C28.793 7.87338 28.8792 8.27228 29.0688 8.99621C29.1673 9.35326 29.4948 10.1732 29.613 10.5229C29.645 10.6337 29.5835 10.7716 29.4628 10.779C29.0811 10.875 28.6256 10.9833 28.1479 11.0991C27.6751 11.2123 27.1753 11.3305 26.7025 11.4463C26.2297 11.5669 25.7816 11.6826 25.4024 11.7836C25.0256 11.8919 24.7178 11.9806 24.5282 12.052C23.9717 12.2441 23.4596 12.4411 23.1148 12.6528C22.7701 12.8695 22.5879 13.101 22.679 13.3743C22.8637 13.8988 23.2749 13.8077 23.5113 13.7732C23.9323 13.7042 24.2254 13.6156 24.5356 13.5048C24.8434 13.3989 25.1734 13.2709 25.6708 13.1379C26.1731 13.0172 26.6779 12.9138 27.1827 12.8941C27.6801 12.8744 28.175 12.9385 28.6527 13.1502C29.0368 13.325 29.5096 13.5196 29.9824 14.0244C30.2187 14.278 30.4527 14.6079 30.6767 15.0487C30.9008 15.4944 31.1175 16.0533 31.3145 16.76C31.3711 16.9718 31.4278 17.3091 31.4327 17.7204C31.4376 18.1316 31.3908 18.6191 31.2382 19.1288C31.1741 19.3504 31.0289 19.6385 30.822 19.9266C30.6127 20.2172 30.3394 20.5077 30.0218 20.7318C29.6179 21.0125 29.1501 21.2218 28.729 21.3819C28.3129 21.5444 27.9435 21.6552 27.7416 21.7315C27.6628 21.7562 27.2024 21.9113 26.5523 22.1304C26.2273 22.2412 25.8554 22.3693 25.4639 22.5072C25.0724 22.6451 24.6587 22.7953 24.2475 22.9455C23.8388 23.0932 23.4325 23.2459 23.0533 23.3887C22.6741 23.534 22.322 23.6669 22.0216 23.7876C21.4232 24.024 21.0243 24.1816 21.0243 24.1816C20.948 24.2136 20.8396 24.184 20.7978 24.0757C20.6377 23.7384 20.522 23.3862 20.4284 23.0292C20.2831 22.5884 20.1132 22.16 19.9359 21.734C19.7586 21.308 19.5715 20.8845 19.3991 20.4585C19.3573 20.3502 19.4238 20.2221 19.5272 20.1802C19.9852 20.0497 20.8889 19.7001 21.0538 19.6361C21.273 19.577 21.5833 19.476 21.9378 19.3504C22.2924 19.2249 22.6913 19.0746 23.0853 18.9195C23.4793 18.7669 23.8683 18.6019 24.2057 18.4517C24.5405 18.3015 24.8262 18.1587 25.0084 18.0429C25.2571 17.8632 25.3876 17.6219 25.3014 17.287C25.2128 16.9496 24.7523 16.9964 24.2451 17.154C23.7378 17.3141 23.1838 17.5874 22.8982 17.7007C22.4451 17.8878 21.992 18.0405 21.5365 18.1193C21.076 18.203 20.6131 18.2104 20.1354 18.1119C19.7685 18.0281 19.4164 17.873 19.0864 17.6736C18.7589 17.4741 18.4536 17.2303 18.2 16.9595C17.9537 16.6886 17.7444 16.3907 17.5671 16.0706C17.3923 15.7529 17.2495 15.4107 17.1412 15.0585C17.0328 14.7015 16.9565 14.3346 16.9171 13.9603C16.8752 13.5885 16.8678 13.2093 16.8949 12.835C16.9195 12.4017 17.0057 11.9757 17.1633 11.5768C17.3258 11.1779 17.5622 10.8036 17.8799 10.4736C18.136 10.2151 18.4167 9.95653 18.7269 9.72753C19.0347 9.50346 19.3671 9.30893 19.7242 9.18089C19.7242 9.18089 20.2585 8.99129 21.0588 8.71058C21.4577 8.57515 21.9255 8.4151 22.4278 8.24766C22.9302 8.08268 23.4694 7.90785 24.0062 7.73549C24.543 7.56558 25.0847 7.39814 25.5895 7.24055C26.0968 7.09281 26.572 6.94999 26.9758 6.83426C27.7933 6.60034 28.3375 6.44767 28.3375 6.44767ZM44.4315 11.6063C44.4512 11.7861 44.4856 12.084 44.53 12.446C44.5718 12.8079 44.6235 13.2364 44.6851 13.6772C44.7467 14.1179 44.8107 14.571 44.8796 14.9797C44.9461 15.391 45.02 15.7628 45.0889 16.041L45.2958 17.4298C45.3105 17.5455 45.2367 17.6489 45.1308 17.6637C45.1308 17.6637 44.8156 17.7154 44.3478 17.7844C43.8774 17.8607 43.252 17.9641 42.629 18.07C42.0036 18.1808 41.3831 18.2941 40.9152 18.3827C40.4498 18.4738 40.1371 18.5329 40.1371 18.5329C39.4624 18.6684 38.8838 18.7496 38.3815 18.7866C37.8816 18.8284 37.4605 18.826 37.0986 18.7989C36.3771 18.7472 35.9117 18.592 35.5768 18.4689C35.2346 18.3532 34.8751 18.203 34.5426 18.0208C34.2053 17.841 33.8975 17.6268 33.6513 17.3805C33.1169 16.861 32.75 16.3734 32.489 15.8933C32.2256 15.4131 32.0655 14.9403 31.9399 14.4627C31.9399 14.4627 31.7602 13.7904 31.5854 13.1231C31.4056 12.4558 31.2283 11.7861 31.2283 11.7861C31.2234 11.7639 31.4819 12.7464 31.216 11.7393C31.0855 11.2493 30.9993 10.7593 30.9501 10.289C30.9057 9.81618 30.8984 9.36557 30.9254 8.95435C30.9698 8.54806 31.0904 8.15901 31.2628 7.78473C31.4327 7.41045 31.6543 7.05095 31.8956 6.70868C32.0828 6.42797 32.3487 6.17435 32.6663 5.94289C32.984 5.71143 33.3607 5.50459 33.7645 5.31991C34.1708 5.1377 34.6067 4.97764 35.0573 4.83975C35.5054 4.70432 35.961 4.59105 36.4091 4.49748C36.4091 4.49748 36.8056 4.41869 37.4039 4.29803C37.7019 4.2414 38.0515 4.16999 38.4258 4.10104C38.8001 4.0321 39.199 3.95577 39.6003 3.88682C40.0017 3.81541 40.4031 3.74646 40.7798 3.67998C41.1541 3.61596 41.5062 3.56179 41.8041 3.51008C42.4074 3.41897 42.8112 3.35495 42.8112 3.35495C42.9344 3.33771 43.2298 3.50023 43.2471 3.61842L43.4219 4.80774C43.4391 4.91855 43.4318 5.03674 43.4515 5.17463C43.4515 5.31499 43.4933 5.63017 43.55 6.02661C43.6091 6.42059 43.6854 6.89828 43.7593 7.35628C43.9119 8.27228 44.0621 9.11687 44.0621 9.11687C44.0794 9.23506 43.9981 9.34094 43.8824 9.35818C43.7248 9.37542 43.3333 9.43944 42.826 9.52808C42.3188 9.61919 41.6958 9.73738 41.0802 9.85804C40.4671 9.98116 39.8589 10.1067 39.3763 10.2077C38.8961 10.3111 38.5391 10.385 38.4307 10.4022C37.5418 10.5795 37.266 11.205 37.3448 11.5669C37.4335 11.8747 37.6846 12.18 37.9653 12.2884C38.5415 12.4706 38.7434 12.4312 39.3369 12.3647C39.5634 12.3426 39.9771 12.2712 40.4695 12.18C40.9596 12.0914 41.5308 11.9831 42.075 11.8772C42.6216 11.7762 43.1412 11.6753 43.5303 11.6014C43.9218 11.53 44.1779 11.4807 44.2025 11.4758C44.2936 11.4635 44.3921 11.5201 44.4315 11.6063ZM58.1148 2.00558C58.137 2.02774 58.1641 2.02774 58.1862 2.0499C58.2256 2.53498 58.2281 2.81323 58.2207 3.1555C58.2133 3.50023 58.1985 3.90898 58.2059 4.66C58.2158 5.02935 58.3315 5.90349 58.366 6.27038C58.366 6.38611 58.2773 6.50677 58.1591 6.48461C57.7602 6.48215 57.2948 6.47722 56.8048 6.4723C56.3173 6.46737 55.8027 6.46245 55.3176 6.45998C54.83 6.46245 54.3671 6.46737 53.9756 6.4723C53.5816 6.48461 53.2615 6.49692 53.062 6.51908C52.4735 6.57325 51.9318 6.63727 51.5428 6.76039C51.1562 6.88843 50.9223 7.07065 50.9493 7.35382C50.9961 7.91031 51.4221 7.9177 51.6585 7.94479C52.0845 7.97926 52.3898 7.96202 52.7149 7.93248C53.0399 7.90293 53.392 7.86353 53.9066 7.84875C54.4213 7.85368 54.9384 7.8783 55.4308 7.97926C55.9208 8.08268 56.3838 8.26736 56.795 8.585C57.1299 8.84847 57.5386 9.1538 57.8735 9.75708C58.0409 10.06 58.1887 10.4367 58.2995 10.9193C58.4078 11.4069 58.4842 12.0003 58.5014 12.7316C58.5063 12.9508 58.4817 13.2955 58.3857 13.6944C58.2921 14.0958 58.1271 14.5562 57.8538 15.0118C57.7405 15.2137 57.5288 15.4574 57.2554 15.6864C56.9821 15.9179 56.6472 16.1321 56.2828 16.2749C55.8248 16.4473 55.32 16.536 54.8743 16.5926C54.4311 16.6468 54.0445 16.6665 53.8303 16.6935C53.749 16.6985 53.264 16.7329 52.5794 16.7896C52.2396 16.8191 51.8481 16.8511 51.432 16.8905C51.0183 16.9299 50.5825 16.9743 50.1491 17.021C49.7157 17.0654 49.2848 17.1146 48.881 17.1614C48.4771 17.2106 48.1053 17.255 47.7827 17.2968C47.145 17.3805 46.7239 17.4372 46.7239 17.4372C46.6353 17.4495 46.5417 17.3929 46.5245 17.2771C46.4555 16.9152 46.426 16.5483 46.4211 16.1765C46.3891 15.7135 46.3275 15.258 46.2561 14.8C46.1871 14.3445 46.1083 13.8889 46.0468 13.4309C46.032 13.3152 46.1305 13.2118 46.2388 13.1945C46.7141 13.1798 47.6769 13.0566 47.8542 13.0345C48.0807 13.032 48.4057 13.0099 48.78 12.9729C49.1543 12.936 49.5753 12.8892 49.9939 12.8326C50.415 12.7809 50.8312 12.7168 51.1956 12.6504C51.5575 12.5863 51.8678 12.5198 52.0722 12.4484C52.3553 12.3352 52.545 12.1333 52.5425 11.7861C52.5376 11.4389 52.082 11.3724 51.5502 11.4019C51.0183 11.4339 50.415 11.5645 50.1097 11.6063C49.6246 11.6777 49.1494 11.7147 48.6864 11.6826C48.221 11.6506 47.7655 11.5472 47.3297 11.3355C46.9948 11.1656 46.6895 10.9267 46.4186 10.6558C46.1477 10.3825 45.9138 10.0698 45.7316 9.74723C45.5592 9.42466 45.4263 9.08486 45.3327 8.73274C45.2391 8.38062 45.185 8.01373 45.1653 7.64438C45.148 7.27503 45.1628 6.89828 45.2145 6.52647C45.2638 6.15465 45.3499 5.7853 45.4681 5.42579C45.5937 5.01458 45.7808 4.62553 46.032 4.27587C46.2856 3.92622 46.6033 3.61842 46.9948 3.37711C47.305 3.18751 47.6399 3.00529 47.997 2.86002C48.3491 2.71227 48.7209 2.60393 49.1001 2.56946C49.1001 2.56946 49.6591 2.51529 50.5061 2.43895C50.9247 2.40202 51.4172 2.35769 51.9466 2.32076C52.4735 2.28136 53.0374 2.24196 53.6013 2.20503C54.1652 2.17302 54.7291 2.14101 55.2585 2.11392C55.7854 2.0893 56.2803 2.06467 56.7014 2.05236C57.5509 2.02035 58.1148 2.00558 58.1148 2.00558ZM77.6044 3.0767C77.5206 3.69229 77.4665 4.31773 77.4098 4.93825C77.3483 5.55876 77.2843 6.17928 77.1784 6.79487C77.0799 7.36121 76.9518 7.94971 76.8706 8.5456C76.8755 8.68596 76.7696 8.76475 76.6736 8.77706C76.2969 8.77214 75.7724 8.68842 75.2996 8.62686C74.8268 8.5653 74.4107 8.52098 74.2457 8.59485C74.1718 8.65887 73.997 8.75244 73.9158 9.0233C73.869 9.21536 73.7877 9.78171 73.6941 10.5229C73.6498 10.8947 73.5981 11.3133 73.5489 11.7516C73.4996 12.1899 73.4479 12.6479 73.3987 13.101C73.347 13.5565 73.3002 14.0096 73.2534 14.4331C73.2066 14.8591 73.1672 15.2555 73.1303 15.6027C73.0564 16.2922 73.0096 16.7773 72.9998 16.8635C72.985 17.0013 72.889 17.0851 72.7806 17.0728C72.7806 17.0728 72.4039 17.0358 71.84 16.9792C71.5593 16.9521 71.2293 16.9201 70.8772 16.8856C70.5226 16.8561 70.1483 16.8265 69.7716 16.7945C69.3949 16.7674 69.0181 16.7403 68.6635 16.7157C68.3114 16.6911 67.9815 16.6714 67.6958 16.6542C67.132 16.6221 66.7552 16.6 66.7552 16.6C66.6715 16.5951 66.5878 16.4966 66.5927 16.3587C66.6001 16.1174 66.6296 15.6126 66.6764 14.9797C66.6961 14.667 66.7207 14.3198 66.7478 13.9579C66.7725 13.5959 66.7995 13.2192 66.8291 12.8473C66.8537 12.4755 66.8808 12.1037 66.903 11.7541C66.9276 11.4069 66.9522 11.0744 66.9694 10.7814C67.0064 10.1978 67.0285 9.75955 67.0187 9.60934C66.9965 9.12672 67.1344 8.64656 66.8266 8.30675C66.5582 8.0162 66.2332 7.90785 65.886 7.87092C65.4674 7.83398 64.1328 7.81921 64.1328 7.81921C64.0368 7.81428 63.9481 7.69609 63.9506 7.58282V7.5582C63.9506 7.5582 63.9555 6.40335 63.9137 5.98721C63.9038 5.76806 63.8989 5.42579 63.8989 5.03182C63.8989 4.63784 63.9063 4.19461 63.9137 3.77355C63.9284 2.93389 63.9531 2.19025 63.9531 2.13362C63.958 1.99573 64.054 1.99819 64.155 2.00065C64.155 2.00065 64.3643 2.00558 64.7312 2.01296C65.0981 2.02774 65.6225 2.04497 66.2529 2.06714C66.5681 2.08191 66.9103 2.09668 67.2699 2.11146C67.6318 2.13116 68.011 2.15086 68.405 2.17548C68.799 2.19764 69.2053 2.22226 69.6189 2.24935C70.0302 2.27644 70.4488 2.31091 70.8674 2.34292C71.2884 2.37493 71.707 2.4094 72.1182 2.44634C72.5294 2.48327 72.9357 2.52267 73.3272 2.55961C73.7212 2.59901 74.098 2.6384 74.4575 2.67534C74.817 2.71474 75.1592 2.75167 75.4695 2.78861C76.0974 2.86002 76.617 2.9265 76.9839 2.97328C77.3458 3.02007 77.5576 3.04962 77.5576 3.04962C77.5576 3.04962 77.6068 3.05454 77.6044 3.0767ZM91.1941 10.2791C91.1203 10.5623 91.0292 10.9095 90.9307 11.2887C90.8322 11.6679 90.7238 12.0791 90.6179 12.4928C90.5096 12.904 90.4012 13.3152 90.3027 13.6944C90.2043 14.0785 90.1132 14.4306 90.0368 14.7212C89.8842 15.3048 89.6822 15.7652 89.436 16.1641C89.1922 16.5655 88.9017 16.9102 88.5717 17.255C88.3009 17.5652 87.9906 17.8262 87.6582 18.0429C87.3307 18.2596 86.9786 18.432 86.624 18.5551C86.2078 18.7078 85.8188 18.8432 85.3756 18.9047C84.9373 18.9688 84.4448 18.9614 83.8194 18.826C83.6618 18.7939 82.9822 18.6536 82.3296 18.5206C81.6746 18.3975 81.0492 18.2768 80.995 18.267C80.4262 18.1168 79.8968 17.8385 79.4462 17.4987C78.9907 17.1614 78.6115 16.7674 78.3505 16.3858C78.1239 16.0607 77.89 15.5042 77.7299 14.9231C77.5674 14.342 77.4739 13.7338 77.5379 13.298C77.5699 13.0813 77.6241 12.6971 77.693 12.2293C77.762 11.759 77.8432 11.2 77.9269 10.6238C78.0107 10.0501 78.0968 9.45914 78.1732 8.92727C78.2495 8.39786 78.3185 7.92755 78.3677 7.58774C78.4662 6.91552 78.6706 6.34918 78.934 5.89118C79.2 5.43072 79.5275 5.07614 79.8722 4.82744C80.4558 4.40391 80.9532 4.1626 81.4727 4.03456C81.9923 3.90898 82.5365 3.89667 83.2161 3.93607C83.2382 3.94099 84.041 4.09119 84.9939 4.27095C85.4691 4.36698 85.9813 4.47286 86.4541 4.56643C86.9244 4.66985 87.3553 4.75849 87.668 4.82744C88.291 4.96533 88.8401 5.17463 89.3227 5.47012C89.8029 5.77299 90.2116 6.16204 90.5539 6.66436C90.879 7.15929 91.1178 7.77488 91.2335 8.40525C91.3468 9.04054 91.3443 9.69552 91.1941 10.2791ZM83.0683 12.6947C82.8443 13.8495 83.1201 14.1844 83.5879 14.278C84.1838 14.3986 84.4177 13.719 84.4916 13.3546C84.6098 12.7882 84.76 12.1554 84.8954 11.5571C85.0333 10.9612 85.154 10.4022 85.2155 9.99347C85.3411 9.26461 85.3583 8.72535 84.7329 8.59485C83.94 8.43972 83.7184 9.22029 83.647 9.58226C83.6125 9.81372 83.5239 10.2939 83.4155 10.8676C83.3097 11.4389 83.1816 12.1037 83.0683 12.6947ZM99.2263 22.9356C98.7807 22.9553 98.3325 22.8839 97.9582 22.7953C97.5839 22.7066 97.2835 22.6007 97.1309 22.5466C97.1309 22.5466 96.2641 22.2511 95.3949 21.9605C94.5257 21.6749 93.654 21.3967 93.654 21.3967C93.1025 21.2292 92.541 20.9091 92.0683 20.488C91.593 20.067 91.2064 19.5499 91.0242 18.9811C90.81 18.3975 90.7928 17.6933 90.8568 17.0309C90.9183 16.3685 91.0636 15.7505 91.1769 15.3393L91.6866 13.4654C91.6866 13.4654 91.8048 13.0246 91.9846 12.3672C92.0732 12.0372 92.1791 11.6506 92.2923 11.2394C92.4031 10.8282 92.5213 10.385 92.642 9.94669C92.7626 9.50592 92.8833 9.06762 92.9966 8.65641C93.1098 8.24027 93.2108 7.85614 93.3019 7.52619C93.4817 6.86874 93.6023 6.43044 93.6023 6.43044C93.6269 6.34179 93.6885 6.28762 93.7599 6.30732C93.7599 6.30732 94.1022 6.40089 94.6143 6.5437C95.1241 6.68898 95.8061 6.88597 96.4882 7.08542C97.1653 7.2898 97.8425 7.4991 98.3497 7.65915C98.857 7.81921 99.1968 7.92755 99.1968 7.92755C99.2657 7.95217 99.2928 8.02851 99.2633 8.11961C99.1328 8.52344 99.0023 8.92973 98.8718 9.33848C98.7413 9.74477 98.6157 10.1535 98.495 10.5623C98.4285 10.7642 98.3177 11.0917 98.1897 11.4783C98.0592 11.8624 97.9139 12.3056 97.7662 12.7415C97.6209 13.1822 97.4805 13.6156 97.3648 13.9726C97.2491 14.3346 97.1629 14.6227 97.126 14.7754C96.9757 15.3836 96.7935 16.0977 96.9954 16.4325C97.1974 16.7674 97.5938 16.7305 97.7169 16.6492C98.1897 16.3217 98.3325 15.615 98.5541 15.029C98.6083 14.8837 98.7142 14.5858 98.8471 14.2041C98.9801 13.8249 99.1402 13.362 99.3027 12.8867C99.4677 12.414 99.6351 11.9313 99.7804 11.5103C99.9306 11.0868 100.054 10.7248 100.14 10.5007C100.369 9.89498 100.583 9.25969 100.77 8.63917C100.775 8.54807 100.869 8.5062 100.938 8.52837C100.938 8.52837 101.29 8.64902 101.822 8.8337C102.351 9.01838 103.055 9.26954 103.76 9.52808C104.461 9.78909 105.163 10.0526 105.685 10.2545C106.212 10.4564 106.559 10.5943 106.559 10.5943C106.626 10.6214 106.648 10.7051 106.623 10.7667C106.623 10.7667 106.419 11.2788 106.116 12.0446C105.963 12.4287 105.786 12.8744 105.596 13.3546C105.407 13.8323 105.205 14.3445 105.003 14.8542C104.799 15.3663 104.597 15.8785 104.407 16.3562C104.218 16.8364 104.04 17.2821 103.888 17.6662C103.585 18.432 103.383 18.9417 103.383 18.9417C103.267 19.2322 103.144 19.54 103.011 19.8478C102.876 20.1556 102.728 20.4634 102.563 20.754C102.233 21.3376 101.834 21.8547 101.319 22.1748C100.96 22.3939 100.608 22.581 100.258 22.714C99.9109 22.8445 99.5686 22.9258 99.2263 22.9356ZM114.471 25.3438C114.451 25.6639 114.397 26.0604 114.323 26.4863C114.247 26.9123 114.148 27.3679 114.052 27.7939C113.853 28.6434 113.646 29.387 113.584 29.5889C113.538 29.7219 113.422 29.7908 113.35 29.749C113.35 29.749 113.082 29.6062 112.686 29.3919C112.284 29.1777 111.75 28.897 111.216 28.6163C110.679 28.3405 110.137 28.0672 109.733 27.8628C109.329 27.6634 109.056 27.5304 109.056 27.5304C108.999 27.5008 108.982 27.4442 108.992 27.3679C109.049 27.1266 109.159 26.3657 109.238 25.6048C109.312 24.844 109.354 24.0831 109.295 23.8492C109.251 23.6793 108.906 23.6202 108.81 23.827C108.573 24.253 108.337 24.7036 108.113 25.1616C107.891 25.6221 107.677 26.0874 107.488 26.5479C107.438 26.6538 107.34 26.708 107.281 26.6784C107.281 26.6784 106.99 26.5454 106.559 26.3485C106.128 26.149 105.55 25.8905 104.971 25.6344C104.39 25.3832 103.809 25.1321 103.37 24.9474C102.932 24.7652 102.642 24.642 102.642 24.642C102.56 24.61 102.555 24.5091 102.597 24.4007L103.324 22.6278L103.336 22.6057C103.373 22.517 103.499 22.2117 103.668 21.8005C103.838 21.3893 104.053 20.8697 104.269 20.3526C104.481 19.8331 104.695 19.3184 104.86 18.9097C105.028 18.5034 105.146 18.2054 105.175 18.1242L105.185 18.0996C105.185 18.0996 105.454 17.4446 105.722 16.7871C105.99 16.1321 106.261 15.4747 106.261 15.4747C106.407 15.1349 106.554 14.7901 106.702 14.443C106.855 14.0958 107.005 13.7486 107.153 13.3965C107.303 13.0443 107.448 12.6947 107.591 12.3426C107.734 11.9954 107.869 11.6408 108 11.2985C108.024 11.237 108.051 11.1729 108.118 11.2C108.118 11.2 108.719 11.4487 109.62 11.8279C110.068 12.02 110.588 12.2465 111.147 12.4928C111.706 12.7415 112.299 13.0099 112.89 13.2807C113.478 13.554 114.069 13.8323 114.619 14.0933C115.17 14.3592 115.68 14.6104 116.116 14.8246C116.99 15.2629 117.571 15.5609 117.571 15.5609C118.068 15.8169 118.477 16.3685 118.716 16.9619C119.014 17.644 119.016 18.4049 118.989 18.7595C118.965 19.2593 118.849 19.7099 118.667 20.1679C118.482 20.6259 118.233 21.0962 117.94 21.633C117.733 22.0049 117.445 22.4481 117.152 22.8421C116.857 23.236 116.554 23.5857 116.32 23.7753C115.857 24.152 114.899 24.6347 114.857 24.6617C114.838 24.6519 114.828 24.6741 114.828 24.6741C114.527 24.7455 114.491 25.0163 114.471 25.3438ZM111.88 19.5893C112.203 19.0254 112.402 18.5551 112.58 18.0799C112.841 17.3091 112.631 17.0284 112.351 16.8955C112.178 16.8142 111.967 16.8708 111.888 16.9866C111.809 17.154 111.693 17.4027 111.573 17.6563C111.467 17.8829 111.307 18.2104 111.147 18.5452C110.989 18.8777 110.829 19.2175 110.723 19.4711C110.657 19.673 110.511 19.9857 110.814 20.1556C111.1 20.3132 111.526 20.2147 111.88 19.5893Z"/>
</mask>
<path d="M18.0424 20.3108L18.6136 21.6995C18.786 22.1132 18.8254 22.5195 18.8131 22.8691C18.8032 23.2163 18.7417 23.5069 18.6949 23.6866C18.5349 24.3786 18.099 24.844 17.9537 25.0557C17.5598 25.6294 16.8014 25.9939 16.6019 26.0801C16.6019 26.0801 16.1193 26.2992 15.3953 26.6366C15.0358 26.804 14.6148 27.001 14.1691 27.2177C13.7209 27.4319 13.2432 27.6658 12.7705 27.9022C12.2928 28.1386 11.82 28.3774 11.3792 28.6064C10.9385 28.8354 10.5273 29.0521 10.1751 29.2393C9.47337 29.616 9.00799 29.8696 9.00799 29.8696C8.93165 29.909 8.85778 29.845 8.80607 29.7687C8.71989 29.5471 8.53275 29.1531 8.29637 28.6705C8.05998 28.1878 7.76942 27.6166 7.46901 27.0428C7.16861 26.4691 6.85835 25.8929 6.58256 25.3931C6.30924 24.8957 6.07039 24.4771 5.9128 24.2234C5.75521 23.9575 5.51636 23.5537 5.24304 23.0809C4.97218 22.6131 4.66439 22.0763 4.36398 21.5592C4.06603 21.0396 3.77794 20.5348 3.54155 20.1261C3.31009 19.7173 3.13034 19.4021 3.054 19.2593C2.91119 18.9737 2.66741 18.5058 2.45319 18.102C2.23896 17.7007 2.05182 17.3608 2.01981 17.3288C1.97549 17.2476 2.0075 17.1491 2.09615 17.0998C2.09615 17.0998 2.62555 16.8142 3.4209 16.3882C3.8198 16.1765 4.28518 15.9302 4.7875 15.6717C5.28983 15.4107 5.82908 15.1398 6.36834 14.8714C6.91006 14.603 7.44931 14.3371 7.95902 14.0908C8.47119 13.8495 8.94643 13.623 9.35764 13.4309C10.1776 13.0566 10.7292 12.8055 10.7292 12.8055C11.0394 12.6676 11.4531 12.5174 11.852 12.4238C12.2534 12.3278 12.64 12.281 12.8985 12.3302C13.2482 12.3943 13.6865 12.4657 14.1371 12.7538C14.3636 12.8991 14.5902 13.0985 14.8118 13.3792C15.0309 13.6624 15.2427 14.0219 15.4372 14.4897C15.6317 14.9625 15.7056 15.3565 15.7105 15.7037C15.7179 16.0484 15.6588 16.3513 15.5849 16.6295C15.4372 17.2451 15.0999 17.6416 14.8192 17.9887C14.6197 18.2251 14.504 18.4812 14.9226 18.5231C15.3683 18.5526 15.7696 18.3803 16.528 18.6881C16.858 18.8284 17.1436 19.0057 17.3948 19.2642C17.6435 19.5253 17.8577 19.8601 18.0424 20.3108ZM13.2974 24.7922C13.4205 24.2234 13.0413 23.7359 12.7976 23.268C12.5587 22.7682 12.2903 22.1009 11.6378 22.0024C11.5048 21.9876 11.3423 22.0172 11.229 22.0984C11.0444 22.192 11.0517 22.3127 11.165 22.4899C11.3398 22.8273 11.6205 23.5167 11.9013 24.1323C12.1795 24.7504 12.4553 25.2896 12.6227 25.3266C12.9872 25.3758 13.2457 25.0976 13.2974 24.7922ZM10.4263 19.5425C10.9631 18.9762 10.5445 18.203 10.286 17.6588C10.0373 17.1417 9.82303 16.6295 9.22714 16.3784C9.02522 16.2946 8.77899 16.3365 8.63371 16.5335C8.5229 16.6394 8.49582 16.8044 8.57954 16.9201C8.83316 17.4101 9.0203 17.8287 9.20251 18.2473C9.38473 18.6684 9.56202 19.0993 9.78855 19.6139C9.86981 19.8331 10.2539 19.7222 10.4263 19.5425ZM28.3375 6.44767C28.3646 6.45998 28.3867 6.45506 28.4188 6.4723C28.5714 6.93276 28.6404 7.19869 28.7142 7.53604C28.793 7.87338 28.8792 8.27228 29.0688 8.99621C29.1673 9.35326 29.4948 10.1732 29.613 10.5229C29.645 10.6337 29.5835 10.7716 29.4628 10.779C29.0811 10.875 28.6256 10.9833 28.1479 11.0991C27.6751 11.2123 27.1753 11.3305 26.7025 11.4463C26.2297 11.5669 25.7816 11.6826 25.4024 11.7836C25.0256 11.8919 24.7178 11.9806 24.5282 12.052C23.9717 12.2441 23.4596 12.4411 23.1148 12.6528C22.7701 12.8695 22.5879 13.101 22.679 13.3743C22.8637 13.8988 23.2749 13.8077 23.5113 13.7732C23.9323 13.7042 24.2254 13.6156 24.5356 13.5048C24.8434 13.3989 25.1734 13.2709 25.6708 13.1379C26.1731 13.0172 26.6779 12.9138 27.1827 12.8941C27.6801 12.8744 28.175 12.9385 28.6527 13.1502C29.0368 13.325 29.5096 13.5196 29.9824 14.0244C30.2187 14.278 30.4527 14.6079 30.6767 15.0487C30.9008 15.4944 31.1175 16.0533 31.3145 16.76C31.3711 16.9718 31.4278 17.3091 31.4327 17.7204C31.4376 18.1316 31.3908 18.6191 31.2382 19.1288C31.1741 19.3504 31.0289 19.6385 30.822 19.9266C30.6127 20.2172 30.3394 20.5077 30.0218 20.7318C29.6179 21.0125 29.1501 21.2218 28.729 21.3819C28.3129 21.5444 27.9435 21.6552 27.7416 21.7315C27.6628 21.7562 27.2024 21.9113 26.5523 22.1304C26.2273 22.2412 25.8554 22.3693 25.4639 22.5072C25.0724 22.6451 24.6587 22.7953 24.2475 22.9455C23.8388 23.0932 23.4325 23.2459 23.0533 23.3887C22.6741 23.534 22.322 23.6669 22.0216 23.7876C21.4232 24.024 21.0243 24.1816 21.0243 24.1816C20.948 24.2136 20.8396 24.184 20.7978 24.0757C20.6377 23.7384 20.522 23.3862 20.4284 23.0292C20.2831 22.5884 20.1132 22.16 19.9359 21.734C19.7586 21.308 19.5715 20.8845 19.3991 20.4585C19.3573 20.3502 19.4238 20.2221 19.5272 20.1802C19.9852 20.0497 20.8889 19.7001 21.0538 19.6361C21.273 19.577 21.5833 19.476 21.9378 19.3504C22.2924 19.2249 22.6913 19.0746 23.0853 18.9195C23.4793 18.7669 23.8683 18.6019 24.2057 18.4517C24.5405 18.3015 24.8262 18.1587 25.0084 18.0429C25.2571 17.8632 25.3876 17.6219 25.3014 17.287C25.2128 16.9496 24.7523 16.9964 24.2451 17.154C23.7378 17.3141 23.1838 17.5874 22.8982 17.7007C22.4451 17.8878 21.992 18.0405 21.5365 18.1193C21.076 18.203 20.6131 18.2104 20.1354 18.1119C19.7685 18.0281 19.4164 17.873 19.0864 17.6736C18.7589 17.4741 18.4536 17.2303 18.2 16.9595C17.9537 16.6886 17.7444 16.3907 17.5671 16.0706C17.3923 15.7529 17.2495 15.4107 17.1412 15.0585C17.0328 14.7015 16.9565 14.3346 16.9171 13.9603C16.8752 13.5885 16.8678 13.2093 16.8949 12.835C16.9195 12.4017 17.0057 11.9757 17.1633 11.5768C17.3258 11.1779 17.5622 10.8036 17.8799 10.4736C18.136 10.2151 18.4167 9.95653 18.7269 9.72753C19.0347 9.50346 19.3671 9.30893 19.7242 9.18089C19.7242 9.18089 20.2585 8.99129 21.0588 8.71058C21.4577 8.57515 21.9255 8.4151 22.4278 8.24766C22.9302 8.08268 23.4694 7.90785 24.0062 7.73549C24.543 7.56558 25.0847 7.39814 25.5895 7.24055C26.0968 7.09281 26.572 6.94999 26.9758 6.83426C27.7933 6.60034 28.3375 6.44767 28.3375 6.44767ZM44.4315 11.6063C44.4512 11.7861 44.4856 12.084 44.53 12.446C44.5718 12.8079 44.6235 13.2364 44.6851 13.6772C44.7467 14.1179 44.8107 14.571 44.8796 14.9797C44.9461 15.391 45.02 15.7628 45.0889 16.041L45.2958 17.4298C45.3105 17.5455 45.2367 17.6489 45.1308 17.6637C45.1308 17.6637 44.8156 17.7154 44.3478 17.7844C43.8774 17.8607 43.252 17.9641 42.629 18.07C42.0036 18.1808 41.3831 18.2941 40.9152 18.3827C40.4498 18.4738 40.1371 18.5329 40.1371 18.5329C39.4624 18.6684 38.8838 18.7496 38.3815 18.7866C37.8816 18.8284 37.4605 18.826 37.0986 18.7989C36.3771 18.7472 35.9117 18.592 35.5768 18.4689C35.2346 18.3532 34.8751 18.203 34.5426 18.0208C34.2053 17.841 33.8975 17.6268 33.6513 17.3805C33.1169 16.861 32.75 16.3734 32.489 15.8933C32.2256 15.4131 32.0655 14.9403 31.9399 14.4627C31.9399 14.4627 31.7602 13.7904 31.5854 13.1231C31.4056 12.4558 31.2283 11.7861 31.2283 11.7861C31.2234 11.7639 31.4819 12.7464 31.216 11.7393C31.0855 11.2493 30.9993 10.7593 30.9501 10.289C30.9057 9.81618 30.8984 9.36557 30.9254 8.95435C30.9698 8.54806 31.0904 8.15901 31.2628 7.78473C31.4327 7.41045 31.6543 7.05095 31.8956 6.70868C32.0828 6.42797 32.3487 6.17435 32.6663 5.94289C32.984 5.71143 33.3607 5.50459 33.7645 5.31991C34.1708 5.1377 34.6067 4.97764 35.0573 4.83975C35.5054 4.70432 35.961 4.59105 36.4091 4.49748C36.4091 4.49748 36.8056 4.41869 37.4039 4.29803C37.7019 4.2414 38.0515 4.16999 38.4258 4.10104C38.8001 4.0321 39.199 3.95577 39.6003 3.88682C40.0017 3.81541 40.4031 3.74646 40.7798 3.67998C41.1541 3.61596 41.5062 3.56179 41.8041 3.51008C42.4074 3.41897 42.8112 3.35495 42.8112 3.35495C42.9344 3.33771 43.2298 3.50023 43.2471 3.61842L43.4219 4.80774C43.4391 4.91855 43.4318 5.03674 43.4515 5.17463C43.4515 5.31499 43.4933 5.63017 43.55 6.02661C43.6091 6.42059 43.6854 6.89828 43.7593 7.35628C43.9119 8.27228 44.0621 9.11687 44.0621 9.11687C44.0794 9.23506 43.9981 9.34094 43.8824 9.35818C43.7248 9.37542 43.3333 9.43944 42.826 9.52808C42.3188 9.61919 41.6958 9.73738 41.0802 9.85804C40.4671 9.98116 39.8589 10.1067 39.3763 10.2077C38.8961 10.3111 38.5391 10.385 38.4307 10.4022C37.5418 10.5795 37.266 11.205 37.3448 11.5669C37.4335 11.8747 37.6846 12.18 37.9653 12.2884C38.5415 12.4706 38.7434 12.4312 39.3369 12.3647C39.5634 12.3426 39.9771 12.2712 40.4695 12.18C40.9596 12.0914 41.5308 11.9831 42.075 11.8772C42.6216 11.7762 43.1412 11.6753 43.5303 11.6014C43.9218 11.53 44.1779 11.4807 44.2025 11.4758C44.2936 11.4635 44.3921 11.5201 44.4315 11.6063ZM58.1148 2.00558C58.137 2.02774 58.1641 2.02774 58.1862 2.0499C58.2256 2.53498 58.2281 2.81323 58.2207 3.1555C58.2133 3.50023 58.1985 3.90898 58.2059 4.66C58.2158 5.02935 58.3315 5.90349 58.366 6.27038C58.366 6.38611 58.2773 6.50677 58.1591 6.48461C57.7602 6.48215 57.2948 6.47722 56.8048 6.4723C56.3173 6.46737 55.8027 6.46245 55.3176 6.45998C54.83 6.46245 54.3671 6.46737 53.9756 6.4723C53.5816 6.48461 53.2615 6.49692 53.062 6.51908C52.4735 6.57325 51.9318 6.63727 51.5428 6.76039C51.1562 6.88843 50.9223 7.07065 50.9493 7.35382C50.9961 7.91031 51.4221 7.9177 51.6585 7.94479C52.0845 7.97926 52.3898 7.96202 52.7149 7.93248C53.0399 7.90293 53.392 7.86353 53.9066 7.84875C54.4213 7.85368 54.9384 7.8783 55.4308 7.97926C55.9208 8.08268 56.3838 8.26736 56.795 8.585C57.1299 8.84847 57.5386 9.1538 57.8735 9.75708C58.0409 10.06 58.1887 10.4367 58.2995 10.9193C58.4078 11.4069 58.4842 12.0003 58.5014 12.7316C58.5063 12.9508 58.4817 13.2955 58.3857 13.6944C58.2921 14.0958 58.1271 14.5562 57.8538 15.0118C57.7405 15.2137 57.5288 15.4574 57.2554 15.6864C56.9821 15.9179 56.6472 16.1321 56.2828 16.2749C55.8248 16.4473 55.32 16.536 54.8743 16.5926C54.4311 16.6468 54.0445 16.6665 53.8303 16.6935C53.749 16.6985 53.264 16.7329 52.5794 16.7896C52.2396 16.8191 51.8481 16.8511 51.432 16.8905C51.0183 16.9299 50.5825 16.9743 50.1491 17.021C49.7157 17.0654 49.2848 17.1146 48.881 17.1614C48.4771 17.2106 48.1053 17.255 47.7827 17.2968C47.145 17.3805 46.7239 17.4372 46.7239 17.4372C46.6353 17.4495 46.5417 17.3929 46.5245 17.2771C46.4555 16.9152 46.426 16.5483 46.4211 16.1765C46.3891 15.7135 46.3275 15.258 46.2561 14.8C46.1871 14.3445 46.1083 13.8889 46.0468 13.4309C46.032 13.3152 46.1305 13.2118 46.2388 13.1945C46.7141 13.1798 47.6769 13.0566 47.8542 13.0345C48.0807 13.032 48.4057 13.0099 48.78 12.9729C49.1543 12.936 49.5753 12.8892 49.9939 12.8326C50.415 12.7809 50.8312 12.7168 51.1956 12.6504C51.5575 12.5863 51.8678 12.5198 52.0722 12.4484C52.3553 12.3352 52.545 12.1333 52.5425 11.7861C52.5376 11.4389 52.082 11.3724 51.5502 11.4019C51.0183 11.4339 50.415 11.5645 50.1097 11.6063C49.6246 11.6777 49.1494 11.7147 48.6864 11.6826C48.221 11.6506 47.7655 11.5472 47.3297 11.3355C46.9948 11.1656 46.6895 10.9267 46.4186 10.6558C46.1477 10.3825 45.9138 10.0698 45.7316 9.74723C45.5592 9.42466 45.4263 9.08486 45.3327 8.73274C45.2391 8.38062 45.185 8.01373 45.1653 7.64438C45.148 7.27503 45.1628 6.89828 45.2145 6.52647C45.2638 6.15465 45.3499 5.7853 45.4681 5.42579C45.5937 5.01458 45.7808 4.62553 46.032 4.27587C46.2856 3.92622 46.6033 3.61842 46.9948 3.37711C47.305 3.18751 47.6399 3.00529 47.997 2.86002C48.3491 2.71227 48.7209 2.60393 49.1001 2.56946C49.1001 2.56946 49.6591 2.51529 50.5061 2.43895C50.9247 2.40202 51.4172 2.35769 51.9466 2.32076C52.4735 2.28136 53.0374 2.24196 53.6013 2.20503C54.1652 2.17302 54.7291 2.14101 55.2585 2.11392C55.7854 2.0893 56.2803 2.06467 56.7014 2.05236C57.5509 2.02035 58.1148 2.00558 58.1148 2.00558ZM77.6044 3.0767C77.5206 3.69229 77.4665 4.31773 77.4098 4.93825C77.3483 5.55876 77.2843 6.17928 77.1784 6.79487C77.0799 7.36121 76.9518 7.94971 76.8706 8.5456C76.8755 8.68596 76.7696 8.76475 76.6736 8.77706C76.2969 8.77214 75.7724 8.68842 75.2996 8.62686C74.8268 8.5653 74.4107 8.52098 74.2457 8.59485C74.1718 8.65887 73.997 8.75244 73.9158 9.0233C73.869 9.21536 73.7877 9.78171 73.6941 10.5229C73.6498 10.8947 73.5981 11.3133 73.5489 11.7516C73.4996 12.1899 73.4479 12.6479 73.3987 13.101C73.347 13.5565 73.3002 14.0096 73.2534 14.4331C73.2066 14.8591 73.1672 15.2555 73.1303 15.6027C73.0564 16.2922 73.0096 16.7773 72.9998 16.8635C72.985 17.0013 72.889 17.0851 72.7806 17.0728C72.7806 17.0728 72.4039 17.0358 71.84 16.9792C71.5593 16.9521 71.2293 16.9201 70.8772 16.8856C70.5226 16.8561 70.1483 16.8265 69.7716 16.7945C69.3949 16.7674 69.0181 16.7403 68.6635 16.7157C68.3114 16.6911 67.9815 16.6714 67.6958 16.6542C67.132 16.6221 66.7552 16.6 66.7552 16.6C66.6715 16.5951 66.5878 16.4966 66.5927 16.3587C66.6001 16.1174 66.6296 15.6126 66.6764 14.9797C66.6961 14.667 66.7207 14.3198 66.7478 13.9579C66.7725 13.5959 66.7995 13.2192 66.8291 12.8473C66.8537 12.4755 66.8808 12.1037 66.903 11.7541C66.9276 11.4069 66.9522 11.0744 66.9694 10.7814C67.0064 10.1978 67.0285 9.75955 67.0187 9.60934C66.9965 9.12672 67.1344 8.64656 66.8266 8.30675C66.5582 8.0162 66.2332 7.90785 65.886 7.87092C65.4674 7.83398 64.1328 7.81921 64.1328 7.81921C64.0368 7.81428 63.9481 7.69609 63.9506 7.58282V7.5582C63.9506 7.5582 63.9555 6.40335 63.9137 5.98721C63.9038 5.76806 63.8989 5.42579 63.8989 5.03182C63.8989 4.63784 63.9063 4.19461 63.9137 3.77355C63.9284 2.93389 63.9531 2.19025 63.9531 2.13362C63.958 1.99573 64.054 1.99819 64.155 2.00065C64.155 2.00065 64.3643 2.00558 64.7312 2.01296C65.0981 2.02774 65.6225 2.04497 66.2529 2.06714C66.5681 2.08191 66.9103 2.09668 67.2699 2.11146C67.6318 2.13116 68.011 2.15086 68.405 2.17548C68.799 2.19764 69.2053 2.22226 69.6189 2.24935C70.0302 2.27644 70.4488 2.31091 70.8674 2.34292C71.2884 2.37493 71.707 2.4094 72.1182 2.44634C72.5294 2.48327 72.9357 2.52267 73.3272 2.55961C73.7212 2.59901 74.098 2.6384 74.4575 2.67534C74.817 2.71474 75.1592 2.75167 75.4695 2.78861C76.0974 2.86002 76.617 2.9265 76.9839 2.97328C77.3458 3.02007 77.5576 3.04962 77.5576 3.04962C77.5576 3.04962 77.6068 3.05454 77.6044 3.0767ZM91.1941 10.2791C91.1203 10.5623 91.0292 10.9095 90.9307 11.2887C90.8322 11.6679 90.7238 12.0791 90.6179 12.4928C90.5096 12.904 90.4012 13.3152 90.3027 13.6944C90.2043 14.0785 90.1132 14.4306 90.0368 14.7212C89.8842 15.3048 89.6822 15.7652 89.436 16.1641C89.1922 16.5655 88.9017 16.9102 88.5717 17.255C88.3009 17.5652 87.9906 17.8262 87.6582 18.0429C87.3307 18.2596 86.9786 18.432 86.624 18.5551C86.2078 18.7078 85.8188 18.8432 85.3756 18.9047C84.9373 18.9688 84.4448 18.9614 83.8194 18.826C83.6618 18.7939 82.9822 18.6536 82.3296 18.5206C81.6746 18.3975 81.0492 18.2768 80.995 18.267C80.4262 18.1168 79.8968 17.8385 79.4462 17.4987C78.9907 17.1614 78.6115 16.7674 78.3505 16.3858C78.1239 16.0607 77.89 15.5042 77.7299 14.9231C77.5674 14.342 77.4739 13.7338 77.5379 13.298C77.5699 13.0813 77.6241 12.6971 77.693 12.2293C77.762 11.759 77.8432 11.2 77.9269 10.6238C78.0107 10.0501 78.0968 9.45914 78.1732 8.92727C78.2495 8.39786 78.3185 7.92755 78.3677 7.58774C78.4662 6.91552 78.6706 6.34918 78.934 5.89118C79.2 5.43072 79.5275 5.07614 79.8722 4.82744C80.4558 4.40391 80.9532 4.1626 81.4727 4.03456C81.9923 3.90898 82.5365 3.89667 83.2161 3.93607C83.2382 3.94099 84.041 4.09119 84.9939 4.27095C85.4691 4.36698 85.9813 4.47286 86.4541 4.56643C86.9244 4.66985 87.3553 4.75849 87.668 4.82744C88.291 4.96533 88.8401 5.17463 89.3227 5.47012C89.8029 5.77299 90.2116 6.16204 90.5539 6.66436C90.879 7.15929 91.1178 7.77488 91.2335 8.40525C91.3468 9.04054 91.3443 9.69552 91.1941 10.2791ZM83.0683 12.6947C82.8443 13.8495 83.1201 14.1844 83.5879 14.278C84.1838 14.3986 84.4177 13.719 84.4916 13.3546C84.6098 12.7882 84.76 12.1554 84.8954 11.5571C85.0333 10.9612 85.154 10.4022 85.2155 9.99347C85.3411 9.26461 85.3583 8.72535 84.7329 8.59485C83.94 8.43972 83.7184 9.22029 83.647 9.58226C83.6125 9.81372 83.5239 10.2939 83.4155 10.8676C83.3097 11.4389 83.1816 12.1037 83.0683 12.6947ZM99.2263 22.9356C98.7807 22.9553 98.3325 22.8839 97.9582 22.7953C97.5839 22.7066 97.2835 22.6007 97.1309 22.5466C97.1309 22.5466 96.2641 22.2511 95.3949 21.9605C94.5257 21.6749 93.654 21.3967 93.654 21.3967C93.1025 21.2292 92.541 20.9091 92.0683 20.488C91.593 20.067 91.2064 19.5499 91.0242 18.9811C90.81 18.3975 90.7928 17.6933 90.8568 17.0309C90.9183 16.3685 91.0636 15.7505 91.1769 15.3393L91.6866 13.4654C91.6866 13.4654 91.8048 13.0246 91.9846 12.3672C92.0732 12.0372 92.1791 11.6506 92.2923 11.2394C92.4031 10.8282 92.5213 10.385 92.642 9.94669C92.7626 9.50592 92.8833 9.06762 92.9966 8.65641C93.1098 8.24027 93.2108 7.85614 93.3019 7.52619C93.4817 6.86874 93.6023 6.43044 93.6023 6.43044C93.6269 6.34179 93.6885 6.28762 93.7599 6.30732C93.7599 6.30732 94.1022 6.40089 94.6143 6.5437C95.1241 6.68898 95.8061 6.88597 96.4882 7.08542C97.1653 7.2898 97.8425 7.4991 98.3497 7.65915C98.857 7.81921 99.1968 7.92755 99.1968 7.92755C99.2657 7.95217 99.2928 8.02851 99.2633 8.11961C99.1328 8.52344 99.0023 8.92973 98.8718 9.33848C98.7413 9.74477 98.6157 10.1535 98.495 10.5623C98.4285 10.7642 98.3177 11.0917 98.1897 11.4783C98.0592 11.8624 97.9139 12.3056 97.7662 12.7415C97.6209 13.1822 97.4805 13.6156 97.3648 13.9726C97.2491 14.3346 97.1629 14.6227 97.126 14.7754C96.9757 15.3836 96.7935 16.0977 96.9954 16.4325C97.1974 16.7674 97.5938 16.7305 97.7169 16.6492C98.1897 16.3217 98.3325 15.615 98.5541 15.029C98.6083 14.8837 98.7142 14.5858 98.8471 14.2041C98.9801 13.8249 99.1402 13.362 99.3027 12.8867C99.4677 12.414 99.6351 11.9313 99.7804 11.5103C99.9306 11.0868 100.054 10.7248 100.14 10.5007C100.369 9.89498 100.583 9.25969 100.77 8.63917C100.775 8.54807 100.869 8.5062 100.938 8.52837C100.938 8.52837 101.29 8.64902 101.822 8.8337C102.351 9.01838 103.055 9.26954 103.76 9.52808C104.461 9.78909 105.163 10.0526 105.685 10.2545C106.212 10.4564 106.559 10.5943 106.559 10.5943C106.626 10.6214 106.648 10.7051 106.623 10.7667C106.623 10.7667 106.419 11.2788 106.116 12.0446C105.963 12.4287 105.786 12.8744 105.596 13.3546C105.407 13.8323 105.205 14.3445 105.003 14.8542C104.799 15.3663 104.597 15.8785 104.407 16.3562C104.218 16.8364 104.04 17.2821 103.888 17.6662C103.585 18.432 103.383 18.9417 103.383 18.9417C103.267 19.2322 103.144 19.54 103.011 19.8478C102.876 20.1556 102.728 20.4634 102.563 20.754C102.233 21.3376 101.834 21.8547 101.319 22.1748C100.96 22.3939 100.608 22.581 100.258 22.714C99.9109 22.8445 99.5686 22.9258 99.2263 22.9356ZM114.471 25.3438C114.451 25.6639 114.397 26.0604 114.323 26.4863C114.247 26.9123 114.148 27.3679 114.052 27.7939C113.853 28.6434 113.646 29.387 113.584 29.5889C113.538 29.7219 113.422 29.7908 113.35 29.749C113.35 29.749 113.082 29.6062 112.686 29.3919C112.284 29.1777 111.75 28.897 111.216 28.6163C110.679 28.3405 110.137 28.0672 109.733 27.8628C109.329 27.6634 109.056 27.5304 109.056 27.5304C108.999 27.5008 108.982 27.4442 108.992 27.3679C109.049 27.1266 109.159 26.3657 109.238 25.6048C109.312 24.844 109.354 24.0831 109.295 23.8492C109.251 23.6793 108.906 23.6202 108.81 23.827C108.573 24.253 108.337 24.7036 108.113 25.1616C107.891 25.6221 107.677 26.0874 107.488 26.5479C107.438 26.6538 107.34 26.708 107.281 26.6784C107.281 26.6784 106.99 26.5454 106.559 26.3485C106.128 26.149 105.55 25.8905 104.971 25.6344C104.39 25.3832 103.809 25.1321 103.37 24.9474C102.932 24.7652 102.642 24.642 102.642 24.642C102.56 24.61 102.555 24.5091 102.597 24.4007L103.324 22.6278L103.336 22.6057C103.373 22.517 103.499 22.2117 103.668 21.8005C103.838 21.3893 104.053 20.8697 104.269 20.3526C104.481 19.8331 104.695 19.3184 104.86 18.9097C105.028 18.5034 105.146 18.2054 105.175 18.1242L105.185 18.0996C105.185 18.0996 105.454 17.4446 105.722 16.7871C105.99 16.1321 106.261 15.4747 106.261 15.4747C106.407 15.1349 106.554 14.7901 106.702 14.443C106.855 14.0958 107.005 13.7486 107.153 13.3965C107.303 13.0443 107.448 12.6947 107.591 12.3426C107.734 11.9954 107.869 11.6408 108 11.2985C108.024 11.237 108.051 11.1729 108.118 11.2C108.118 11.2 108.719 11.4487 109.62 11.8279C110.068 12.02 110.588 12.2465 111.147 12.4928C111.706 12.7415 112.299 13.0099 112.89 13.2807C113.478 13.554 114.069 13.8323 114.619 14.0933C115.17 14.3592 115.68 14.6104 116.116 14.8246C116.99 15.2629 117.571 15.5609 117.571 15.5609C118.068 15.8169 118.477 16.3685 118.716 16.9619C119.014 17.644 119.016 18.4049 118.989 18.7595C118.965 19.2593 118.849 19.7099 118.667 20.1679C118.482 20.6259 118.233 21.0962 117.94 21.633C117.733 22.0049 117.445 22.4481 117.152 22.8421C116.857 23.236 116.554 23.5857 116.32 23.7753C115.857 24.152 114.899 24.6347 114.857 24.6617C114.838 24.6519 114.828 24.6741 114.828 24.6741C114.527 24.7455 114.491 25.0163 114.471 25.3438ZM111.88 19.5893C112.203 19.0254 112.402 18.5551 112.58 18.0799C112.841 17.3091 112.631 17.0284 112.351 16.8955C112.178 16.8142 111.967 16.8708 111.888 16.9866C111.809 17.154 111.693 17.4027 111.573 17.6563C111.467 17.8829 111.307 18.2104 111.147 18.5452C110.989 18.8777 110.829 19.2175 110.723 19.4711C110.657 19.673 110.511 19.9857 110.814 20.1556C111.1 20.3132 111.526 20.2147 111.88 19.5893Z" fill="#EA5701"/>
<path d="M18.0424 20.3108L18.6136 21.6995C18.786 22.1132 18.8254 22.5195 18.8131 22.8691C18.8032 23.2163 18.7417 23.5069 18.6949 23.6866C18.5349 24.3786 18.099 24.844 17.9537 25.0557C17.5598 25.6294 16.8014 25.9939 16.6019 26.0801C16.6019 26.0801 16.1193 26.2992 15.3953 26.6366C15.0358 26.804 14.6148 27.001 14.1691 27.2177C13.7209 27.4319 13.2432 27.6658 12.7705 27.9022C12.2928 28.1386 11.82 28.3774 11.3792 28.6064C10.9385 28.8354 10.5273 29.0521 10.1751 29.2393C9.47337 29.616 9.00799 29.8696 9.00799 29.8696C8.93165 29.909 8.85778 29.845 8.80607 29.7687C8.71989 29.5471 8.53275 29.1531 8.29637 28.6705C8.05998 28.1878 7.76942 27.6166 7.46901 27.0428C7.16861 26.4691 6.85835 25.8929 6.58256 25.3931C6.30924 24.8957 6.07039 24.4771 5.9128 24.2234C5.75521 23.9575 5.51636 23.5537 5.24304 23.0809C4.97218 22.6131 4.66439 22.0763 4.36398 21.5592C4.06603 21.0396 3.77794 20.5348 3.54155 20.1261C3.31009 19.7173 3.13034 19.4021 3.054 19.2593C2.91119 18.9737 2.66741 18.5058 2.45319 18.102C2.23896 17.7007 2.05182 17.3608 2.01981 17.3288C1.97549 17.2476 2.0075 17.1491 2.09615 17.0998C2.09615 17.0998 2.62555 16.8142 3.4209 16.3882C3.8198 16.1765 4.28518 15.9302 4.7875 15.6717C5.28983 15.4107 5.82908 15.1398 6.36834 14.8714C6.91006 14.603 7.44931 14.3371 7.95902 14.0908C8.47119 13.8495 8.94643 13.623 9.35764 13.4309C10.1776 13.0566 10.7292 12.8055 10.7292 12.8055C11.0394 12.6676 11.4531 12.5174 11.852 12.4238C12.2534 12.3278 12.64 12.281 12.8985 12.3302C13.2482 12.3943 13.6865 12.4657 14.1371 12.7538C14.3636 12.8991 14.5902 13.0985 14.8118 13.3792C15.0309 13.6624 15.2427 14.0219 15.4372 14.4897C15.6317 14.9625 15.7056 15.3565 15.7105 15.7037C15.7179 16.0484 15.6588 16.3513 15.5849 16.6295C15.4372 17.2451 15.0999 17.6416 14.8192 17.9887C14.6197 18.2251 14.504 18.4812 14.9226 18.5231C15.3683 18.5526 15.7696 18.3803 16.528 18.6881C16.858 18.8284 17.1436 19.0057 17.3948 19.2642C17.6435 19.5253 17.8577 19.8601 18.0424 20.3108ZM13.2974 24.7922C13.4205 24.2234 13.0413 23.7359 12.7976 23.268C12.5587 22.7682 12.2903 22.1009 11.6378 22.0024C11.5048 21.9876 11.3423 22.0172 11.229 22.0984C11.0444 22.192 11.0517 22.3127 11.165 22.4899C11.3398 22.8273 11.6205 23.5167 11.9013 24.1323C12.1795 24.7504 12.4553 25.2896 12.6227 25.3266C12.9872 25.3758 13.2457 25.0976 13.2974 24.7922ZM10.4263 19.5425C10.9631 18.9762 10.5445 18.203 10.286 17.6588C10.0373 17.1417 9.82303 16.6295 9.22714 16.3784C9.02522 16.2946 8.77899 16.3365 8.63371 16.5335C8.5229 16.6394 8.49582 16.8044 8.57954 16.9201C8.83316 17.4101 9.0203 17.8287 9.20251 18.2473C9.38473 18.6684 9.56202 19.0993 9.78855 19.6139C9.86981 19.8331 10.2539 19.7222 10.4263 19.5425ZM28.3375 6.44767C28.3646 6.45998 28.3867 6.45506 28.4188 6.4723C28.5714 6.93276 28.6404 7.19869 28.7142 7.53604C28.793 7.87338 28.8792 8.27228 29.0688 8.99621C29.1673 9.35326 29.4948 10.1732 29.613 10.5229C29.645 10.6337 29.5835 10.7716 29.4628 10.779C29.0811 10.875 28.6256 10.9833 28.1479 11.0991C27.6751 11.2123 27.1753 11.3305 26.7025 11.4463C26.2297 11.5669 25.7816 11.6826 25.4024 11.7836C25.0256 11.8919 24.7178 11.9806 24.5282 12.052C23.9717 12.2441 23.4596 12.4411 23.1148 12.6528C22.7701 12.8695 22.5879 13.101 22.679 13.3743C22.8637 13.8988 23.2749 13.8077 23.5113 13.7732C23.9323 13.7042 24.2254 13.6156 24.5356 13.5048C24.8434 13.3989 25.1734 13.2709 25.6708 13.1379C26.1731 13.0172 26.6779 12.9138 27.1827 12.8941C27.6801 12.8744 28.175 12.9385 28.6527 13.1502C29.0368 13.325 29.5096 13.5196 29.9824 14.0244C30.2187 14.278 30.4527 14.6079 30.6767 15.0487C30.9008 15.4944 31.1175 16.0533 31.3145 16.76C31.3711 16.9718 31.4278 17.3091 31.4327 17.7204C31.4376 18.1316 31.3908 18.6191 31.2382 19.1288C31.1741 19.3504 31.0289 19.6385 30.822 19.9266C30.6127 20.2172 30.3394 20.5077 30.0218 20.7318C29.6179 21.0125 29.1501 21.2218 28.729 21.3819C28.3129 21.5444 27.9435 21.6552 27.7416 21.7315C27.6628 21.7562 27.2024 21.9113 26.5523 22.1304C26.2273 22.2412 25.8554 22.3693 25.4639 22.5072C25.0724 22.6451 24.6587 22.7953 24.2475 22.9455C23.8388 23.0932 23.4325 23.2459 23.0533 23.3887C22.6741 23.534 22.322 23.6669 22.0216 23.7876C21.4232 24.024 21.0243 24.1816 21.0243 24.1816C20.948 24.2136 20.8396 24.184 20.7978 24.0757C20.6377 23.7384 20.522 23.3862 20.4284 23.0292C20.2831 22.5884 20.1132 22.16 19.9359 21.734C19.7586 21.308 19.5715 20.8845 19.3991 20.4585C19.3573 20.3502 19.4238 20.2221 19.5272 20.1802C19.9852 20.0497 20.8889 19.7001 21.0538 19.6361C21.273 19.577 21.5833 19.476 21.9378 19.3504C22.2924 19.2249 22.6913 19.0746 23.0853 18.9195C23.4793 18.7669 23.8683 18.6019 24.2057 18.4517C24.5405 18.3015 24.8262 18.1587 25.0084 18.0429C25.2571 17.8632 25.3876 17.6219 25.3014 17.287C25.2128 16.9496 24.7523 16.9964 24.2451 17.154C23.7378 17.3141 23.1838 17.5874 22.8982 17.7007C22.4451 17.8878 21.992 18.0405 21.5365 18.1193C21.076 18.203 20.6131 18.2104 20.1354 18.1119C19.7685 18.0281 19.4164 17.873 19.0864 17.6736C18.7589 17.4741 18.4536 17.2303 18.2 16.9595C17.9537 16.6886 17.7444 16.3907 17.5671 16.0706C17.3923 15.7529 17.2495 15.4107 17.1412 15.0585C17.0328 14.7015 16.9565 14.3346 16.9171 13.9603C16.8752 13.5885 16.8678 13.2093 16.8949 12.835C16.9195 12.4017 17.0057 11.9757 17.1633 11.5768C17.3258 11.1779 17.5622 10.8036 17.8799 10.4736C18.136 10.2151 18.4167 9.95653 18.7269 9.72753C19.0347 9.50346 19.3671 9.30893 19.7242 9.18089C19.7242 9.18089 20.2585 8.99129 21.0588 8.71058C21.4577 8.57515 21.9255 8.4151 22.4278 8.24766C22.9302 8.08268 23.4694 7.90785 24.0062 7.73549C24.543 7.56558 25.0847 7.39814 25.5895 7.24055C26.0968 7.09281 26.572 6.94999 26.9758 6.83426C27.7933 6.60034 28.3375 6.44767 28.3375 6.44767ZM44.4315 11.6063C44.4512 11.7861 44.4856 12.084 44.53 12.446C44.5718 12.8079 44.6235 13.2364 44.6851 13.6772C44.7467 14.1179 44.8107 14.571 44.8796 14.9797C44.9461 15.391 45.02 15.7628 45.0889 16.041L45.2958 17.4298C45.3105 17.5455 45.2367 17.6489 45.1308 17.6637C45.1308 17.6637 44.8156 17.7154 44.3478 17.7844C43.8774 17.8607 43.252 17.9641 42.629 18.07C42.0036 18.1808 41.3831 18.2941 40.9152 18.3827C40.4498 18.4738 40.1371 18.5329 40.1371 18.5329C39.4624 18.6684 38.8838 18.7496 38.3815 18.7866C37.8816 18.8284 37.4605 18.826 37.0986 18.7989C36.3771 18.7472 35.9117 18.592 35.5768 18.4689C35.2346 18.3532 34.8751 18.203 34.5426 18.0208C34.2053 17.841 33.8975 17.6268 33.6513 17.3805C33.1169 16.861 32.75 16.3734 32.489 15.8933C32.2256 15.4131 32.0655 14.9403 31.9399 14.4627C31.9399 14.4627 31.7602 13.7904 31.5854 13.1231C31.4056 12.4558 31.2283 11.7861 31.2283 11.7861C31.2234 11.7639 31.4819 12.7464 31.216 11.7393C31.0855 11.2493 30.9993 10.7593 30.9501 10.289C30.9057 9.81618 30.8984 9.36557 30.9254 8.95435C30.9698 8.54806 31.0904 8.15901 31.2628 7.78473C31.4327 7.41045 31.6543 7.05095 31.8956 6.70868C32.0828 6.42797 32.3487 6.17435 32.6663 5.94289C32.984 5.71143 33.3607 5.50459 33.7645 5.31991C34.1708 5.1377 34.6067 4.97764 35.0573 4.83975C35.5054 4.70432 35.961 4.59105 36.4091 4.49748C36.4091 4.49748 36.8056 4.41869 37.4039 4.29803C37.7019 4.2414 38.0515 4.16999 38.4258 4.10104C38.8001 4.0321 39.199 3.95577 39.6003 3.88682C40.0017 3.81541 40.4031 3.74646 40.7798 3.67998C41.1541 3.61596 41.5062 3.56179 41.8041 3.51008C42.4074 3.41897 42.8112 3.35495 42.8112 3.35495C42.9344 3.33771 43.2298 3.50023 43.2471 3.61842L43.4219 4.80774C43.4391 4.91855 43.4318 5.03674 43.4515 5.17463C43.4515 5.31499 43.4933 5.63017 43.55 6.02661C43.6091 6.42059 43.6854 6.89828 43.7593 7.35628C43.9119 8.27228 44.0621 9.11687 44.0621 9.11687C44.0794 9.23506 43.9981 9.34094 43.8824 9.35818C43.7248 9.37542 43.3333 9.43944 42.826 9.52808C42.3188 9.61919 41.6958 9.73738 41.0802 9.85804C40.4671 9.98116 39.8589 10.1067 39.3763 10.2077C38.8961 10.3111 38.5391 10.385 38.4307 10.4022C37.5418 10.5795 37.266 11.205 37.3448 11.5669C37.4335 11.8747 37.6846 12.18 37.9653 12.2884C38.5415 12.4706 38.7434 12.4312 39.3369 12.3647C39.5634 12.3426 39.9771 12.2712 40.4695 12.18C40.9596 12.0914 41.5308 11.9831 42.075 11.8772C42.6216 11.7762 43.1412 11.6753 43.5303 11.6014C43.9218 11.53 44.1779 11.4807 44.2025 11.4758C44.2936 11.4635 44.3921 11.5201 44.4315 11.6063ZM58.1148 2.00558C58.137 2.02774 58.1641 2.02774 58.1862 2.0499C58.2256 2.53498 58.2281 2.81323 58.2207 3.1555C58.2133 3.50023 58.1985 3.90898 58.2059 4.66C58.2158 5.02935 58.3315 5.90349 58.366 6.27038C58.366 6.38611 58.2773 6.50677 58.1591 6.48461C57.7602 6.48215 57.2948 6.47722 56.8048 6.4723C56.3173 6.46737 55.8027 6.46245 55.3176 6.45998C54.83 6.46245 54.3671 6.46737 53.9756 6.4723C53.5816 6.48461 53.2615 6.49692 53.062 6.51908C52.4735 6.57325 51.9318 6.63727 51.5428 6.76039C51.1562 6.88843 50.9223 7.07065 50.9493 7.35382C50.9961 7.91031 51.4221 7.9177 51.6585 7.94479C52.0845 7.97926 52.3898 7.96202 52.7149 7.93248C53.0399 7.90293 53.392 7.86353 53.9066 7.84875C54.4213 7.85368 54.9384 7.8783 55.4308 7.97926C55.9208 8.08268 56.3838 8.26736 56.795 8.585C57.1299 8.84847 57.5386 9.1538 57.8735 9.75708C58.0409 10.06 58.1887 10.4367 58.2995 10.9193C58.4078 11.4069 58.4842 12.0003 58.5014 12.7316C58.5063 12.9508 58.4817 13.2955 58.3857 13.6944C58.2921 14.0958 58.1271 14.5562 57.8538 15.0118C57.7405 15.2137 57.5288 15.4574 57.2554 15.6864C56.9821 15.9179 56.6472 16.1321 56.2828 16.2749C55.8248 16.4473 55.32 16.536 54.8743 16.5926C54.4311 16.6468 54.0445 16.6665 53.8303 16.6935C53.749 16.6985 53.264 16.7329 52.5794 16.7896C52.2396 16.8191 51.8481 16.8511 51.432 16.8905C51.0183 16.9299 50.5825 16.9743 50.1491 17.021C49.7157 17.0654 49.2848 17.1146 48.881 17.1614C48.4771 17.2106 48.1053 17.255 47.7827 17.2968C47.145 17.3805 46.7239 17.4372 46.7239 17.4372C46.6353 17.4495 46.5417 17.3929 46.5245 17.2771C46.4555 16.9152 46.426 16.5483 46.4211 16.1765C46.3891 15.7135 46.3275 15.258 46.2561 14.8C46.1871 14.3445 46.1083 13.8889 46.0468 13.4309C46.032 13.3152 46.1305 13.2118 46.2388 13.1945C46.7141 13.1798 47.6769 13.0566 47.8542 13.0345C48.0807 13.032 48.4057 13.0099 48.78 12.9729C49.1543 12.936 49.5753 12.8892 49.9939 12.8326C50.415 12.7809 50.8312 12.7168 51.1956 12.6504C51.5575 12.5863 51.8678 12.5198 52.0722 12.4484C52.3553 12.3352 52.545 12.1333 52.5425 11.7861C52.5376 11.4389 52.082 11.3724 51.5502 11.4019C51.0183 11.4339 50.415 11.5645 50.1097 11.6063C49.6246 11.6777 49.1494 11.7147 48.6864 11.6826C48.221 11.6506 47.7655 11.5472 47.3297 11.3355C46.9948 11.1656 46.6895 10.9267 46.4186 10.6558C46.1477 10.3825 45.9138 10.0698 45.7316 9.74723C45.5592 9.42466 45.4263 9.08486 45.3327 8.73274C45.2391 8.38062 45.185 8.01373 45.1653 7.64438C45.148 7.27503 45.1628 6.89828 45.2145 6.52647C45.2638 6.15465 45.3499 5.7853 45.4681 5.42579C45.5937 5.01458 45.7808 4.62553 46.032 4.27587C46.2856 3.92622 46.6033 3.61842 46.9948 3.37711C47.305 3.18751 47.6399 3.00529 47.997 2.86002C48.3491 2.71227 48.7209 2.60393 49.1001 2.56946C49.1001 2.56946 49.6591 2.51529 50.5061 2.43895C50.9247 2.40202 51.4172 2.35769 51.9466 2.32076C52.4735 2.28136 53.0374 2.24196 53.6013 2.20503C54.1652 2.17302 54.7291 2.14101 55.2585 2.11392C55.7854 2.0893 56.2803 2.06467 56.7014 2.05236C57.5509 2.02035 58.1148 2.00558 58.1148 2.00558ZM77.6044 3.0767C77.5206 3.69229 77.4665 4.31773 77.4098 4.93825C77.3483 5.55876 77.2843 6.17928 77.1784 6.79487C77.0799 7.36121 76.9518 7.94971 76.8706 8.5456C76.8755 8.68596 76.7696 8.76475 76.6736 8.77706C76.2969 8.77214 75.7724 8.68842 75.2996 8.62686C74.8268 8.5653 74.4107 8.52098 74.2457 8.59485C74.1718 8.65887 73.997 8.75244 73.9158 9.0233C73.869 9.21536 73.7877 9.78171 73.6941 10.5229C73.6498 10.8947 73.5981 11.3133 73.5489 11.7516C73.4996 12.1899 73.4479 12.6479 73.3987 13.101C73.347 13.5565 73.3002 14.0096 73.2534 14.4331C73.2066 14.8591 73.1672 15.2555 73.1303 15.6027C73.0564 16.2922 73.0096 16.7773 72.9998 16.8635C72.985 17.0013 72.889 17.0851 72.7806 17.0728C72.7806 17.0728 72.4039 17.0358 71.84 16.9792C71.5593 16.9521 71.2293 16.9201 70.8772 16.8856C70.5226 16.8561 70.1483 16.8265 69.7716 16.7945C69.3949 16.7674 69.0181 16.7403 68.6635 16.7157C68.3114 16.6911 67.9815 16.6714 67.6958 16.6542C67.132 16.6221 66.7552 16.6 66.7552 16.6C66.6715 16.5951 66.5878 16.4966 66.5927 16.3587C66.6001 16.1174 66.6296 15.6126 66.6764 14.9797C66.6961 14.667 66.7207 14.3198 66.7478 13.9579C66.7725 13.5959 66.7995 13.2192 66.8291 12.8473C66.8537 12.4755 66.8808 12.1037 66.903 11.7541C66.9276 11.4069 66.9522 11.0744 66.9694 10.7814C67.0064 10.1978 67.0285 9.75955 67.0187 9.60934C66.9965 9.12672 67.1344 8.64656 66.8266 8.30675C66.5582 8.0162 66.2332 7.90785 65.886 7.87092C65.4674 7.83398 64.1328 7.81921 64.1328 7.81921C64.0368 7.81428 63.9481 7.69609 63.9506 7.58282V7.5582C63.9506 7.5582 63.9555 6.40335 63.9137 5.98721C63.9038 5.76806 63.8989 5.42579 63.8989 5.03182C63.8989 4.63784 63.9063 4.19461 63.9137 3.77355C63.9284 2.93389 63.9531 2.19025 63.9531 2.13362C63.958 1.99573 64.054 1.99819 64.155 2.00065C64.155 2.00065 64.3643 2.00558 64.7312 2.01296C65.0981 2.02774 65.6225 2.04497 66.2529 2.06714C66.5681 2.08191 66.9103 2.09668 67.2699 2.11146C67.6318 2.13116 68.011 2.15086 68.405 2.17548C68.799 2.19764 69.2053 2.22226 69.6189 2.24935C70.0302 2.27644 70.4488 2.31091 70.8674 2.34292C71.2884 2.37493 71.707 2.4094 72.1182 2.44634C72.5294 2.48327 72.9357 2.52267 73.3272 2.55961C73.7212 2.59901 74.098 2.6384 74.4575 2.67534C74.817 2.71474 75.1592 2.75167 75.4695 2.78861C76.0974 2.86002 76.617 2.9265 76.9839 2.97328C77.3458 3.02007 77.5576 3.04962 77.5576 3.04962C77.5576 3.04962 77.6068 3.05454 77.6044 3.0767ZM91.1941 10.2791C91.1203 10.5623 91.0292 10.9095 90.9307 11.2887C90.8322 11.6679 90.7238 12.0791 90.6179 12.4928C90.5096 12.904 90.4012 13.3152 90.3027 13.6944C90.2043 14.0785 90.1132 14.4306 90.0368 14.7212C89.8842 15.3048 89.6822 15.7652 89.436 16.1641C89.1922 16.5655 88.9017 16.9102 88.5717 17.255C88.3009 17.5652 87.9906 17.8262 87.6582 18.0429C87.3307 18.2596 86.9786 18.432 86.624 18.5551C86.2078 18.7078 85.8188 18.8432 85.3756 18.9047C84.9373 18.9688 84.4448 18.9614 83.8194 18.826C83.6618 18.7939 82.9822 18.6536 82.3296 18.5206C81.6746 18.3975 81.0492 18.2768 80.995 18.267C80.4262 18.1168 79.8968 17.8385 79.4462 17.4987C78.9907 17.1614 78.6115 16.7674 78.3505 16.3858C78.1239 16.0607 77.89 15.5042 77.7299 14.9231C77.5674 14.342 77.4739 13.7338 77.5379 13.298C77.5699 13.0813 77.6241 12.6971 77.693 12.2293C77.762 11.759 77.8432 11.2 77.9269 10.6238C78.0107 10.0501 78.0968 9.45914 78.1732 8.92727C78.2495 8.39786 78.3185 7.92755 78.3677 7.58774C78.4662 6.91552 78.6706 6.34918 78.934 5.89118C79.2 5.43072 79.5275 5.07614 79.8722 4.82744C80.4558 4.40391 80.9532 4.1626 81.4727 4.03456C81.9923 3.90898 82.5365 3.89667 83.2161 3.93607C83.2382 3.94099 84.041 4.09119 84.9939 4.27095C85.4691 4.36698 85.9813 4.47286 86.4541 4.56643C86.9244 4.66985 87.3553 4.75849 87.668 4.82744C88.291 4.96533 88.8401 5.17463 89.3227 5.47012C89.8029 5.77299 90.2116 6.16204 90.5539 6.66436C90.879 7.15929 91.1178 7.77488 91.2335 8.40525C91.3468 9.04054 91.3443 9.69552 91.1941 10.2791ZM83.0683 12.6947C82.8443 13.8495 83.1201 14.1844 83.5879 14.278C84.1838 14.3986 84.4177 13.719 84.4916 13.3546C84.6098 12.7882 84.76 12.1554 84.8954 11.5571C85.0333 10.9612 85.154 10.4022 85.2155 9.99347C85.3411 9.26461 85.3583 8.72535 84.7329 8.59485C83.94 8.43972 83.7184 9.22029 83.647 9.58226C83.6125 9.81372 83.5239 10.2939 83.4155 10.8676C83.3097 11.4389 83.1816 12.1037 83.0683 12.6947ZM99.2263 22.9356C98.7807 22.9553 98.3325 22.8839 97.9582 22.7953C97.5839 22.7066 97.2835 22.6007 97.1309 22.5466C97.1309 22.5466 96.2641 22.2511 95.3949 21.9605C94.5257 21.6749 93.654 21.3967 93.654 21.3967C93.1025 21.2292 92.541 20.9091 92.0683 20.488C91.593 20.067 91.2064 19.5499 91.0242 18.9811C90.81 18.3975 90.7928 17.6933 90.8568 17.0309C90.9183 16.3685 91.0636 15.7505 91.1769 15.3393L91.6866 13.4654C91.6866 13.4654 91.8048 13.0246 91.9846 12.3672C92.0732 12.0372 92.1791 11.6506 92.2923 11.2394C92.4031 10.8282 92.5213 10.385 92.642 9.94669C92.7626 9.50592 92.8833 9.06762 92.9966 8.65641C93.1098 8.24027 93.2108 7.85614 93.3019 7.52619C93.4817 6.86874 93.6023 6.43044 93.6023 6.43044C93.6269 6.34179 93.6885 6.28762 93.7599 6.30732C93.7599 6.30732 94.1022 6.40089 94.6143 6.5437C95.1241 6.68898 95.8061 6.88597 96.4882 7.08542C97.1653 7.2898 97.8425 7.4991 98.3497 7.65915C98.857 7.81921 99.1968 7.92755 99.1968 7.92755C99.2657 7.95217 99.2928 8.02851 99.2633 8.11961C99.1328 8.52344 99.0023 8.92973 98.8718 9.33848C98.7413 9.74477 98.6157 10.1535 98.495 10.5623C98.4285 10.7642 98.3177 11.0917 98.1897 11.4783C98.0592 11.8624 97.9139 12.3056 97.7662 12.7415C97.6209 13.1822 97.4805 13.6156 97.3648 13.9726C97.2491 14.3346 97.1629 14.6227 97.126 14.7754C96.9757 15.3836 96.7935 16.0977 96.9954 16.4325C97.1974 16.7674 97.5938 16.7305 97.7169 16.6492C98.1897 16.3217 98.3325 15.615 98.5541 15.029C98.6083 14.8837 98.7142 14.5858 98.8471 14.2041C98.9801 13.8249 99.1402 13.362 99.3027 12.8867C99.4677 12.414 99.6351 11.9313 99.7804 11.5103C99.9306 11.0868 100.054 10.7248 100.14 10.5007C100.369 9.89498 100.583 9.25969 100.77 8.63917C100.775 8.54807 100.869 8.5062 100.938 8.52837C100.938 8.52837 101.29 8.64902 101.822 8.8337C102.351 9.01838 103.055 9.26954 103.76 9.52808C104.461 9.78909 105.163 10.0526 105.685 10.2545C106.212 10.4564 106.559 10.5943 106.559 10.5943C106.626 10.6214 106.648 10.7051 106.623 10.7667C106.623 10.7667 106.419 11.2788 106.116 12.0446C105.963 12.4287 105.786 12.8744 105.596 13.3546C105.407 13.8323 105.205 14.3445 105.003 14.8542C104.799 15.3663 104.597 15.8785 104.407 16.3562C104.218 16.8364 104.04 17.2821 103.888 17.6662C103.585 18.432 103.383 18.9417 103.383 18.9417C103.267 19.2322 103.144 19.54 103.011 19.8478C102.876 20.1556 102.728 20.4634 102.563 20.754C102.233 21.3376 101.834 21.8547 101.319 22.1748C100.96 22.3939 100.608 22.581 100.258 22.714C99.9109 22.8445 99.5686 22.9258 99.2263 22.9356ZM114.471 25.3438C114.451 25.6639 114.397 26.0604 114.323 26.4863C114.247 26.9123 114.148 27.3679 114.052 27.7939C113.853 28.6434 113.646 29.387 113.584 29.5889C113.538 29.7219 113.422 29.7908 113.35 29.749C113.35 29.749 113.082 29.6062 112.686 29.3919C112.284 29.1777 111.75 28.897 111.216 28.6163C110.679 28.3405 110.137 28.0672 109.733 27.8628C109.329 27.6634 109.056 27.5304 109.056 27.5304C108.999 27.5008 108.982 27.4442 108.992 27.3679C109.049 27.1266 109.159 26.3657 109.238 25.6048C109.312 24.844 109.354 24.0831 109.295 23.8492C109.251 23.6793 108.906 23.6202 108.81 23.827C108.573 24.253 108.337 24.7036 108.113 25.1616C107.891 25.6221 107.677 26.0874 107.488 26.5479C107.438 26.6538 107.34 26.708 107.281 26.6784C107.281 26.6784 106.99 26.5454 106.559 26.3485C106.128 26.149 105.55 25.8905 104.971 25.6344C104.39 25.3832 103.809 25.1321 103.37 24.9474C102.932 24.7652 102.642 24.642 102.642 24.642C102.56 24.61 102.555 24.5091 102.597 24.4007L103.324 22.6278L103.336 22.6057C103.373 22.517 103.499 22.2117 103.668 21.8005C103.838 21.3893 104.053 20.8697 104.269 20.3526C104.481 19.8331 104.695 19.3184 104.86 18.9097C105.028 18.5034 105.146 18.2054 105.175 18.1242L105.185 18.0996C105.185 18.0996 105.454 17.4446 105.722 16.7871C105.99 16.1321 106.261 15.4747 106.261 15.4747C106.407 15.1349 106.554 14.7901 106.702 14.443C106.855 14.0958 107.005 13.7486 107.153 13.3965C107.303 13.0443 107.448 12.6947 107.591 12.3426C107.734 11.9954 107.869 11.6408 108 11.2985C108.024 11.237 108.051 11.1729 108.118 11.2C108.118 11.2 108.719 11.4487 109.62 11.8279C110.068 12.02 110.588 12.2465 111.147 12.4928C111.706 12.7415 112.299 13.0099 112.89 13.2807C113.478 13.554 114.069 13.8323 114.619 14.0933C115.17 14.3592 115.68 14.6104 116.116 14.8246C116.99 15.2629 117.571 15.5609 117.571 15.5609C118.068 15.8169 118.477 16.3685 118.716 16.9619C119.014 17.644 119.016 18.4049 118.989 18.7595C118.965 19.2593 118.849 19.7099 118.667 20.1679C118.482 20.6259 118.233 21.0962 117.94 21.633C117.733 22.0049 117.445 22.4481 117.152 22.8421C116.857 23.236 116.554 23.5857 116.32 23.7753C115.857 24.152 114.899 24.6347 114.857 24.6617C114.838 24.6519 114.828 24.6741 114.828 24.6741C114.527 24.7455 114.491 25.0163 114.471 25.3438ZM111.88 19.5893C112.203 19.0254 112.402 18.5551 112.58 18.0799C112.841 17.3091 112.631 17.0284 112.351 16.8955C112.178 16.8142 111.967 16.8708 111.888 16.9866C111.809 17.154 111.693 17.4027 111.573 17.6563C111.467 17.8829 111.307 18.2104 111.147 18.5452C110.989 18.8777 110.829 19.2175 110.723 19.4711C110.657 19.673 110.511 19.9857 110.814 20.1556C111.1 20.3132 111.526 20.2147 111.88 19.5893Z" stroke="white" stroke-width="2.49686" mask="url(#path-1-outside-1_82_126)"/>
</g>
<defs>
<filter id="filter0_d_82_126" x="0.193189" y="0.74353" width="120.61" height="31.4968" filterUnits="userSpaceOnUse" color-interpolation-filters="sRGB">
<feFlood flood-opacity="0" result="BackgroundImageFix"/>
<feColorMatrix in="SourceAlpha" type="matrix" values="0 0 0 0 0 0 0 0 0 0 0 0 0 0 0 0 0 0 127 0" result="hardAlpha"/>
<feOffset dy="0.554858"/>
<feGaussianBlur stdDeviation="0.277429"/>
<feComposite in2="hardAlpha" operator="out"/>
<feColorMatrix type="matrix" values="0 0 0 0 0 0 0 0 0 0 0 0 0 0 0 0 0 0 0.25 0"/>
<feBlend mode="normal" in2="BackgroundImageFix" result="effect1_dropShadow_82_126"/>
<feBlend mode="normal" in="SourceGraphic" in2="effect1_dropShadow_82_126" result="shape"/>
</filter>
</defs>
</svg>
