<svg width="138" height="138" viewBox="0 0 138 138" fill="none" xmlns="http://www.w3.org/2000/svg">
<g filter="url(#filter0_d_116_24)">
<path d="M79.537 24.2445L77.2255 53.3668L104.901 65.1691L75.7969 71.3654L73.4854 100.488L57.8093 75.1949L28.7048 81.3911L48.121 59.5631L32.4449 34.2703L60.1208 46.0726L79.537 24.2445Z" fill="#FFD6BA"/>
<path d="M83.6366 24.5702L81.5595 50.7438L118.471 66.4847L105.758 69.1911L79.6537 74.7483L77.5848 100.813L76.5931 113.308L69.9902 102.654L55.8368 79.8189L29.5616 85.4135L17.3013 88.0233L25.6321 78.6578L43.0096 59.1215L28.9493 36.4364L22.1024 25.3885L59.0142 41.1294L76.4637 21.5113L84.6061 12.3584L83.6366 24.5702Z" stroke="#5D0246" stroke-width="8.22502"/>
</g>
<defs>
<filter id="filter0_d_116_24" x="0.376966" y="0.47168" width="137.184" height="136.699" filterUnits="userSpaceOnUse" color-interpolation-filters="sRGB">
<feFlood flood-opacity="0" result="BackgroundImageFix"/>
<feColorMatrix in="SourceAlpha" type="matrix" values="0 0 0 0 0 0 0 0 0 0 0 0 0 0 0 0 0 0 127 0" result="hardAlpha"/>
<feOffset dy="5.5205"/>
<feGaussianBlur stdDeviation="2.76025"/>
<feComposite in2="hardAlpha" operator="out"/>
<feColorMatrix type="matrix" values="0 0 0 0 0 0 0 0 0 0 0 0 0 0 0 0 0 0 0.25 0"/>
<feBlend mode="normal" in2="BackgroundImageFix" result="effect1_dropShadow_116_24"/>
<feBlend mode="normal" in="SourceGraphic" in2="effect1_dropShadow_116_24" result="shape"/>
</filter>
</defs>
</svg>
